<?xml version="1.0" encoding="UTF-8" standalone="no"?>
<!-- Created with Inkscape (http://www.inkscape.org/) -->

<svg
   xmlns:dc="http://purl.org/dc/elements/1.1/"
   xmlns:cc="http://creativecommons.org/ns#"
   xmlns:rdf="http://www.w3.org/1999/02/22-rdf-syntax-ns#"
   xmlns:svg="http://www.w3.org/2000/svg"
   xmlns="http://www.w3.org/2000/svg"
   xmlns:sodipodi="http://sodipodi.sourceforge.net/DTD/sodipodi-0.dtd"
   xmlns:inkscape="http://www.inkscape.org/namespaces/inkscape"
   width="210mm"
   height="297mm"
   id="svg6659"
   version="1.1"
   inkscape:version="0.48.5 r10040"
   sodipodi:docname="Nouveau document 12">
  <defs
     id="defs6661" />
  <sodipodi:namedview
     id="base"
     pagecolor="#ffffff"
     bordercolor="#666666"
     borderopacity="1.0"
     inkscape:pageopacity="0.0"
     inkscape:pageshadow="2"
     inkscape:zoom="1.4"
     inkscape:cx="309.43692"
     inkscape:cy="664.92723"
     inkscape:document-units="px"
     inkscape:current-layer="layer1"
     showgrid="false"
     inkscape:window-width="1366"
     inkscape:window-height="705"
     inkscape:window-x="-8"
     inkscape:window-y="-8"
     inkscape:window-maximized="1" />
  <metadata
     id="metadata6664">
    <rdf:RDF>
      <cc:Work
         rdf:about="">
        <dc:format>image/svg+xml</dc:format>
        <dc:type
           rdf:resource="http://purl.org/dc/dcmitype/StillImage" />
        <dc:title></dc:title>
      </cc:Work>
    </rdf:RDF>
  </metadata>
  <g
     inkscape:label="Calque 1"
     inkscape:groupmode="layer"
     id="layer1">
    <path
       style="fill:none;stroke:#000000;stroke-width:2.88205719px;stroke-linecap:butt;stroke-linejoin:miter;stroke-opacity:1"
       d="m 489.49727,286.25169 c 0,0 14.8754,-21.36702 30.7422,-22.43537 15.8671,-1.06834 30.7426,-5.34174 31.7341,4.2734 0.9919,9.61518 -23.8004,9.61518 -23.8004,9.61518 0,0 -25.5356,13.86344 -24.7923,49.14413 0.6978,33.11464 -1.26911,22.95109 -1.26911,22.95109"
       id="path6637"
       inkscape:connector-curvature="0"
       sodipodi:nodetypes="csccsc" />
    <path
       style="fill:none;stroke:#000000;stroke-width:2.88205719px;stroke-linecap:butt;stroke-linejoin:miter;stroke-opacity:1"
       d="m 445.86287,359.96792 10.9087,-11.21769 c 0,0 5.6326,-48.41083 28.2632,-72.11368 17.8504,-18.69617 32.7257,-21.36702 32.7257,-21.36702 0,0 35.2339,-6.78805 39.2179,2.87458 3.5611,8.63718 -5.0048,11.01399 -5.0048,11.01399"
       id="path6639"
       inkscape:connector-curvature="0"
       sodipodi:nodetypes="ccscsc" />
    <path
       style="fill:none;stroke:#000000;stroke-width:2.88205719px;stroke-linecap:butt;stroke-linejoin:miter;stroke-opacity:1"
       d="m 496.43907,265.95304 c 0,0 13.388,-16.02529 27.2716,-17.09363 13.8836,-1.06837 26.0859,-1.6815 26.0859,-1.6815 0,0 17.8647,1.46952 15.2627,10.17843 -2.4145,8.08122 -6.4643,6.44961 -6.4643,6.44961"
       id="path6641"
       inkscape:connector-curvature="0"
       sodipodi:nodetypes="cscsc" />
    <path
       style="fill:none;stroke:#000000;stroke-width:2.88205719px;stroke-linecap:butt;stroke-linejoin:miter;stroke-opacity:1"
       d="m 514.28947,289.64006 c 0,0 -6.9429,59.6422 22.8089,44.68743 30.7609,-15.46199 40.0988,-24.00879 44.6259,-14.95691 3.8487,7.69536 -3.9668,18.16197 -16.8586,24.57208 -12.8921,6.41008 -25.6503,23.66534 -39.6675,29.91383 -14.3796,6.41008 -22.8089,5.87591 -36.6928,5.34174 -12.4175,-0.47776 -17.8502,15.49108 -17.8502,15.49108"
       id="path6643"
       inkscape:connector-curvature="0"
       sodipodi:nodetypes="csssssc" />
  </g>
</svg>
