<?xml version="1.0" encoding="UTF-8" standalone="no"?>
<!-- Created with Inkscape (http://www.inkscape.org/) -->

<svg
   xmlns:dc="http://purl.org/dc/elements/1.1/"
   xmlns:cc="http://creativecommons.org/ns#"
   xmlns:rdf="http://www.w3.org/1999/02/22-rdf-syntax-ns#"
   xmlns:svg="http://www.w3.org/2000/svg"
   xmlns="http://www.w3.org/2000/svg"
   xmlns:sodipodi="http://sodipodi.sourceforge.net/DTD/sodipodi-0.dtd"
   xmlns:inkscape="http://www.inkscape.org/namespaces/inkscape"
   width="105mm"
   height="148mm"
   viewBox="0 0 372.04724 524.40945"
   id="svg5316"
   version="1.1"
   inkscape:version="0.91 r13725"
   sodipodi:docname="Brune.svg">
  <defs
     id="defs5318" />
  <sodipodi:namedview
     id="base"
     pagecolor="#ffffff"
     bordercolor="#666666"
     borderopacity="1.0"
     inkscape:pageopacity="0.0"
     inkscape:pageshadow="2"
     inkscape:zoom="0.98994949"
     inkscape:cx="369.57033"
     inkscape:cy="251.09953"
     inkscape:document-units="px"
     inkscape:current-layer="layer1"
     showgrid="false"
     inkscape:window-width="1680"
     inkscape:window-height="1022"
     inkscape:window-x="0"
     inkscape:window-y="28"
     inkscape:window-maximized="1" />
  <metadata
     id="metadata5321">
    <rdf:RDF>
      <cc:Work
         rdf:about="">
        <dc:format>image/svg+xml</dc:format>
        <dc:type
           rdf:resource="http://purl.org/dc/dcmitype/StillImage" />
        <dc:title></dc:title>
      </cc:Work>
    </rdf:RDF>
  </metadata>
  <g
     inkscape:label="Calque 1"
     inkscape:groupmode="layer"
     id="layer1"
     transform="translate(0,-527.95276)">
    <text
       xml:space="preserve"
       style="font-style:normal;font-weight:normal;font-size:40px;line-height:125%;font-family:sans-serif;letter-spacing:0px;word-spacing:0px;fill:#000000;fill-opacity:1;stroke:none;stroke-width:1px;stroke-linecap:butt;stroke-linejoin:miter;stroke-opacity:1"
       x="26.52743"
       y="984.94446"
       id="text5980"
       sodipodi:linespacing="125%"><tspan
         sodipodi:role="line"
         id="tspan5982"
         x="26.52743"
         y="984.94446"
         style="font-style:normal;font-variant:normal;font-weight:bold;font-stretch:normal;font-family:sans-serif;-inkscape-font-specification:'sans-serif Bold'">Brune</tspan></text>
    <text
       xml:space="preserve"
       style="font-style:normal;font-weight:normal;font-size:40px;line-height:125%;font-family:sans-serif;letter-spacing:0px;word-spacing:0px;fill:#000000;fill-opacity:1;stroke:none;stroke-width:1px;stroke-linecap:butt;stroke-linejoin:miter;stroke-opacity:1"
       x="28.795496"
       y="1026.1851"
       id="text5984"
       sodipodi:linespacing="125%"><tspan
         sodipodi:role="line"
         id="tspan5986"
         x="28.795496"
         y="1026.1851"
         style="font-size:25px">Configurations : </tspan></text>
    <text
       xml:space="preserve"
       style="font-style:normal;font-weight:normal;font-size:40px;line-height:125%;font-family:sans-serif;letter-spacing:0px;word-spacing:0px;fill:#000000;fill-opacity:1;stroke:none;stroke-width:1px;stroke-linecap:butt;stroke-linejoin:miter;stroke-opacity:1"
       x="313.28229"
       y="1033.8682"
       id="text6291"
       sodipodi:linespacing="125%"><tspan
         sodipodi:role="line"
         id="tspan6293"
         x="313.28229"
         y="1033.8682">D</tspan></text>
    <g
       id="g4293"
       transform="translate(1.1657059,0)">
      <path
         inkscape:connector-curvature="0"
         id="path4684"
         d="m 211.05587,601.7456 c 1.50809,-3.52177 5.46097,-0.91999 3.58999,2.84205 -2.27304,4.89316 -3.27027,10.66785 -4.18832,16.45397 -2.86843,2.66442 -4.81609,-1.46682 -4.03868,-4.63703 1.15172,-5.01958 2.40539,-10.28759 4.63701,-14.65899 z"
         style="display:inline;fill:#fff5f0;fill-opacity:1;fill-rule:evenodd;stroke:#000000;stroke-width:1;stroke-linecap:butt;stroke-linejoin:miter;stroke-miterlimit:4;stroke-dasharray:none;stroke-opacity:1" />
      <path
         sodipodi:nodetypes="cccczssscccccccccccc"
         inkscape:connector-curvature="0"
         d="m 148.456,617.52645 c -4.09344,-0.65676 -5.10774,-6.58019 -4.93619,-10.39592 -0.57988,-5.50907 -2.41292,-9.44249 0.82267,-13.23796 2.095,-2.21725 5.15021,-0.60353 6.17852,2.46972 -1.05521,-4.47784 -1.8171,-9.85606 -2.40823,-14.76476 -0.59113,-4.90871 1.52637,-13.7633 5.83809,-18.47562 5.31356,-5.80727 12.89618,-11.25863 21.70925,-11.83075 8.81302,-0.57211 18.11557,0.57549 26.22268,7.40783 8.10715,6.83233 8.44327,21.4532 7.605,32.93864 0.41962,7.0511 2.67675,16.86309 1.20288,19.8616 -3.42731,6.69414 -1.77661,15.04682 -5.22981,20.81875 -0.92152,1.65537 -3.73762,7.06328 -7.20487,8.82212 0.34348,5.00699 0.72223,12.42385 0.72223,12.42385 11.36512,7.45655 24.89606,10.14271 32.75096,12.25905 -10.59993,49.58116 -37.72568,80.92761 -51.74949,81.14428 -34.23341,1.30185 -52.51773,-57.31179 -58.56314,-77.42099 8.65665,-3.82059 17.81178,-4.88705 37.92844,-16.89575 1.12545,-6.31372 0.99916,-11.58812 1.00866,-16.53968 -5.36539,-4.96347 -8.02567,-17.01269 -8.56367,-22.08598 -0.538,1.58307 -1.60142,3.51966 -3.33398,3.50157 z"
         style="display:inline;fill:#fff5f0;fill-opacity:1;fill-rule:evenodd;stroke:#000000;stroke-width:1;stroke-linecap:butt;stroke-linejoin:miter;stroke-miterlimit:4;stroke-dasharray:none;stroke-opacity:1"
         id="path4686" />
      <path
         sodipodi:nodetypes="ccc"
         inkscape:connector-curvature="0"
         id="path4688"
         d="m 198.26665,641.16035 c -3.22488,1.9911 -8.15613,2.95625 -13.91106,3.216 -7.29302,-0.82578 -12.70233,-2.25405 -18.62292,-5.83368"
         style="display:inline;fill:none;fill-rule:evenodd;stroke:#000000;stroke-width:1;stroke-linecap:butt;stroke-linejoin:miter;stroke-miterlimit:4;stroke-dasharray:none;stroke-opacity:1" />
      <path
         sodipodi:nodetypes="czczc"
         inkscape:connector-curvature="0"
         id="path4690"
         d="m 196.47168,622.53743 c -3.44392,4.06772 -7.20567,6.50169 -12.41528,6.43202 -5.20956,-0.0697 -10.4659,-3.19192 -13.0136,-7.3295 3.25726,-1.53007 8.68481,-2.30937 13.0136,-2.31852 4.32875,-0.009 10.62093,1.78047 12.41528,3.216 z"
         style="display:inline;fill:#d44848;fill-opacity:1;fill-rule:evenodd;stroke:#000000;stroke-width:1;stroke-linecap:butt;stroke-linejoin:miter;stroke-miterlimit:4;stroke-dasharray:none;stroke-opacity:1" />
      <path
         sodipodi:nodetypes="czcc"
         inkscape:connector-curvature="0"
         id="path4693"
         d="m 161.5444,586.41349 c -0.59444,2.19677 4.12335,0.54631 8.75049,0.44874 4.62717,-0.0976 7.72911,2.07119 8.07803,1.63497 1.76996,-1.4085 -8.60955,-4.3435 -16.82852,-2.08371 z"
         style="display:inline;fill:#532f08;fill-opacity:1;fill-rule:evenodd;stroke:#000000;stroke-width:1;stroke-linecap:butt;stroke-linejoin:miter;stroke-miterlimit:4;stroke-dasharray:none;stroke-opacity:1" />
      <path
         sodipodi:nodetypes="ccc"
         inkscape:connector-curvature="0"
         id="path4696"
         d="m 194.15317,622.7618 c -7.81001,-3.2187 -17.58472,-2.06086 -20.34309,-0.14958 5.44332,3.5794 15.81376,4.73405 20.34309,0.14958 z"
         style="display:inline;fill:#ffffff;fill-opacity:1;fill-rule:evenodd;stroke:#000000;stroke-width:1;stroke-linecap:butt;stroke-linejoin:miter;stroke-miterlimit:4;stroke-dasharray:none;stroke-opacity:1" />
      <path
         sodipodi:nodetypes="cc"
         inkscape:connector-curvature="0"
         id="path4698"
         d="m 177.10085,608.31656 c -2.63003,3.34601 0.76904,4.83975 3.4404,3.60059"
         style="display:inline;fill:none;fill-rule:evenodd;stroke:#000000;stroke-width:1;stroke-linecap:butt;stroke-linejoin:miter;stroke-miterlimit:4;stroke-dasharray:none;stroke-opacity:1" />
      <path
         sodipodi:nodetypes="ccc"
         inkscape:connector-curvature="0"
         id="path4700"
         d="m 192.26901,606.36292 c 3.51273,3.81727 2.10525,7.60222 -0.39431,6.86572 0.0794,-1.25981 -2.15038,-2.04169 -2.78167,-0.35205"
         style="display:inline;fill:none;fill-rule:evenodd;stroke:#000000;stroke-width:1;stroke-linecap:butt;stroke-linejoin:miter;stroke-miterlimit:4;stroke-dasharray:none;stroke-opacity:1" />
      <path
         sodipodi:nodetypes="czcc"
         inkscape:connector-curvature="0"
         id="path4702"
         d="m 206.19451,588.95637 c 1.31512,2.32619 -3.08516,0.34826 -5.8337,0.29917 -2.74854,-0.0491 -5.64399,0.76269 -7.85302,1.86977 -0.32315,-2.49874 9.85858,-4.63711 13.68672,-2.16894 z"
         style="display:inline;fill:#532f08;fill-opacity:1;fill-rule:evenodd;stroke:#000000;stroke-width:1;stroke-linecap:butt;stroke-linejoin:miter;stroke-miterlimit:4;stroke-dasharray:none;stroke-opacity:1" />
      <path
         sodipodi:nodetypes="ccc"
         inkscape:connector-curvature="0"
         id="path4704"
         d="m 192.88173,597.18336 c 4.19057,-2.85241 7.49694,-2.30368 12.04134,0.8227 -3.9398,1.9727 -8.72652,1.83556 -12.04134,-0.8227 z"
         style="display:inline;fill:none;fill-rule:evenodd;stroke:#000000;stroke-width:1;stroke-linecap:butt;stroke-linejoin:miter;stroke-miterlimit:4;stroke-dasharray:none;stroke-opacity:1" />
      <path
         sodipodi:nodetypes="ccc"
         inkscape:connector-curvature="0"
         id="path4706"
         d="m 176.20338,594.4161 c -5.31088,-3.89261 -10.85301,-0.59904 -12.53378,0.66155 2.34172,1.06441 8.18734,3.42605 12.53378,-0.66155 z"
         style="display:inline;fill:none;fill-rule:evenodd;stroke:#000000;stroke-width:1;stroke-linecap:butt;stroke-linejoin:miter;stroke-miterlimit:4;stroke-dasharray:none;stroke-opacity:1" />
      <circle
         r="1.8700646"
         cy="594.60309"
         cx="170.48184"
         id="circle4708"
         style="display:inline;opacity:1;fill:#532f08;fill-opacity:1;stroke:#000000;stroke-width:1;stroke-miterlimit:4;stroke-dasharray:none;stroke-opacity:1" />
      <circle
         style="display:inline;opacity:1;fill:#532f08;fill-opacity:1;stroke:#000000;stroke-width:1;stroke-miterlimit:4;stroke-dasharray:none;stroke-opacity:1"
         id="circle4710"
         cx="198.60318"
         cy="597.22076"
         r="1.8700646" />
      <path
         sodipodi:nodetypes="ccc"
         inkscape:connector-curvature="0"
         id="path4712"
         d="m 146.66475,594.53691 c -2.7641,0.16459 -3.0975,4.28784 -2.81271,6.44459 0.25304,2.17145 1.3869,6.56519 1.02133,8.22468"
         style="display:inline;fill:none;fill-rule:evenodd;stroke:#000000;stroke-width:1;stroke-linecap:butt;stroke-linejoin:miter;stroke-miterlimit:4;stroke-dasharray:none;stroke-opacity:1" />
      <path
         sodipodi:nodetypes="cc"
         inkscape:connector-curvature="0"
         id="path4714"
         d="m 148.89193,605.49888 c -3.15456,0.10362 -2.27115,4.87457 -0.34026,5.26075"
         style="display:inline;fill:none;fill-rule:evenodd;stroke:#000000;stroke-width:1;stroke-linecap:butt;stroke-linejoin:miter;stroke-miterlimit:4;stroke-dasharray:none;stroke-opacity:1" />
      <path
         sodipodi:nodetypes="cccczzzzczccc"
         inkscape:connector-curvature="0"
         id="path4716"
         d="m 190.07944,572.73503 c -5.90532,4.62403 -16.31173,12.91618 -22.88603,11.96653 -4.19986,4.40919 -9.55496,10.49163 -16.60355,11.66736 -0.62702,-2.23539 -2.22066,-4.26996 -5.38492,-3.29079 -3.03722,-3.15574 -3.16184,-9.48359 -2.84203,-15.78086 0.31976,-6.29727 3.74673,-14.36465 9.4236,-20.04393 5.67688,-5.67927 15.21013,-8.081 23.33476,-8.45136 8.12464,-0.37035 15.68166,0.16118 21.31536,3.81433 5.6337,3.65315 10.34161,6.56094 12.11613,13.31276 4.24257,5.77955 2.9572,15.41421 3.29077,21.15029 0.33357,5.73607 0.14762,11.66498 -0.97231,15.04845 -2.60288,-11.36201 -4.74736,-25.30645 -4.63215,-33.40341 -5.60973,5.65834 -11.65054,4.24415 -16.15963,4.01063 z"
         style="display:inline;fill:#532f08;fill-opacity:1;fill-rule:evenodd;stroke:#000000;stroke-width:1;stroke-linecap:butt;stroke-linejoin:miter;stroke-miterlimit:4;stroke-dasharray:none;stroke-opacity:1" />
      <g
         id="g4765"
         style="display:inline"
         transform="translate(-4.9872207,525.04519)">
        <path
           style="fill:#c6d494;fill-opacity:1;fill-rule:evenodd;stroke:#000000;stroke-width:1;stroke-linecap:butt;stroke-linejoin:miter;stroke-miterlimit:4;stroke-dasharray:none;stroke-opacity:1"
           d="m 109.95501,380.49564 c 4.78489,-15.64933 6.68168,-31.43834 7.70088,-47.24478 1.0192,-15.80644 5.57367,-49.85008 8.90305,-65.25193 -7.83378,-3.75937 -8.94445,-7.33029 -14.33176,-16.91416 -5.38731,-9.58388 -4.00109,-11.56111 -6.04095,-23.13602 -2.03987,-11.57491 -2.79245,-20.92002 -5.27983,-32.67093 -2.487381,-11.75091 -4.733446,-32.98235 0.27725,-38.96823 8.29665,-12.02877 42.07413,-15.41414 58.83317,-26.25108 1.43861,21.3408 2.865,42.16196 12.8505,72.55176 3.19769,2.02372 13.19549,1.9561 16.33566,0.61192 9.56634,-20.84408 15.16477,-48.77429 17.84902,-72.66139 14.50947,6.9221 44.04384,11.00942 53.15864,18.58881 9.25687,7.59505 11.15835,18.78112 14.77398,29.35008 3.74628,12.75987 5.54209,25.31335 5.53765,39.23064 -0.19008,11.70351 0.66677,22.43657 0.91023,34.39727 0.24346,11.9607 -0.17122,23.72615 -0.71838,38.61622 1.67399,17.21702 -1.74557,42.476 -3.32499,52.52073 -1.57941,10.04473 -3.40861,17.79087 -4.75527,28.69854 -6.8101,1.14043 -18.21095,0.26132 -22.57642,-1.44185 -0.1749,2.28741 -0.8328,7.31759 -0.49873,11.38435 -43.21748,2.35055 -91.36966,4.94502 -139.60382,-1.40995 z"
           id="path4673"
           inkscape:connector-curvature="0"
           sodipodi:nodetypes="czczzzcccccccczczccccc" />
        <path
           style="fill:#ffffff;fill-opacity:1;fill-rule:evenodd;stroke:#000000;stroke-width:1;stroke-linecap:butt;stroke-linejoin:miter;stroke-miterlimit:4;stroke-dasharray:none;stroke-opacity:1"
           d="m 249.71015,268.59113 c 1.28462,16.12145 4.25449,28.90963 2.84354,42.47423 -4.50516,-11.24852 -6.92774,-22.24561 -8.72129,-38.89322 -1.7936,-16.64761 -2.94222,-44.58831 -1.92533,-56.92734 3.66115,11.88234 6.51841,37.22487 7.80308,53.34633 z"
           id="path4678"
           inkscape:connector-curvature="0"
           sodipodi:nodetypes="zczcz" />
        <path
           style="fill:none;fill-rule:evenodd;stroke:#000000;stroke-width:1;stroke-linecap:butt;stroke-linejoin:miter;stroke-miterlimit:4;stroke-dasharray:none;stroke-opacity:1"
           d="m 252.48574,310.39319 c -0.85388,20.86372 -2.17552,38.47568 -2.53833,59.54859"
           id="path4680"
           inkscape:connector-curvature="0"
           sodipodi:nodetypes="cc" />
      </g>
      <g
         inkscape:transform-center-y="8.4994511"
         inkscape:transform-center-x="-7.0041716"
         style="display:inline;fill:#fff5f0;fill-opacity:1;stroke:#9b9b9b;stroke-width:3.3598783;stroke-miterlimit:4;stroke-dasharray:none;stroke-opacity:1"
         transform="matrix(0.26709445,-0.13131668,0.13131668,0.26709445,-327.67268,800.97151)"
         id="g4627">
        <path
           sodipodi:nodetypes="ccccccccczccc"
           inkscape:connector-curvature="0"
           id="path4629"
           d="m 1624.0638,284.10657 c -0.079,-11.36769 -1.74,-19.10946 -3.0794,-33.05914 -10.383,-18.28763 -3.7588,-38.88751 4.5433,-63.17328 13.7002,-4.11255 23.1756,-5.47486 37.1346,-13.68141 4.3706,0.64863 4.6735,3.69644 3.3275,9.09551 19.1234,-7.91649 22.7834,4.15418 20.7627,12.306 15.3185,-4.88443 21.8546,5.43368 19.7451,14.50463 13.9971,-3.50896 17.3665,16.54197 11.5558,23.68254 8.7733,0.67323 14.1417,23.97422 4.917,38.96497 -8.1772,25.32842 -36.0037,40.77362 -44.2454,48.89275 -8.2417,8.11912 -20.1641,25.03909 -29.358,39.82666 -10.9383,-4.35765 -50.2356,-25.23345 -56.0991,-40.0193 9.4244,-9.62223 18.8432,-26.39217 30.7959,-37.33993 z"
           style="fill:#fff5f0;fill-opacity:1;fill-rule:evenodd;stroke:#9b9b9b;stroke-width:3.3598783;stroke-linecap:butt;stroke-linejoin:miter;stroke-miterlimit:4;stroke-dasharray:none;stroke-opacity:1" />
        <path
           sodipodi:nodetypes="cc"
           inkscape:connector-curvature="0"
           id="path4632"
           d="m 1653.1877,179.3818 c 0,0 8.4987,-0.0299 9.516,-4.72999"
           style="fill:#fff5f0;fill-opacity:1;fill-rule:evenodd;stroke:#9b9b9b;stroke-width:3.3598783;stroke-linecap:butt;stroke-linejoin:miter;stroke-miterlimit:4;stroke-dasharray:none;stroke-opacity:1" />
        <path
           sodipodi:nodetypes="cc"
           inkscape:connector-curvature="0"
           id="path4634"
           d="m 1665.9907,183.32256 c -11.0802,10.29748 -20.7026,20.63133 -30.9734,28.31856"
           style="fill:#fff5f0;fill-opacity:1;fill-rule:evenodd;stroke:#9b9b9b;stroke-width:3.3598783;stroke-linecap:butt;stroke-linejoin:miter;stroke-miterlimit:4;stroke-dasharray:none;stroke-opacity:1" />
        <path
           sodipodi:nodetypes="cc"
           inkscape:connector-curvature="0"
           id="path4636"
           d="m 1686.5975,195.33267 c -3.6761,5.05669 -8.4587,10.73705 -13.0214,14.79139"
           style="fill:#fff5f0;fill-opacity:1;fill-rule:evenodd;stroke:#9b9b9b;stroke-width:3.3598783;stroke-linecap:butt;stroke-linejoin:miter;stroke-miterlimit:4;stroke-dasharray:none;stroke-opacity:1" />
        <path
           sodipodi:nodetypes="cc"
           inkscape:connector-curvature="0"
           id="path4638"
           d="m 1706.4458,210.25048 c -3.5461,4.84577 -7.5,9.19504 -11.6309,13.52717"
           style="fill:#fff5f0;fill-opacity:1;fill-rule:evenodd;stroke:#9b9b9b;stroke-width:3.3598783;stroke-linecap:butt;stroke-linejoin:miter;stroke-miterlimit:4;stroke-dasharray:none;stroke-opacity:1" />
        <path
           sodipodi:nodetypes="cc"
           inkscape:connector-curvature="0"
           id="path4640"
           d="m 1717.9502,233.76499 c -2.7612,2.72202 -7.4871,8.92001 -9.2288,11.50442"
           style="fill:#fff5f0;fill-opacity:1;fill-rule:evenodd;stroke:#9b9b9b;stroke-width:3.3598783;stroke-linecap:butt;stroke-linejoin:miter;stroke-miterlimit:4;stroke-dasharray:none;stroke-opacity:1" />
        <path
           sodipodi:nodetypes="cc"
           inkscape:connector-curvature="0"
           id="path4643"
           d="m 1644.4989,221.50205 c 3.1287,6.47404 12.3289,7.88467 17.6991,3.53982"
           style="fill:#fff5f0;fill-opacity:1;fill-rule:evenodd;stroke:#9b9b9b;stroke-width:3.3598783;stroke-linecap:butt;stroke-linejoin:miter;stroke-miterlimit:4;stroke-dasharray:none;stroke-opacity:1" />
        <path
           sodipodi:nodetypes="cc"
           inkscape:connector-curvature="0"
           id="path4645"
           d="m 1666.2435,234.64995 c 2.2766,8.07852 13.0178,9.25268 19.2162,5.05688"
           style="fill:#fff5f0;fill-opacity:1;fill-rule:evenodd;stroke:#9b9b9b;stroke-width:3.3598783;stroke-linecap:butt;stroke-linejoin:miter;stroke-miterlimit:4;stroke-dasharray:none;stroke-opacity:1" />
        <path
           sodipodi:nodetypes="cc"
           inkscape:connector-curvature="0"
           id="path4647"
           d="m 1687.9881,248.30354 c 2.9053,6.86567 10.6375,7.60597 16.1821,5.05688"
           style="fill:#fff5f0;fill-opacity:1;fill-rule:evenodd;stroke:#9b9b9b;stroke-width:3.3598783;stroke-linecap:butt;stroke-linejoin:miter;stroke-miterlimit:4;stroke-dasharray:none;stroke-opacity:1" />
        <path
           sodipodi:nodetypes="cc"
           inkscape:connector-curvature="0"
           id="path4649"
           d="m 1706.6986,260.44006 c 1.4079,2.42682 3.0983,5.31745 6.574,5.56258"
           style="fill:#fff5f0;fill-opacity:1;fill-rule:evenodd;stroke:#9b9b9b;stroke-width:3.3598783;stroke-linecap:butt;stroke-linejoin:miter;stroke-miterlimit:4;stroke-dasharray:none;stroke-opacity:1" />
      </g>
      <path
         sodipodi:nodetypes="ccccczczczzcc"
         inkscape:connector-curvature="0"
         id="path4675"
         d="m 129.20488,796.73163 c -6.11305,-2.72194 -12.56351,-5.49733 -16.59583,-11.08148 -3.72828,-5.19008 -4.32819,-8.87786 -4.87216,-15.51872 -0.2029,-8.5054 0.26805,-17.97383 2.99362,-25.81839 3.93238,-7.69532 8.04827,-17.33238 13.79633,-23.83017 2.97678,-6.46519 4.95891,-12.79218 8.82622,-28.59476 3.8673,-15.80257 4.81255,-22.81467 8.10316,-25.77621 1.3399,2.85508 2.47147,6.00325 9.47997,7.18513 7.00845,1.18188 9.76924,0.51732 11.71767,-2.61528 2.20318,-1.53805 -1.3755,37.01381 -3.08892,53.79926 -1.71342,16.78546 -3.37253,31.31903 -8.28405,42.73278 -4.91148,11.41376 -7.34688,16.69917 -10.28166,22.71474 -2.34103,4.23434 -6.52912,8.34382 -11.79435,6.8031 z"
         style="display:inline;fill:#c6d494;fill-opacity:1;fill-rule:evenodd;stroke:#9b9b9b;stroke-width:1;stroke-linecap:butt;stroke-linejoin:miter;stroke-miterlimit:4;stroke-dasharray:none;stroke-opacity:1" />
      <g
         id="g4786"
         transform="matrix(0.29715056,0.01688375,-0.01688375,0.29715056,-278.02969,576.10865)"
         style="display:inline;fill:#fff5f0;fill-opacity:1;stroke-width:3.3598783;stroke-miterlimit:4;stroke-dasharray:none"
         inkscape:transform-center-x="-2.8065887"
         inkscape:transform-center-y="11.026308">
        <path
           style="fill:#fff5f0;fill-opacity:1;fill-rule:evenodd;stroke:#000000;stroke-width:3.3598783;stroke-linecap:butt;stroke-linejoin:miter;stroke-miterlimit:4;stroke-dasharray:none;stroke-opacity:1"
           d="m 1624.0638,284.10657 c -0.079,-11.36769 -1.74,-19.10946 -3.0794,-33.05914 -10.383,-18.28763 -3.7588,-38.88751 4.5433,-63.17328 13.7002,-4.11255 23.1756,-5.47486 37.1346,-13.68141 4.3706,0.64863 4.6735,3.69644 3.3275,9.09551 19.1234,-7.91649 22.7834,4.15418 20.7627,12.306 15.3185,-4.88443 21.8546,5.43368 19.7451,14.50463 13.9971,-3.50896 17.3665,16.54197 11.5558,23.68254 8.7733,0.67323 14.1417,23.97422 4.917,38.96497 -8.1772,25.32842 -36.0037,40.77362 -44.2454,48.89275 -8.2417,8.11912 -20.1641,25.03909 -29.358,39.82666 -10.9383,-4.35765 -50.2356,-25.23345 -56.0991,-40.0193 9.4244,-9.62223 18.8432,-26.39217 30.7959,-37.33993 z"
           id="path4788"
           inkscape:connector-curvature="0"
           sodipodi:nodetypes="ccccccccczccc" />
        <path
           style="fill:#fff5f0;fill-opacity:1;fill-rule:evenodd;stroke:#000000;stroke-width:3.3598783;stroke-linecap:butt;stroke-linejoin:miter;stroke-miterlimit:4;stroke-dasharray:none;stroke-opacity:1"
           d="m 1653.1877,179.3818 c 0,0 8.4987,-0.0299 9.516,-4.72999"
           id="path4790"
           inkscape:connector-curvature="0"
           sodipodi:nodetypes="cc" />
        <path
           style="fill:#fff5f0;fill-opacity:1;fill-rule:evenodd;stroke:#000000;stroke-width:3.3598783;stroke-linecap:butt;stroke-linejoin:miter;stroke-miterlimit:4;stroke-dasharray:none;stroke-opacity:1"
           d="m 1665.9907,183.32256 c -11.0802,10.29748 -20.7026,20.63133 -30.9734,28.31856"
           id="path4792"
           inkscape:connector-curvature="0"
           sodipodi:nodetypes="cc" />
        <path
           style="fill:#fff5f0;fill-opacity:1;fill-rule:evenodd;stroke:#000000;stroke-width:3.3598783;stroke-linecap:butt;stroke-linejoin:miter;stroke-miterlimit:4;stroke-dasharray:none;stroke-opacity:1"
           d="m 1686.5975,195.33267 c -3.6761,5.05669 -8.4587,10.73705 -13.0214,14.79139"
           id="path4794"
           inkscape:connector-curvature="0"
           sodipodi:nodetypes="cc" />
        <path
           style="fill:#fff5f0;fill-opacity:1;fill-rule:evenodd;stroke:#000000;stroke-width:3.3598783;stroke-linecap:butt;stroke-linejoin:miter;stroke-miterlimit:4;stroke-dasharray:none;stroke-opacity:1"
           d="m 1706.4458,210.25048 c -3.5461,4.84577 -7.5,9.19504 -11.6309,13.52717"
           id="path4796"
           inkscape:connector-curvature="0"
           sodipodi:nodetypes="cc" />
        <path
           style="fill:#fff5f0;fill-opacity:1;fill-rule:evenodd;stroke:#000000;stroke-width:3.3598783;stroke-linecap:butt;stroke-linejoin:miter;stroke-miterlimit:4;stroke-dasharray:none;stroke-opacity:1"
           d="m 1717.9502,233.76499 c -2.7612,2.72202 -7.4871,8.92001 -9.2288,11.50442"
           id="path4798"
           inkscape:connector-curvature="0"
           sodipodi:nodetypes="cc" />
        <path
           style="fill:#fff5f0;fill-opacity:1;fill-rule:evenodd;stroke:#000000;stroke-width:3.3598783;stroke-linecap:butt;stroke-linejoin:miter;stroke-miterlimit:4;stroke-dasharray:none;stroke-opacity:1"
           d="m 1644.4989,221.50205 c 3.1287,6.47404 12.3289,7.88467 17.6991,3.53982"
           id="path4800"
           inkscape:connector-curvature="0"
           sodipodi:nodetypes="cc" />
        <path
           style="fill:#fff5f0;fill-opacity:1;fill-rule:evenodd;stroke:#000000;stroke-width:3.3598783;stroke-linecap:butt;stroke-linejoin:miter;stroke-miterlimit:4;stroke-dasharray:none;stroke-opacity:1"
           d="m 1666.2435,234.64995 c 2.2766,8.07852 13.0178,9.25268 19.2162,5.05688"
           id="path4802"
           inkscape:connector-curvature="0"
           sodipodi:nodetypes="cc" />
        <path
           style="fill:#fff5f0;fill-opacity:1;fill-rule:evenodd;stroke:#000000;stroke-width:3.3598783;stroke-linecap:butt;stroke-linejoin:miter;stroke-miterlimit:4;stroke-dasharray:none;stroke-opacity:1"
           d="m 1687.9881,248.30354 c 2.9053,6.86567 10.6375,7.60597 16.1821,5.05688"
           id="path4804"
           inkscape:connector-curvature="0"
           sodipodi:nodetypes="cc" />
        <path
           style="fill:#fff5f0;fill-opacity:1;fill-rule:evenodd;stroke:#000000;stroke-width:3.3598783;stroke-linecap:butt;stroke-linejoin:miter;stroke-miterlimit:4;stroke-dasharray:none;stroke-opacity:1"
           d="m 1706.6986,260.44006 c 1.4079,2.42682 3.0983,5.31745 6.574,5.56258"
           id="path4806"
           inkscape:connector-curvature="0"
           sodipodi:nodetypes="cc" />
      </g>
      <path
         style="display:inline;fill:#c6d494;fill-opacity:1;fill-rule:evenodd;stroke:#000000;stroke-width:1;stroke-linecap:butt;stroke-linejoin:miter;stroke-miterlimit:4;stroke-dasharray:none;stroke-opacity:1"
         d="m 121.07884,792.68529 c -3.98647,-5.3746 -7.35665,-6.71893 -8.12445,-13.56384 -0.69665,-6.3523 0.59307,-9.8589 3.38266,-15.90994 4.00289,-7.50732 9.06589,-15.52225 15.29453,-21.01495 7.20634,-4.76971 15.5267,-11.14036 23.72591,-13.97486 5.7696,-4.16793 10.60502,-8.70427 21.73864,-20.56682 11.13361,-11.86254 15.40264,-17.50509 19.72386,-18.46737 -0.23604,3.14501 -0.79755,6.44291 4.72559,10.91626 5.52309,4.47332 8.25412,5.2512 11.49045,3.48039 2.67461,-0.25688 -19.38675,31.56056 -29.12747,45.33754 -9.74073,13.777 -18.32756,25.61945 -28.21393,33.14649 -9.88635,7.52707 -14.42791,10.22642 -19.93998,14.02341 -4.11965,2.53742 -10.84727,0.52291 -14.67581,-3.40631 z"
         id="path4808"
         inkscape:connector-curvature="0"
         sodipodi:nodetypes="ccccczczczzcc" />
      <g
         transform="matrix(0.83517347,-0.32669982,0.32669982,0.83517347,-49.95267,557.42435)"
         style="display:inline;opacity:1"
         id="g4810">
        <path
           sodipodi:nodetypes="czcczcc"
           inkscape:connector-curvature="0"
           id="path4812"
           d="m 157.15688,201.30762 c 0,0 12.413,9.55162 17.45856,15.33947 5.04556,5.78786 12.81482,19.38766 12.81482,19.38766 l -3.33139,2.90414 c 0,0 -7.76925,-13.59981 -12.81481,-19.38766 -5.04556,-5.78786 -17.45856,-15.33948 -17.45856,-15.33948 z"
           style="opacity:1;fill:#00ffef;fill-opacity:1;stroke:none;stroke-width:0.2;stroke-miterlimit:4;stroke-dasharray:none;stroke-opacity:1" />
        <path
           inkscape:transform-center-y="-3.6483547"
           transform="matrix(0.37133891,0.75865767,-0.33248523,0.162741,301.5872,-180.98238)"
           inkscape:transform-center-x="-5.9175721"
           d="m 383.02504,794.34935 0,-16.72624 0,-16.72625 14.48536,8.36313 14.48535,8.36312 -14.48535,8.36312 z"
           inkscape:randomized="0"
           inkscape:rounded="0"
           inkscape:flatsided="false"
           sodipodi:arg2="3.1415927"
           sodipodi:arg1="2.0943951"
           sodipodi:r2="9.6569014"
           sodipodi:r1="19.313803"
           sodipodi:cy="777.62311"
           sodipodi:cx="392.68195"
           sodipodi:sides="3"
           id="path4814"
           style="opacity:1;fill:#00ffef;fill-opacity:1;stroke:none;stroke-width:0.2;stroke-miterlimit:4;stroke-dasharray:none;stroke-opacity:1"
           sodipodi:type="star" />
      </g>
    </g>
    <g
       transform="translate(-131.70479,-42.042001)"
       id="g4342">
      <path
         style="fill:none;fill-rule:evenodd;stroke:#000000;stroke-width:1px;stroke-linecap:butt;stroke-linejoin:miter;stroke-opacity:1"
         d="m 449.64286,1029.6836 -0.17857,-7.0531 c -1.98872,-2.2503 -3.61587,-4.7613 -5.0442,-7.3929 -0.93942,-2.3781 -1.21949,-5.1389 -1.30733,-7.4604 -0.0878,-2.3215 -0.37942,-5.1063 0.0676,-7.1959 -0.56012,-2.45569 -0.58926,-6.61938 -0.79846,-8.84027 1.52842,-2.31293 4.18834,-2.60016 7.08818,-2.37515 2.96931,-3.24582 3.89531,-4.62779 8.51739,-3.11298 5.22902,-3.91244 9.34389,-0.4171 11.08325,0.43674 2.40877,-1.64342 7.19777,0.0799 8.10329,2.37447 1.51849,-0.93315 2.34837,-2.86857 4.38782,-3.07007 3.49653,-0.0944 2.56509,1.03663 1.36537,5.53167 -0.53968,3.74939 -1.78844,8.14275 -2.37415,11.58919 -0.58571,3.4465 -1.09838,6.4008 -2.79196,10.7547 -1.69358,4.3539 -5.3987,7.7242 -8.18327,9.5707 l 0.065,6.1545"
         id="path4344"
         inkscape:connector-curvature="0"
         sodipodi:nodetypes="ccczcccccccczzcc" />
      <path
         style="fill:none;fill-rule:evenodd;stroke:#000000;stroke-width:1px;stroke-linecap:butt;stroke-linejoin:miter;stroke-opacity:1"
         d="m 473.75,1011.4693 c -0.40675,-2.1788 -0.50283,-4.4067 -0.71428,-6.6071"
         id="path4346"
         inkscape:connector-curvature="0" />
      <path
         style="fill:none;fill-rule:evenodd;stroke:#000000;stroke-width:1px;stroke-linecap:butt;stroke-linejoin:miter;stroke-opacity:1"
         d="m 477.37373,988.75826 c -0.79018,3.01849 -1.12754,7.45932 -2.45771,12.57784 -1.33018,5.1186 -6.27358,5.7877 -7.24617,2.048 0.56057,-4.15602 1.32279,-14.20538 1.38004,-16.67576"
         id="path4348"
         inkscape:connector-curvature="0"
         sodipodi:nodetypes="czcc" />
      <path
         style="fill:none;fill-rule:evenodd;stroke:#000000;stroke-width:1px;stroke-linecap:butt;stroke-linejoin:miter;stroke-opacity:1"
         d="m 458.01405,986.21493 c 1.0305,3.53883 1.3118,8.10032 1.32245,11.04191 0.0106,2.94156 0.48184,5.30996 -0.75284,7.93336 -0.64752,2.9041 -4.63694,1.8963 -5.99547,0.082 -1.54509,-5.1303 -0.78338,-10.50637 -2.85156,-15.9675"
         id="path4350"
         inkscape:connector-curvature="0"
         sodipodi:nodetypes="czccc" />
      <path
         style="fill:none;fill-rule:evenodd;stroke:#000000;stroke-width:1px;stroke-linecap:butt;stroke-linejoin:miter;stroke-opacity:1"
         d="m 443.12948,1000.3979 c 0.11354,2.6222 0.79593,5.7683 2.83684,7.6343 2.54941,1.7477 5.49107,-0.541 6.58709,-2.4698"
         id="path4352"
         inkscape:connector-curvature="0"
         sodipodi:nodetypes="ccc" />
      <path
         style="fill:none;fill-rule:evenodd;stroke:#000000;stroke-width:1px;stroke-linecap:butt;stroke-linejoin:miter;stroke-opacity:1"
         d="m 458.39286,1015.5765 c -0.12414,-3.8718 2.04329,-6.6065 4.8304,-9.0224"
         id="path4354"
         inkscape:connector-curvature="0"
         sodipodi:nodetypes="cc" />
      <path
         style="fill:none;fill-rule:evenodd;stroke:#000000;stroke-width:1px;stroke-linecap:butt;stroke-linejoin:miter;stroke-opacity:1"
         d="m 459.21422,1003.4678 c 1.03137,4.3259 7.66858,3.551 8.49501,-0.2867"
         id="path4356"
         inkscape:connector-curvature="0"
         sodipodi:nodetypes="cc" />
      <path
         style="fill:none;fill-rule:evenodd;stroke:#000000;stroke-width:1px;stroke-linecap:butt;stroke-linejoin:miter;stroke-opacity:1"
         d="m 445.47072,1007.3297 c 0.0631,-3.2387 5.67012,-5.1918 6.41376,-0.9318"
         id="path4358"
         inkscape:connector-curvature="0"
         sodipodi:nodetypes="cc" />
      <path
         style="fill:none;fill-rule:evenodd;stroke:#000000;stroke-width:1px;stroke-linecap:butt;stroke-linejoin:miter;stroke-opacity:1"
         d="m 452.78318,1005.4718 c -0.72707,-3.5845 6.75951,-4.2192 5.92535,-0.3046"
         id="path4360"
         inkscape:connector-curvature="0"
         sodipodi:nodetypes="cc" />
      <path
         style="fill:none;fill-rule:evenodd;stroke:#000000;stroke-width:1px;stroke-linecap:butt;stroke-linejoin:miter;stroke-opacity:1"
         d="m 459.9152,1004.7359 c 1.5518,-4.0455 6.35769,-3.5907 6.51337,0.3049"
         id="path4362"
         inkscape:connector-curvature="0"
         sodipodi:nodetypes="cc" />
      <path
         style="fill:none;fill-rule:evenodd;stroke:#000000;stroke-width:1px;stroke-linecap:butt;stroke-linejoin:miter;stroke-opacity:1"
         d="m 467.77049,1003.5689 c 1.69296,-4.00439 5.72684,-2.2963 5.4438,0.4004"
         id="path4364"
         inkscape:connector-curvature="0"
         sodipodi:nodetypes="cc" />
    </g>
  </g>
</svg>
