<?xml version="1.0" encoding="UTF-8" standalone="no"?>
<!-- Created with Inkscape (http://www.inkscape.org/) -->

<svg
   xmlns:dc="http://purl.org/dc/elements/1.1/"
   xmlns:cc="http://creativecommons.org/ns#"
   xmlns:rdf="http://www.w3.org/1999/02/22-rdf-syntax-ns#"
   xmlns:svg="http://www.w3.org/2000/svg"
   xmlns="http://www.w3.org/2000/svg"
   xmlns:sodipodi="http://sodipodi.sourceforge.net/DTD/sodipodi-0.dtd"
   xmlns:inkscape="http://www.inkscape.org/namespaces/inkscape"
   width="105mm"
   height="148mm"
   viewBox="0 0 372.04724 524.40944"
   id="svg5346"
   version="1.1"
   inkscape:version="0.91 r13725"
   sodipodi:docname="Content.svg">
  <defs
     id="defs5348" />
  <sodipodi:namedview
     id="base"
     pagecolor="#ffffff"
     bordercolor="#666666"
     borderopacity="1.0"
     inkscape:pageopacity="0.0"
     inkscape:pageshadow="2"
     inkscape:zoom="0.7"
     inkscape:cx="-86.783093"
     inkscape:cy="265.39791"
     inkscape:document-units="px"
     inkscape:current-layer="layer1"
     showgrid="false"
     inkscape:window-width="1680"
     inkscape:window-height="1022"
     inkscape:window-x="0"
     inkscape:window-y="28"
     inkscape:window-maximized="1" />
  <metadata
     id="metadata5351">
    <rdf:RDF>
      <cc:Work
         rdf:about="">
        <dc:format>image/svg+xml</dc:format>
        <dc:type
           rdf:resource="http://purl.org/dc/dcmitype/StillImage" />
        <dc:title />
      </cc:Work>
    </rdf:RDF>
  </metadata>
  <g
     inkscape:label="Calque 1"
     inkscape:groupmode="layer"
     id="layer1"
     transform="translate(0,-527.95276)">
    <g
       id="g5970"
       transform="translate(6.5282486,0)">
      <g
         id="g4224"
         style="opacity:1;fill:#fff5f0;fill-opacity:1"
         transform="translate(-34.688201,-60.903508)">
        <path
           inkscape:connector-curvature="0"
           id="path4226"
           d="m 188.30357,684.68361 c -1.71345,-2.25548 -2.55666,-8.42075 -5.57907,-4.1223 -1.91226,4.29531 -0.28489,9.10825 0.0335,13.57747 0.58201,4.59463 1.93243,9.34046 5.25223,12.71144 0.62709,3.3548 3.66882,5.07618 3.73717,0.50707 -0.27249,-6.58222 -0.20215,-13.28839 -2.00167,-19.69822 -0.19793,-1.08202 -0.43697,-2.33598 -1.44213,-2.97546 z"
           style="fill:#fff5f0;fill-opacity:1;fill-rule:evenodd;stroke:#000000;stroke-width:1px;stroke-linecap:butt;stroke-linejoin:miter;stroke-opacity:1"
           sodipodi:nodetypes="cccccccc" />
        <path
           inkscape:connector-curvature="0"
           id="path4228"
           d="m 188.48214,691.38004 c -1.67003,0.81392 -2.8382,2.86521 -2.22286,4.69981 0.44714,1.9355 1.13083,3.99801 2.73016,5.27908 0.2238,0.2871 0.90168,0.2484 1.011,0.46785"
           style="fill:#fff5f0;fill-opacity:1;fill-rule:evenodd;stroke:#000000;stroke-width:1px;stroke-linecap:butt;stroke-linejoin:miter;stroke-opacity:1" />
      </g>
      <g
         id="g4230"
         style="opacity:1;fill:#fff5f0;fill-opacity:1"
         transform="translate(-34.688201,-60.903508)">
        <path
           sodipodi:nodetypes="cccccccc"
           inkscape:connector-curvature="0"
           id="path4232"
           d="m 256.07143,690.48718 c 0.80333,-2.98751 1.77912,-6.61029 4.73211,-8.13894 3.43227,-1.58899 3.15969,1.39396 3.73629,3.93231 1.2597,3.82115 -0.45906,9.69576 -1.64122,13.70071 -1.81478,3.32744 -2.23187,7.10217 -4.67442,8.50201 -1.02087,4.02932 -5.1765,3.52095 -4.26848,-0.49051 0.021,-2.89189 1.10284,-5.64983 0.99762,-8.56091 0.17755,-2.99502 1.39324,-5.93507 1.1181,-8.94467 z"
           style="fill:#fff5f0;fill-opacity:1;fill-rule:evenodd;stroke:#000000;stroke-width:1px;stroke-linecap:butt;stroke-linejoin:miter;stroke-opacity:1" />
        <path
           style="fill:#fff5f0;fill-opacity:1;fill-rule:evenodd;stroke:#000000;stroke-width:1px;stroke-linecap:butt;stroke-linejoin:miter;stroke-opacity:1"
           d="m 256.10135,703.12112 c 1.85325,0.13014 3.89056,-1.06224 4.27496,-2.95872 0.58052,-1.89977 1.01968,-4.0278 0.27515,-5.9369 -0.0503,-0.36054 -0.65667,-0.66596 -0.64162,-0.91067"
           id="path4234"
           inkscape:connector-curvature="0" />
      </g>
      <path
         style="opacity:1;fill:#fff5f0;fill-opacity:1;fill-rule:evenodd;stroke:#000000;stroke-width:1px;stroke-linecap:butt;stroke-linejoin:miter;stroke-opacity:1"
         d="m 137.55876,694.05802 c 5.82547,-6.27229 15.95758,-6.91259 20.5226,-14.75445 5.24093,-8.69399 -0.16526,-19.51088 3.6955,-28.6824 12.88367,-2.6973 25.78808,1.53897 38.68654,2.0245 5.53549,0.44725 16.51676,1.66432 13.0758,9.80687 0.21814,7.62378 -3.64928,16.27253 0.38457,23.12413 5.45284,5.01727 14.89087,11.15585 9.42249,19.67847 -2.92738,8.33166 -12.06712,9.81805 -17.26968,16.11362 -5.53828,6.29532 -14.36658,7.20173 -22.09606,5.24946 -13.49881,-2.96587 -22.73312,-13.87377 -32.86466,-22.30617 -4.59645,-2.89219 -10.79707,-7.65975 -12.79948,-11.26418"
         id="path4844"
         inkscape:connector-curvature="0" />
      <path
         style="opacity:1;fill:#fff5f0;fill-opacity:1;fill-rule:evenodd;stroke:#000000;stroke-width:1px;stroke-linecap:butt;stroke-linejoin:miter;stroke-opacity:1"
         d="m 156.83029,636.15754 c -3.88448,-14.49103 -7.65424,-30.3609 -2.0613,-44.93575 2.15983,-9.38483 9.57188,-17.12222 18.8158,-19.80462 6.86256,-2.29376 14.15195,-4.51126 21.412,-2.66549 17.74935,3.67334 31.90103,21.92158 28.8614,40.20612 -1.52947,16.96047 -3.40664,28.31032 -5.20239,45.24272 -1.0929,12.30449 -14.12791,20.81142 -21.47763,27.99472 -11.42559,4.43501 -25.22277,-2.86828 -29.19185,-14.18711 -4.556,-9.52333 -12.71499,-18.59938 -11.17589,-29.88658 l 0.0704,-0.9787 -0.0505,-0.98531 z"
         id="path4846"
         inkscape:connector-curvature="0"
         sodipodi:nodetypes="cccccccccccc" />
      <path
         style="opacity:1;fill:#ffffff;fill-opacity:1;fill-rule:evenodd;stroke:#000000;stroke-width:1px;stroke-linecap:butt;stroke-linejoin:miter;stroke-opacity:1"
         d="m 167.09815,624.5504 c 1.91747,-2.3574 4.86004,-3.84425 7.88101,-4.07239 1.74184,-0.11312 3.58839,0.45308 4.7373,1.81814 0.8208,0.57648 0.56019,1.6092 -0.0116,2.25876 -1.30907,1.75146 -3.63083,2.23107 -5.69856,2.27492 -2.25994,0.0164 -4.56292,-0.57219 -6.40042,-1.9238 -0.17077,-0.11634 -0.33978,-0.23525 -0.50772,-0.35563 z"
         id="path4850"
         inkscape:connector-curvature="0" />
      <path
         style="opacity:1;fill:#3a2920;fill-opacity:1;fill-rule:evenodd;stroke:#000000;stroke-width:1px;stroke-linecap:butt;stroke-linejoin:miter;stroke-opacity:1"
         d="m 173.70529,621.33612 c -1.68691,0.4355 -2.87741,2.81853 -1.61912,4.22943 1.61545,1.2336 4.14383,0.13643 4.85278,-1.62414 0.5204,-1.68963 -1.29461,-2.86598 -2.80812,-2.59564 l -0.213,-0.003 -0.21254,-0.006 0,0 z"
         id="path4852"
         inkscape:connector-curvature="0" />
      <path
         style="opacity:1;fill:#ffffff;fill-opacity:1;fill-rule:evenodd;stroke:#000000;stroke-width:1px;stroke-linecap:butt;stroke-linejoin:miter;stroke-opacity:1"
         d="m 200.40172,624.72897 c 1.06388,-1.98517 3.54274,-2.5047 5.5764,-2.88051 2.72876,-0.48715 5.83971,0.76884 7.08597,3.3263 -1.90619,1.19119 -3.6495,2.4636 -6.08552,2.71598 -2.43602,0.25238 -5.36399,-0.83761 -6.57685,-3.16177 z"
         id="path4854"
         inkscape:connector-curvature="0"
         sodipodi:nodetypes="ccczc" />
      <path
         sodipodi:nodetypes="czczccc"
         style="opacity:1;fill:#905d44;fill-opacity:1;fill-rule:evenodd;stroke:#000000;stroke-width:1px;stroke-linecap:butt;stroke-linejoin:miter;stroke-opacity:1"
         d="m 199.41958,617.49683 c -0.50643,-3.57752 2.98733,-3.65509 6.03726,-3.2222 3.04992,0.43289 8.10348,1.46432 11.32243,2.28051 -2.27696,0.33071 -5.45216,0.87924 -8.4282,0.70416 -2.97605,-0.17508 -5.6557,-0.10977 -8.69008,0.5365 l -0.24141,-0.29897 z"
         id="path4856"
         inkscape:connector-curvature="0" />
      <path
         sodipodi:nodetypes="czczccc"
         style="opacity:1;fill:#905d44;fill-opacity:1;fill-rule:evenodd;stroke:#000000;stroke-width:1px;stroke-linecap:butt;stroke-linejoin:miter;stroke-opacity:1"
         d="m 180.84815,616.96112 c -4.09862,1.44645 -8.08636,-0.87955 -11.54072,-0.54545 -3.45435,0.33411 -7.35278,1.56845 -7.35278,1.56845 1.99937,-1.80121 3.54424,-2.71659 7.5182,-3.26481 3.97396,-0.54822 6.85765,-1.19104 10.09728,0.15475 0.73361,0.41589 1.51349,1.15373 1.27802,2.08704 z"
         id="path4858"
         inkscape:connector-curvature="0" />
      <path
         style="opacity:1;fill:none;fill-rule:evenodd;stroke:#000000;stroke-width:1px;stroke-linecap:butt;stroke-linejoin:miter;stroke-opacity:1"
         d="m 199.41958,640.35396 c 1.35137,2.78886 0.55414,5.4177 -1.518,6.33969"
         id="path4860"
         inkscape:connector-curvature="0"
         sodipodi:nodetypes="cc" />
      <path
         style="opacity:1;fill:none;fill-rule:evenodd;stroke:#000000;stroke-width:1px;stroke-linecap:butt;stroke-linejoin:miter;stroke-opacity:1"
         d="m 184.86601,645.26468 c 1.10221,-0.93196 2.16357,0.28435 2.86799,1.03167 1.57171,0.98545 3.55249,0.87467 5.30391,0.55141 1.68941,-0.44823 2.47863,-2.6945 4.32884,-2.65466"
         id="path4862"
         inkscape:connector-curvature="0" />
      <path
         style="opacity:1;fill:none;fill-rule:evenodd;stroke:#000000;stroke-width:1px;stroke-linecap:butt;stroke-linejoin:miter;stroke-opacity:1"
         d="m 182.09815,640.88968 c -1.05553,1.72753 -1.31534,5.07101 0.98982,5.38113 l 0.0516,-0.0146 0.0305,-0.009"
         id="path4864"
         inkscape:connector-curvature="0"
         sodipodi:nodetypes="cccc" />
      <path
         style="opacity:1;fill:#ffe5ea;fill-opacity:1;fill-rule:evenodd;stroke:#000000;stroke-width:1px;stroke-linecap:butt;stroke-linejoin:miter;stroke-opacity:1"
         d="m 177.6645,655.91397 c 3.76821,2.40476 6.91272,-2.402 10.91562,-1.16404 2.61497,1.64085 5.12377,-0.72858 7.75274,0.16916 1.82284,0.95148 5.72139,0.95731 8.287,0.76273 -3.24761,2.94368 -7.10625,7.12089 -10.38313,7.7561 -3.40996,0.6895 -7.19846,0.99433 -10.30189,-0.9275 -2.00258,-1.18072 -4.10947,-5.65224 -6.27034,-6.59645 z"
         id="path4866"
         inkscape:connector-curvature="0"
         sodipodi:nodetypes="ccccccc" />
      <path
         style="opacity:1;fill:none;fill-rule:evenodd;stroke:#000000;stroke-width:1px;stroke-linecap:butt;stroke-linejoin:miter;stroke-opacity:1"
         d="m 179.56751,656.7762 c 1.82167,0.71093 2.90297,1.00015 4.99445,1.61111 2.09148,0.61096 3.57285,1.19961 5.95722,1.16672 2.38437,-0.0329 3.74058,-0.65049 6.11147,-1.36513 2.37089,-0.71464 5.35669,-0.7615 7.41465,-2.29038"
         id="path4868"
         inkscape:connector-curvature="0"
         sodipodi:nodetypes="czzzc" />
      <path
         style="opacity:1;fill:#fff5f0;fill-opacity:1;fill-rule:evenodd;stroke:#000000;stroke-width:1px;stroke-linecap:butt;stroke-linejoin:miter;stroke-opacity:1"
         d="m 271.47794,916.70736 c -3.19575,-3.2788 -3.31736,-8.1318 -4.79668,-12.2304 -2.01404,-8.1019 -3.36467,-16.3575 -4.31481,-24.6458 0.056,-3.8627 -0.84759,-7.6605 -1.52749,-11.4146 0.14072,-3.80794 -2.70936,-7.59526 -1.02169,-11.32816 1.52826,-1.57397 4.12384,-1.96752 6.05156,-3.13586 3.0036,-1.38593 6.24549,-2.06512 9.39214,-3.02919 4.4218,-0.98148 8.9712,-1.29906 13.47218,-1.60008 3.35849,-0.18875 5.35454,3.05891 5.12319,6.06465 1.68767,5.09046 1.6365,10.51788 2.07781,15.79664 0.46919,2.9672 1.02313,5.9496 1.17773,8.9381 0.93914,3.5983 0.31077,7.4482 1.60487,10.9792 0.67111,3.994 0.29326,8.0823 0.95285,12.0779 0.26408,5.2033 0.0309,10.4226 0.0443,15.6244 -0.83522,3.0618 -4.71472,2.0364 -7.05281,1.898 -2.55898,-0.09 -4.93112,-0.1408 -7.45373,-0.5349 -3.15045,-0.051 -6.50725,0.6872 -9.4666,-0.7499 -2.05007,0.1885 -2.34765,-2.5758 -4.26286,-2.71 z"
         id="path4876"
         inkscape:connector-curvature="0" />
      <path
         style="opacity:1;fill:#e9e9e9;fill-opacity:1;fill-rule:evenodd;stroke:#000000;stroke-width:1px;stroke-linecap:butt;stroke-linejoin:miter;stroke-opacity:1"
         d="m 142.68297,689.42306 c -10.80845,2.6049 -20.42205,8.87239 -31.28906,11.49218 -9.61633,3.73394 -23.12401,4.69634 -28.31015,12.75235 -4.88263,7.12239 -9.14429,20.53186 -14.76698,31.45299 -5.62269,10.92114 -14.879241,25.91994 -18.639971,38.49385 -5.79926,19.38967 -11.44839,37.80389 -16.577179,45.87932 -1.7367,7.65111 -6.83734,21.18991 -5.60562,23.90237 1.23185,2.71275 5.33498,6.95197 7.58888,9.06673 6.547059,0.85208 17.907579,2.48395 23.25888,1.1199 5.97207,-1.52228 14.79976,-9.64762 17.41322,-14.33282 5.55973,-9.96705 7.76392,-18.88046 15.60907,-34.05175 5.37407,-10.3926 15.88569,-31.995 26.48217,-52.56029 -2.3623,41.76749 -5.95572,103.18674 -6.16912,103.76368 -1.75806,12.98099 -3.26458,14.60699 -4.75977,27.69529 -1.22543,7.5565 -0.61914,20.3594 -0.61914,20.3594 19.50597,0.3661 55.53239,2.2456 70.5,0.07 16.54382,-1.532 30.67514,2.3826 46.26758,-0.5762 11.78739,-1.667 21.47319,-2.3721 30.57617,-8.1464 0.73131,-11.8132 -3.9889,-20.6851 -2.29101,-31.5801 1.41446,-12.5108 -3.70382,-46.52449 -3.33594,-58.8742 1.08402,-21.84248 -3.43056,-54.44878 -3.47549,-55.67679 4.35705,48.17389 4.44465,84.7508 5.35635,90.51189 4.13838,14.02305 20.29622,7.06926 30.4375,5.99415 8.51197,0.85576 21.5203,-0.62489 16.79297,-12.36915 -3.64951,-9.27596 -1.47593,-19.87708 -5.0957,-29.36328 -2.18957,-13.70537 -3.39774,-27.53 -3.5293,-41.41015 -1.51285,-11.34889 -3.16563,-22.65268 -4.39649,-34.04492 0.97697,-11.59788 -9.76151,-18.29629 -16.16015,-26.22071 -9.74613,-6.91616 -41.98733,-23.95765 -47.72461,-18.4414 -3.73406,11.34981 -12.57341,21.33532 -24.26758,24.97461 -11.34242,5.79861 -23.0778,-4.30219 -32.24589,-8.67052 -8.98685,-5.49484 -12.48709,-15.42184 -21.02364,-21.21033 z"
         id="path4880"
         inkscape:connector-curvature="0"
         sodipodi:nodetypes="cccsscscsssccccccccccccccccccccc" />
      <path
         inkscape:connector-curvature="0"
         id="path4890"
         d="m 205.84815,622.22898 c -1.68691,0.4355 -2.87741,2.81853 -1.61912,4.22943 1.61545,1.2336 4.14383,0.13643 4.85278,-1.62414 0.5204,-1.68963 -1.29461,-2.86598 -2.80812,-2.59564 l -0.213,-0.003 -0.21254,-0.006 0,0 z"
         style="opacity:1;fill:#3a2920;fill-opacity:1;fill-rule:evenodd;stroke:#000000;stroke-width:1px;stroke-linecap:butt;stroke-linejoin:miter;stroke-opacity:1" />
      <g
         style="opacity:1;stroke:#000000;stroke-opacity:1"
         transform="matrix(0.82887918,0.55942765,-0.55942765,0.82887918,446.93465,15.252527)"
         id="g4892">
        <path
           sodipodi:nodetypes="ccccccccccccccccccccccccccccccccc"
           inkscape:connector-curvature="0"
           id="path4894"
           d="m 121.21831,930.6388 c -6.71884,-6.39311 -7.78546,-17.17148 -9.29854,-25.98279 -0.42086,-11.55066 5.01599,-22.1943 12.47232,-30.66213 4.93832,-7.63814 13.32513,-11.94738 18.76915,-19.1727 6.39265,-5.32145 10.36875,-13.09442 16.073,-19.22091 6.34481,-10.53984 17.4306,-19.26444 17.80859,-32.43506 -2.58994,-7.48805 -10.26185,-12.9799 -9.07721,-21.75215 -1.12051,-7.30653 -3.5726,-14.42821 -9.32083,-19.34807 -6.50811,-2.91699 -5.16167,-10.86293 2.51198,-8.74757 9.77766,2.9808 11.95593,14.35275 18.51932,20.8885 7.77838,4.73543 14.12731,-4.91858 18.42413,-10.22008 4.7366,-6.21218 6.99581,-13.57593 10.47286,-20.417 10.08434,-17.28813 17.7838,-13.55532 14.06824,-5.11701 -2.68941,6.88132 -4.92277,8.61235 -8.05092,14.98534 -1.51419,3.34652 -6.90116,14.17059 -2.18761,6.34603 3.24906,-7.86364 8.03067,-14.60311 11.41211,-22.16232 2.34479,-5.62911 11.29814,-9.91351 10.20365,-0.20075 -3.44691,6.77442 -6.41951,13.49886 -9.85535,20.99029 -3.26211,5.53318 -5.55551,10.91425 -0.91951,3.53291 5.89253,-12.35288 5.95406,-12.92324 8.96958,-19.09234 4.042,-6.912 7.52317,-1.655 6.1002,2.69016 -2.47934,7.14418 -6.79697,15.66436 -11.11846,23.41197 -3.5616,8.42664 5.40478,-10.93841 7.35721,-13.90832 1.62355,-3.13078 7.45829,-6.07791 4.00706,3.27753 -3.51428,7.72626 -6.78492,14.74073 -7.73944,23.31897 -0.34219,8.4366 -5.18179,15.64489 -8.55434,23.06469 -5.00515,7.46467 -12.18791,13.18642 -17.96618,20.08457 -6.70432,5.95041 -8.09185,15.03727 -11.39302,22.99208 -3.41849,13.29364 -7.6292,26.28025 -11.99669,39.30641 -3.52136,6.85032 -7.93567,12.96501 -12.8701,18.80888 -5.06052,5.5088 -7.09474,14.35222 -14.68854,16.98099 -7.04069,2.89793 -12.28179,9.09143 -19.83783,10.68127 -4.69392,0.80049 -8.31574,-1.91947 -12.29483,-2.92139 z"
           style="fill:#fff5f0;fill-opacity:1;fill-rule:evenodd;stroke:#000000;stroke-width:1px;stroke-linecap:butt;stroke-linejoin:miter;stroke-opacity:1" />
        <path
           sodipodi:nodetypes="cccc"
           inkscape:connector-curvature="0"
           id="path4896"
           d="m 160.86679,763.71109 c 2.16767,-3.10804 -3.11865,-6.97547 -6.04254,-7.52512 -0.80318,3.5375 2.69469,4.79781 4.02145,5.94638 0.70467,0.48416 1.40368,0.98425 2.02109,1.57874 z"
           style="fill:none;fill-rule:evenodd;stroke:#000000;stroke-width:1px;stroke-linecap:butt;stroke-linejoin:miter;stroke-opacity:1" />
        <path
           sodipodi:nodetypes="cccc"
           inkscape:connector-curvature="0"
           id="path4898"
           d="m 216.80399,733.59593 c -2.31422,3.12176 1.62423,6.87281 4.80676,4.91713 2.63238,-2.05817 2.38401,-6.5587 -0.40794,-7.0011 -1.35636,-0.005 -3.31086,1.0854 -4.39882,2.08397 z"
           style="fill:none;fill-rule:evenodd;stroke:#000000;stroke-width:1px;stroke-linecap:butt;stroke-linejoin:miter;stroke-opacity:1" />
        <path
           sodipodi:nodetypes="cccc"
           inkscape:connector-curvature="0"
           id="path4900"
           d="m 226.84238,733.84845 c -1.39982,3.49364 3.04549,7.4443 6.44025,4.30554 1.28894,-0.62508 0.95707,-5.23969 -1.40781,-6.31273 -0.77549,-0.35337 -3.87351,0.55916 -5.03244,2.00719 z"
           style="fill:none;fill-rule:evenodd;stroke:#000000;stroke-width:1px;stroke-linecap:butt;stroke-linejoin:miter;stroke-opacity:1" />
        <path
           sodipodi:nodetypes="ccc"
           inkscape:connector-curvature="0"
           id="path4902"
           d="m 234.86047,739.97251 c -4.55007,2.82865 3.08901,7.78331 3.52229,3.51161 0.0414,-1.44716 -0.40928,-4.50513 -3.52229,-3.51161 z"
           style="fill:none;fill-rule:evenodd;stroke:#000000;stroke-width:1px;stroke-linecap:butt;stroke-linejoin:miter;stroke-opacity:1" />
        <path
           sodipodi:nodetypes="ccc"
           inkscape:connector-curvature="0"
           id="path4904"
           d="m 237.89092,752.22061 c -1.87717,0.65835 -3.99304,3.07373 0.75715,4.36402 0,0 1.79473,-3.81679 -0.75715,-4.36402 z"
           style="fill:none;fill-rule:evenodd;stroke:#000000;stroke-width:1px;stroke-linecap:butt;stroke-linejoin:miter;stroke-opacity:1" />
      </g>
      <path
         style="opacity:1;fill:#72eb23;fill-opacity:1;fill-rule:evenodd;stroke:#000000;stroke-width:1px;stroke-linecap:butt;stroke-linejoin:miter;stroke-opacity:1"
         d="m 188.31962,584.34976 c 1.86072,-0.27971 2.99885,-0.59395 4.57083,-1.44818 1.46545,-1.16773 1.6221,-3.32289 2.70651,-4.83152 0.60951,-1.2793 1.71981,-2.71033 2.14972,-3.82643 -0.76539,0.3718 -2.31164,3.06305 -1.18374,1.1099 0.29136,-1.65801 1.15906,-3.23497 1.15363,-4.92173 -0.45949,0.73802 -1.12597,2.68567 -0.80618,0.69246 0.007,-2.68217 0.75855,-5.30215 0.87557,-7.96624 -0.91837,1.28021 -0.90573,3.01633 -1.44672,4.4818 0.28273,-1.73759 0.75108,-3.45946 0.58623,-5.23745 0.13279,-2.41055 0.71643,-4.77991 0.81246,-7.18866 -0.45336,0.57268 -1.07416,3.03875 -1.38886,4.41898 -0.0957,-0.38075 -0.23097,-3.15377 -0.47533,-4.32857 -0.36849,-2.00541 -0.18325,-4.13452 -0.82952,-6.07159 -0.34169,1.10715 -1.07268,3.61971 -1.53682,3.73116 -0.44938,-2.35731 -0.94588,-4.76991 -2.03183,-6.92881 -0.70898,-0.43351 -0.68807,2.15596 -1.43078,2.80084 -0.48571,1.25203 -1.74037,3.59705 -2.16243,1.08244 -0.84041,-2.53093 -1.90368,-4.99977 -2.64251,-7.5539 -0.27903,-0.85678 -0.30354,-2.71638 -0.46405,-3.0895 0.025,2.66644 -0.39906,5.31601 -0.27814,7.98537 -0.22637,1.84218 -0.20291,4.11664 -0.95784,5.66451 -0.52245,-1.65448 -1.25396,-3.27334 -1.62054,-4.98181 -0.53405,-0.93532 -0.69141,-2.60205 -1.36008,-3.12147 -0.63711,3.28791 -0.62144,6.65739 -0.60444,9.99648 -0.19908,1.39801 -0.11683,3.85653 -0.23433,4.63404 -0.24527,-0.7599 -0.93438,-2.71237 -0.9518,-2.60233 0.36545,2.80648 0.53333,5.65152 1.29409,8.3949 0.78692,2.45028 -2.00147,-2.79309 -0.82227,-0.0695 0.42373,2.04488 0.75114,4.11222 1.36818,6.111 -0.20103,-0.0325 -2.2732,-3.1701 -1.44783,-1.09526 0.40328,1.687 1.70733,3.20549 1.9119,4.84258 -1.88959,0.18721 1.59807,4.03087 -0.67128,2.99889 0.70057,1.90044 1.48435,3.89771 2.81103,5.32894 1.44333,0.68874 3.69818,0.88161 5.10717,0.98866 z"
         id="path4920"
         inkscape:connector-curvature="0"
         sodipodi:nodetypes="ccccccccccccccccccccccccccccccccccc" />
      <g
         style="opacity:1"
         transform="matrix(-0.37242384,0.92806275,-0.92806275,-0.37242384,920.41475,690.83643)"
         id="g4999">
        <path
           inkscape:transform-center-y="-0.88641715"
           transform="matrix(0.18524601,0.82409827,-0.36116488,0.08118493,600.65635,250.64691)"
           inkscape:transform-center-x="-6.3081619"
           d="m 383.02504,794.34935 0,-16.72624 0,-16.72625 14.48536,8.36313 14.48535,8.36312 -14.48535,8.36312 z"
           inkscape:randomized="0"
           inkscape:rounded="0"
           inkscape:flatsided="false"
           sodipodi:arg2="3.1415927"
           sodipodi:arg1="2.0943951"
           sodipodi:r2="9.6569014"
           sodipodi:r1="19.313803"
           sodipodi:cy="777.62311"
           sodipodi:cx="392.68195"
           sodipodi:sides="3"
           id="path4971"
           style="opacity:1;fill:#00ffef;fill-opacity:1;stroke:none;stroke-width:0.2;stroke-miterlimit:4;stroke-dasharray:none;stroke-opacity:1"
           sodipodi:type="star" />
        <path
           sodipodi:type="spiral"
           style="fill:none;fill-opacity:1;fill-rule:evenodd;stroke:#00ffef;stroke-width:3;stroke-linecap:butt;stroke-linejoin:miter;stroke-miterlimit:4;stroke-dasharray:none;stroke-opacity:1"
           id="path4997"
           sodipodi:cx="337.67041"
           sodipodi:cy="639.83447"
           sodipodi:expansion="3"
           sodipodi:revolution="3.9380796"
           sodipodi:radius="54.358826"
           sodipodi:argument="-18.591629"
           sodipodi:t0="0.8078078"
           d="m 342.63922,668.05497 c -17.0779,5.72132 -35.02922,-5.42993 -40.3791,-21.98578 -6.87373,-21.27158 7.05009,-43.49746 27.71107,-49.96269 26.10038,-8.16733 53.23433,8.9567 60.95494,34.3512 0.22852,0.75164 0.4407,1.50824 0.63642,2.26908" />
      </g>
      <text
         sodipodi:linespacing="125%"
         id="text5003"
         y="861.14893"
         x="162.41783"
         style="font-style:normal;font-weight:normal;font-size:40px;line-height:125%;font-family:sans-serif;letter-spacing:0px;word-spacing:0px;opacity:1;fill:#000000;fill-opacity:1;stroke:none;stroke-width:1px;stroke-linecap:butt;stroke-linejoin:miter;stroke-opacity:1"
         xml:space="preserve"><tspan
           style="fill:#00ffef;fill-opacity:1"
           y="861.14893"
           x="162.41783"
           id="tspan5005"
           sodipodi:role="line">X 2</tspan></text>
    </g>
    <text
       xml:space="preserve"
       style="font-style:normal;font-weight:normal;font-size:40px;line-height:125%;font-family:sans-serif;letter-spacing:0px;word-spacing:0px;fill:#000000;fill-opacity:1;stroke:none;stroke-width:1px;stroke-linecap:butt;stroke-linejoin:miter;stroke-opacity:1"
       x="22.058712"
       y="983.01428"
       id="text5980"
       sodipodi:linespacing="125%"><tspan
         sodipodi:role="line"
         id="tspan5982"
         x="22.058712"
         y="983.01428"
         style="font-style:normal;font-variant:normal;font-weight:bold;font-stretch:normal;font-family:sans-serif;-inkscape-font-specification:'sans-serif Bold'">Content</tspan></text>
    <text
       xml:space="preserve"
       style="font-style:normal;font-weight:normal;font-size:40px;line-height:125%;font-family:sans-serif;letter-spacing:0px;word-spacing:0px;fill:#000000;fill-opacity:1;stroke:none;stroke-width:1px;stroke-linecap:butt;stroke-linejoin:miter;stroke-opacity:1"
       x="24.326778"
       y="1024.2549"
       id="text5984"
       sodipodi:linespacing="125%"><tspan
         sodipodi:role="line"
         id="tspan5986"
         x="24.326778"
         y="1024.2549"
         style="font-size:25px">Configurations : </tspan></text>
    <flowRoot
       xml:space="preserve"
       id="flowRoot6111"
       style="fill:black;stroke:none;stroke-opacity:1;stroke-width:1px;stroke-linejoin:miter;stroke-linecap:butt;fill-opacity:1;font-family:sans-serif;font-style:normal;font-weight:normal;font-size:40px;line-height:125%;letter-spacing:0px;word-spacing:0px"><flowRegion
         id="flowRegion6113"><rect
           id="rect6115"
           width="150.71428"
           height="140"
           x="232.14285"
           y="410.12372" /></flowRegion><flowPara
         id="flowPara6117" /></flowRoot>    <text
       xml:space="preserve"
       style="font-style:normal;font-weight:normal;font-size:40px;line-height:125%;font-family:sans-serif;letter-spacing:0px;word-spacing:0px;fill:#000000;fill-opacity:1;stroke:none;stroke-width:1px;stroke-linecap:butt;stroke-linejoin:miter;stroke-opacity:1"
       x="315.96121"
       y="1034.4396"
       id="text6291"
       sodipodi:linespacing="125%"><tspan
         sodipodi:role="line"
         id="tspan6293"
         x="315.96121"
         y="1034.4396">D</tspan></text>
    <g
       id="g4414"
       transform="translate(-429.03184,264.51119)">
      <path
         sodipodi:nodetypes="cccc"
         inkscape:connector-curvature="0"
         id="path4325"
         d="m 747.44225,725.77872 c 0.0694,-2.88613 -0.15987,-3.6087 -0.15795,-5.54756 -7.05165,-6.22457 -7.80769,-14.00475 -6.89562,-27.66673 0.79613,-15.05529 -1.6169,-30.94497 6.78571,-24.73214"
         style="fill:none;fill-rule:evenodd;stroke:#000000;stroke-width:1px;stroke-linecap:butt;stroke-linejoin:miter;stroke-opacity:1" />
      <path
         sodipodi:nodetypes="cc"
         inkscape:connector-curvature="0"
         id="path4327"
         d="m 748.06725,689.618 c 0.52294,-15.65042 -3.54069,-33.56008 6.78572,-27.49999"
         style="fill:none;fill-rule:evenodd;stroke:#000000;stroke-width:1px;stroke-linecap:butt;stroke-linejoin:miter;stroke-opacity:1" />
      <path
         sodipodi:nodetypes="ccc"
         inkscape:connector-curvature="0"
         id="path4329"
         d="m 755.92439,688.72515 c -0.0873,-9.3713 -1.14169,-19.17536 -0.95512,-26.73457 0.0973,-6.9342 4.56056,-5.90927 7.3837,-1.12258"
         style="fill:none;fill-rule:evenodd;stroke:#000000;stroke-width:1px;stroke-linecap:butt;stroke-linejoin:miter;stroke-opacity:1" />
      <path
         sodipodi:nodetypes="cccc"
         inkscape:connector-curvature="0"
         id="path4333"
         d="m 763.96011,687.02872 c -10e-4,-10.43768 -1.88363,-17.96207 -1.43967,-26.37426 10.00297,-5.36423 7.85048,18.67571 10.13705,28.23295 1.54945,4.96491 0.75634,12.61525 1.92762,16.26631"
         style="fill:none;fill-rule:evenodd;stroke:#000000;stroke-width:1px;stroke-linecap:butt;stroke-linejoin:miter;stroke-opacity:1" />
      <path
         sodipodi:nodetypes="cccc"
         inkscape:connector-curvature="0"
         id="path4335"
         d="m 771.28154,710.51086 c 0.0385,-6.36924 25.41641,-17.64557 23.61075,-6.77865 -13.77575,5.61453 -11.20541,8.51406 -26.87505,17.97522 -0.0437,1.02594 -0.0472,2.02156 0.13976,4.607"
         style="fill:none;fill-rule:evenodd;stroke:#000000;stroke-width:1px;stroke-linecap:butt;stroke-linejoin:miter;stroke-opacity:1" />
      <path
         sodipodi:nodetypes="cc"
         inkscape:connector-curvature="0"
         id="path4337"
         d="m 755.38868,717.56443 c 1.35912,-6.60035 4.96934,-10.9926 9.73215,-15.44643"
         style="fill:none;fill-rule:evenodd;stroke:#000000;stroke-width:1px;stroke-linecap:butt;stroke-linejoin:miter;stroke-opacity:1" />
    </g>
  </g>
</svg>
