<?xml version="1.0" encoding="UTF-8" standalone="no"?>
<!-- Created with Inkscape (http://www.inkscape.org/) -->

<svg
   xmlns:dc="http://purl.org/dc/elements/1.1/"
   xmlns:cc="http://creativecommons.org/ns#"
   xmlns:rdf="http://www.w3.org/1999/02/22-rdf-syntax-ns#"
   xmlns:svg="http://www.w3.org/2000/svg"
   xmlns="http://www.w3.org/2000/svg"
   xmlns:sodipodi="http://sodipodi.sourceforge.net/DTD/sodipodi-0.dtd"
   xmlns:inkscape="http://www.inkscape.org/namespaces/inkscape"
   width="105mm"
   height="148mm"
   viewBox="0 0 372.04724 524.40945"
   id="svg7366"
   version="1.1"
   inkscape:version="0.91 r13725"
   sodipodi:docname="Non.svg">
  <defs
     id="defs7368" />
  <sodipodi:namedview
     id="base"
     pagecolor="#ffffff"
     bordercolor="#666666"
     borderopacity="1.0"
     inkscape:pageopacity="0.0"
     inkscape:pageshadow="2"
     inkscape:zoom="0.7"
     inkscape:cx="-12.096046"
     inkscape:cy="173.05699"
     inkscape:document-units="px"
     inkscape:current-layer="layer1"
     showgrid="false"
     inkscape:window-width="1680"
     inkscape:window-height="1022"
     inkscape:window-x="0"
     inkscape:window-y="28"
     inkscape:window-maximized="1" />
  <metadata
     id="metadata7371">
    <rdf:RDF>
      <cc:Work
         rdf:about="">
        <dc:format>image/svg+xml</dc:format>
        <dc:type
           rdf:resource="http://purl.org/dc/dcmitype/StillImage" />
        <dc:title />
      </cc:Work>
    </rdf:RDF>
  </metadata>
  <g
     inkscape:label="Calque 1"
     inkscape:groupmode="layer"
     id="layer1"
     transform="translate(0,-527.95276)">
    <g
       id="g8008"
       transform="translate(8.6675099,22.223356)">
      <g
         transform="translate(-17.616855,-99.578638)"
         style="opacity:1;fill:#fff5f0;fill-opacity:1"
         id="g4236">
        <path
           sodipodi:nodetypes="cccccccc"
           style="fill:#fff5f0;fill-opacity:1;fill-rule:evenodd;stroke:#000000;stroke-width:1px;stroke-linecap:butt;stroke-linejoin:miter;stroke-opacity:1"
           d="m 188.30357,684.68361 c -1.71345,-2.25548 -2.55666,-8.42075 -5.57907,-4.1223 -1.91226,4.29531 -0.28489,9.10825 0.0335,13.57747 0.58201,4.59463 1.93243,9.34046 5.25223,12.71144 0.62709,3.3548 3.66882,5.07618 3.73717,0.50707 -0.27249,-6.58222 -0.20215,-13.28839 -2.00167,-19.69822 -0.19793,-1.08202 -0.43697,-2.33598 -1.44213,-2.97546 z"
           id="path4238"
           inkscape:connector-curvature="0" />
        <path
           style="fill:#fff5f0;fill-opacity:1;fill-rule:evenodd;stroke:#000000;stroke-width:1px;stroke-linecap:butt;stroke-linejoin:miter;stroke-opacity:1"
           d="m 188.48214,691.38004 c -1.67003,0.81392 -2.8382,2.86521 -2.22286,4.69981 0.44714,1.9355 1.13083,3.99801 2.73016,5.27908 0.2238,0.2871 0.90168,0.2484 1.011,0.46785"
           id="path4240"
           inkscape:connector-curvature="0" />
      </g>
      <g
         transform="translate(-17.616855,-99.578638)"
         style="opacity:1;fill:#fff5f0;fill-opacity:1"
         id="g4242">
        <path
           style="fill:#fff5f0;fill-opacity:1;fill-rule:evenodd;stroke:#000000;stroke-width:1px;stroke-linecap:butt;stroke-linejoin:miter;stroke-opacity:1"
           d="m 256.07143,690.48718 c 0.80333,-2.98751 1.77912,-6.61029 4.73211,-8.13894 3.43227,-1.58899 3.15969,1.39396 3.73629,3.93231 1.2597,3.82115 -0.45906,9.69576 -1.64122,13.70071 -1.81478,3.32744 -2.23187,7.10217 -4.67442,8.50201 -1.02087,4.02932 -5.1765,3.52095 -4.26848,-0.49051 0.021,-2.89189 1.10284,-5.64983 0.99762,-8.56091 0.17755,-2.99502 1.39324,-5.93507 1.1181,-8.94467 z"
           id="path4244"
           inkscape:connector-curvature="0"
           sodipodi:nodetypes="cccccccc" />
        <path
           inkscape:connector-curvature="0"
           id="path4246"
           d="m 256.10135,703.12112 c 1.85325,0.13014 3.89056,-1.06224 4.27496,-2.95872 0.58052,-1.89977 1.01968,-4.0278 0.27515,-5.9369 -0.0503,-0.36054 -0.65667,-0.66596 -0.64162,-0.91067"
           style="fill:#fff5f0;fill-opacity:1;fill-rule:evenodd;stroke:#000000;stroke-width:1px;stroke-linecap:butt;stroke-linejoin:miter;stroke-opacity:1" />
      </g>
      <path
         inkscape:connector-curvature="0"
         id="path4248"
         d="m 154.63011,655.38289 c 5.82547,-6.27229 15.95758,-6.91259 20.5226,-14.75445 5.24093,-8.69399 -0.16526,-19.51088 3.6955,-28.6824 12.88367,-2.6973 25.78808,1.53897 38.68654,2.0245 5.53549,0.44725 16.51676,1.66432 13.0758,9.80687 0.21814,7.62378 -3.64928,16.27253 0.38457,23.12413 5.45284,5.01727 14.89087,11.15585 9.42249,19.67847 -2.92738,8.33166 -12.06712,9.81805 -17.26968,16.11362 -5.53828,6.29532 -14.36658,7.20173 -22.09606,5.24946 -13.49881,-2.96587 -22.73312,-13.87377 -32.86466,-22.30617 -4.59645,-2.89219 -10.79707,-7.65975 -12.79948,-11.26418"
         style="opacity:1;fill:#fff5f0;fill-opacity:1;fill-rule:evenodd;stroke:#000000;stroke-width:1px;stroke-linecap:butt;stroke-linejoin:miter;stroke-opacity:1" />
      <path
         sodipodi:nodetypes="cccccccccccc"
         inkscape:connector-curvature="0"
         id="path4250"
         d="m 173.90164,597.4824 c -3.88448,-14.49103 -7.65424,-30.3609 -2.0613,-44.93575 2.15983,-9.38483 9.57188,-17.12222 18.8158,-19.80462 6.86256,-2.29376 14.15195,-4.51126 21.412,-2.66549 17.74935,3.67334 31.90103,21.92158 28.8614,40.20612 -1.52947,16.96047 -3.40664,28.31032 -5.20239,45.24273 -1.0929,12.30449 -14.12791,20.81142 -21.47763,27.99472 -11.42559,4.43501 -25.22277,-2.86828 -29.19185,-14.18711 -4.556,-9.52333 -12.71499,-18.59938 -11.17589,-29.88659 l 0.0704,-0.9787 -0.0505,-0.98531 z"
         style="opacity:1;fill:#fff5f0;fill-opacity:1;fill-rule:evenodd;stroke:#000000;stroke-width:1px;stroke-linecap:butt;stroke-linejoin:miter;stroke-opacity:1" />
      <path
         inkscape:connector-curvature="0"
         id="path4252"
         d="m 184.1695,585.87526 c 1.91747,-2.3574 4.86004,-3.84425 7.88101,-4.07239 1.74184,-0.11312 3.58839,0.45308 4.7373,1.81814 0.8208,0.57648 0.56019,1.6092 -0.0116,2.25876 -1.30907,1.75146 -3.63083,2.23107 -5.69856,2.27492 -2.25994,0.0164 -4.56292,-0.57219 -6.40042,-1.9238 -0.17077,-0.11634 -0.33978,-0.23525 -0.50772,-0.35563 z"
         style="opacity:1;fill:#ffffff;fill-opacity:1;fill-rule:evenodd;stroke:#000000;stroke-width:1px;stroke-linecap:butt;stroke-linejoin:miter;stroke-opacity:1" />
      <path
         inkscape:connector-curvature="0"
         id="path4254"
         d="m 190.77664,582.66098 c -1.68691,0.4355 -2.87741,2.81853 -1.61912,4.22943 1.61545,1.2336 4.14383,0.13643 4.85278,-1.62414 0.5204,-1.68963 -1.29461,-2.86598 -2.80812,-2.59564 l -0.213,-0.003 -0.21254,-0.006 0,0 z"
         style="opacity:1;fill:#3a2920;fill-opacity:1;fill-rule:evenodd;stroke:#000000;stroke-width:1px;stroke-linecap:butt;stroke-linejoin:miter;stroke-opacity:1" />
      <path
         sodipodi:nodetypes="ccczc"
         inkscape:connector-curvature="0"
         id="path4256"
         d="m 217.47307,586.05383 c 1.06388,-1.98517 3.54274,-2.5047 5.5764,-2.88051 2.72876,-0.48715 5.83971,0.76884 7.08597,3.3263 -1.90619,1.19119 -3.6495,2.4636 -6.08552,2.71598 -2.43602,0.25238 -5.36399,-0.83761 -6.57685,-3.16177 z"
         style="opacity:1;fill:#ffffff;fill-opacity:1;fill-rule:evenodd;stroke:#000000;stroke-width:1px;stroke-linecap:butt;stroke-linejoin:miter;stroke-opacity:1" />
      <path
         inkscape:connector-curvature="0"
         id="path4258"
         d="m 216.23388,581.7956 c -1.87662,-3.08762 1.30322,-4.53711 4.27658,-5.34247 2.97336,-0.80534 8.02398,-1.85108 11.30385,-2.37089 -1.96185,1.20211 -4.66318,2.9587 -7.46693,3.97181 -2.80378,1.0131 -5.24035,2.13019 -7.77373,3.92104 l -0.33977,-0.17949 z"
         style="opacity:1;fill:#905d44;fill-opacity:1;fill-rule:evenodd;stroke:#000000;stroke-width:1px;stroke-linecap:butt;stroke-linejoin:miter;stroke-opacity:1"
         sodipodi:nodetypes="czczccc" />
      <path
         inkscape:connector-curvature="0"
         id="path4260"
         d="m 199.88766,581.1438 c -4.34631,-0.0213 -7.31538,-3.55642 -10.67989,-4.40746 -3.36451,-0.85103 -7.4508,-1.00446 -7.4508,-1.00446 2.48987,-1.02096 4.253,-1.3614 8.1789,-0.5366 3.92588,0.82479 6.85736,1.19267 9.45292,3.55263 0.55026,0.63903 1.03545,1.59674 0.49888,2.39587 z"
         style="opacity:1;fill:#905d44;fill-opacity:1;fill-rule:evenodd;stroke:#000000;stroke-width:1px;stroke-linecap:butt;stroke-linejoin:miter;stroke-opacity:1"
         sodipodi:nodetypes="czczccc" />
      <path
         sodipodi:nodetypes="cc"
         inkscape:connector-curvature="0"
         id="path4262"
         d="m 216.49093,601.67883 c 1.35137,2.78886 0.55414,5.4177 -1.518,6.33969"
         style="opacity:1;fill:none;fill-rule:evenodd;stroke:#000000;stroke-width:1px;stroke-linecap:butt;stroke-linejoin:miter;stroke-opacity:1" />
      <path
         inkscape:connector-curvature="0"
         id="path4264"
         d="m 201.93736,606.58955 c 1.10221,-0.93196 2.16357,0.28435 2.86799,1.03167 1.57171,0.98545 3.55249,0.87467 5.30391,0.55141 1.68941,-0.44823 2.47863,-2.6945 4.32884,-2.65466"
         style="opacity:1;fill:none;fill-rule:evenodd;stroke:#000000;stroke-width:1px;stroke-linecap:butt;stroke-linejoin:miter;stroke-opacity:1" />
      <path
         sodipodi:nodetypes="cccc"
         inkscape:connector-curvature="0"
         id="path4266"
         d="m 199.1695,602.21455 c -1.05553,1.72753 -1.31534,5.07101 0.98982,5.38113 l 0.0516,-0.0146 0.0305,-0.009"
         style="opacity:1;fill:none;fill-rule:evenodd;stroke:#000000;stroke-width:1px;stroke-linecap:butt;stroke-linejoin:miter;stroke-opacity:1" />
      <path
         sodipodi:nodetypes="csscccc"
         inkscape:connector-curvature="0"
         id="path4268"
         d="m 193.66442,620.89955 c 4.03607,-2.59524 6.38484,-4.68954 10.11205,-4.78011 3.66639,-0.0891 7.64416,-0.52789 10.96703,0.25845 2.55952,0.60569 5.3196,2.47517 6.67985,4.20023 -2.71189,-0.092 -6.83839,3.54946 -10.11527,4.18467 -3.40996,0.6895 -7.19846,0.99433 -10.30189,-0.9275 -2.00258,-1.18072 -5.27018,-3.24153 -7.34177,-2.93574 z"
         style="opacity:1;fill:#ffe5ea;fill-opacity:1;fill-rule:evenodd;stroke:#000000;stroke-width:1px;stroke-linecap:butt;stroke-linejoin:miter;stroke-opacity:1" />
      <path
         sodipodi:nodetypes="caaac"
         inkscape:connector-curvature="0"
         id="path4270"
         d="m 194.71922,620.46714 c 2.8931,-0.673 4.59117,-0.84424 6.91409,-1.02282 1.95027,-0.14993 3.91192,-0.0349 5.86793,-0.0386 2.26038,-0.004 4.53037,-0.18969 6.78112,0.0188 2.18594,0.20248 4.37454,-0.27042 6.47715,1.19177"
         style="opacity:1;fill:none;fill-rule:evenodd;stroke:#000000;stroke-width:1px;stroke-linecap:butt;stroke-linejoin:miter;stroke-opacity:1" />
      <path
         inkscape:connector-curvature="0"
         id="path4272"
         d="m 288.54929,878.03226 c -3.19575,-3.2788 -3.31736,-8.1319 -4.79668,-12.2304 -2.01404,-8.102 -3.36467,-16.3576 -4.31481,-24.6458 0.056,-3.8628 -0.84759,-7.6606 -1.52749,-11.4147 0.14072,-3.8079 -2.70936,-7.59519 -1.02169,-11.32809 1.52826,-1.57397 4.12384,-1.96752 6.05156,-3.13586 3.0036,-1.38593 6.24549,-2.06512 9.39214,-3.02919 4.4218,-0.98148 8.9712,-1.29906 13.47218,-1.60008 3.35849,-0.18875 5.35454,3.05891 5.12319,6.06465 1.68767,5.09046 1.6365,10.51787 2.07781,15.79667 0.46919,2.9672 1.02313,5.9495 1.17773,8.938 0.93914,3.5983 0.31077,7.4482 1.60487,10.9793 0.67111,3.994 0.29326,8.0823 0.95285,12.0778 0.26408,5.2033 0.0309,10.4226 0.0443,15.6244 -0.83522,3.0618 -4.71472,2.0365 -7.05281,1.8981 -2.55898,-0.09 -4.93112,-0.1408 -7.45373,-0.535 -3.15045,-0.051 -6.50725,0.6873 -9.4666,-0.7499 -2.05007,0.1886 -2.34765,-2.5758 -4.26286,-2.7099 z"
         style="opacity:1;fill:#fff5f0;fill-opacity:1;fill-rule:evenodd;stroke:#000000;stroke-width:1px;stroke-linecap:butt;stroke-linejoin:miter;stroke-opacity:1" />
      <path
         sodipodi:nodetypes="cccsscscsssccccccccccccccccccccc"
         inkscape:connector-curvature="0"
         id="path4274"
         d="m 159.75432,650.74793 c -10.80845,2.6049 -20.42205,8.87239 -31.28906,11.49218 -9.61634,3.73394 -23.12402,4.69634 -28.31016,12.75235 -4.882625,7.12239 -12.001425,19.46043 -17.624115,30.38156 -5.62269,10.92114 -13.38811,25.94316 -23.28283,34.56528 -16.51355,14.38967 -16.09125,27.80389 -21.22004,35.87932 -1.7367,7.65111 9.76981,19.93991 11.00153,22.65237 1.23185,2.71275 12.83497,-0.36946 15.08887,1.7453 6.54706,0.85208 7.02524,1.68301 12.37654,0.31896 5.97207,-1.52228 13.01404,-8.21905 15.6275,-12.90425 5.55973,-9.96705 11.335345,-13.88046 19.180495,-29.05175 5.37407,-10.3926 8.01804,-17.62263 18.61453,-38.18792 -2.3623,41.76749 -7.24055,102.69225 -7.24055,102.69225 -1.75806,12.98098 1.02114,17.46408 1.31166,32.33818 -1.22543,7.5564 -0.61914,20.3594 -0.61914,20.3594 19.50597,0.366 55.53239,2.2456 70.5,0.07 16.54382,-1.532 30.67514,2.3825 46.26758,-0.5762 11.78739,-1.667 21.47319,-2.3721 30.57617,-8.1465 0.73131,-11.8132 -3.9889,-20.685 -2.29101,-31.5801 1.41446,-12.51073 -3.70382,-46.52442 -3.33594,-58.87413 1.08402,-21.84248 -3.43056,-54.44878 -3.47549,-55.67679 4.35705,48.17389 4.44465,84.7508 5.35635,90.51189 4.13838,14.02303 20.29622,7.06926 30.4375,5.99415 8.51197,0.85576 21.5203,-0.62489 16.79297,-12.36915 -3.64951,-9.27596 -1.47593,-19.87708 -5.0957,-29.36328 -2.18957,-13.70537 -3.39774,-27.53 -3.5293,-41.41015 -1.51285,-11.34889 -3.16563,-22.65268 -4.39649,-34.04492 0.97697,-11.59788 -9.76151,-18.29629 -16.16015,-26.22071 -9.74613,-6.91616 -41.98733,-23.95765 -47.72461,-18.4414 -3.73406,11.34981 -12.57341,21.33532 -24.26758,24.97461 -11.34242,5.79861 -23.0778,-4.30219 -32.24589,-8.67052 -8.98685,-5.49484 -12.48709,-15.42184 -21.02364,-21.21033 z"
         style="opacity:1;fill:#63bbff;fill-opacity:1;fill-rule:evenodd;stroke:#000000;stroke-width:1px;stroke-linecap:butt;stroke-linejoin:miter;stroke-opacity:1" />
      <path
         style="opacity:1;fill:#3a2920;fill-opacity:1;fill-rule:evenodd;stroke:#000000;stroke-width:1px;stroke-linecap:butt;stroke-linejoin:miter;stroke-opacity:1"
         d="m 222.9195,583.55384 c -1.68691,0.4355 -2.87741,2.81853 -1.61912,4.22943 1.61545,1.2336 4.14383,0.13643 4.85278,-1.62414 0.5204,-1.68963 -1.29461,-2.86598 -2.80812,-2.59564 l -0.213,-0.003 -0.21254,-0.006 0,0 z"
         id="path4276"
         inkscape:connector-curvature="0" />
      <path
         style="opacity:1;fill:#905d44;fill-opacity:1;fill-rule:evenodd;stroke:#000000;stroke-width:1px;stroke-linecap:butt;stroke-linejoin:miter;stroke-opacity:1"
         d="m 171.43084,587.31515 c -1.46391,-7.71303 -6.20656,-34.84186 4.38059,-48.38988 4.18012,-5.76407 10.2748,-9.98284 17.14987,-11.84113 7.44726,-1.77811 14.62954,-2.49107 21.62988,-0.94064 7.118,1.58029 13.74132,5.09195 18.66193,10.64755 10.22755,11.08304 8.97236,20.3845 8.44998,34.8735 -0.18853,5.2292 -2.56108,16.23459 -3.77285,22.5637 -1.20488,6.29317 -2.96738,14.42164 -4.06862,14.8353 -0.85337,-0.86236 0.8629,-7.11671 1.82629,-15.53465 0.96097,-8.39689 3.87904,-18.09451 3.02533,-24.91741 -0.80163,-6.40661 0.40829,-17.20721 -4.98389,-22.82685 -4.00577,-4.17475 -11.01824,-4.79631 -16.79035,-4.39959 -9.14568,0.62858 -21.35935,10.03519 -25.39974,10.54515 -4.67174,-0.68956 -1.74455,-7.83054 -4.95325,-9.13623 -2.50214,-1.01818 -5.8334,0.48911 -7.73956,2.40325 -5.08105,5.1023 -5.48261,13.50516 -6.31992,20.65705 -0.74555,6.36816 0.6144,12.81346 1.2266,19.19582 0.71487,7.45275 4.15294,20.58636 2.85475,22.27872 -2.10449,-1.05224 -3.90385,-13.3055 -5.17704,-20.01366 z"
         id="path4308"
         inkscape:connector-curvature="0"
         sodipodi:nodetypes="sccccsscssaacaaaacs" />
      <path
         sodipodi:nodetypes="cc"
         inkscape:connector-curvature="0"
         id="path4310"
         d="m 193.78443,546.67358 c 6.04809,-5.17757 20.56301,-12.63614 34.10714,-8.92857"
         style="opacity:1;fill:none;fill-rule:evenodd;stroke:#000000;stroke-width:1px;stroke-linecap:butt;stroke-linejoin:miter;stroke-opacity:1" />
      <path
         style="opacity:1;fill:none;fill-rule:evenodd;stroke:#000000;stroke-width:1px;stroke-linecap:butt;stroke-linejoin:miter;stroke-opacity:1"
         d="m 192.55926,541.56816 c 5.68097,-5.57793 15.54637,-11.15175 28.86537,-9.00136"
         id="path4374"
         inkscape:connector-curvature="0"
         sodipodi:nodetypes="cc" />
      <path
         sodipodi:nodetypes="cc"
         inkscape:connector-curvature="0"
         id="path4376"
         d="m 188.50536,538.93652 c 4.60017,-5.27324 13.60832,-10.16688 22.37465,-10.57905"
         style="opacity:1;fill:none;fill-rule:evenodd;stroke:#000000;stroke-width:1px;stroke-linecap:butt;stroke-linejoin:miter;stroke-opacity:1" />
      <path
         sodipodi:nodetypes="ccscscccccccc"
         inkscape:connector-curvature="0"
         id="path4439"
         d="m 145.65943,754.62001 c -14.74177,0.33683 -29.0073,5.47858 -43.83978,4.44082 -8.486495,-0.0393 -16.251015,-4.01292 -24.376555,-5.97642 -7.9572,-1.92282 -16.68469,1.91365 -22.39555,8.29712 -3.87809,6.01271 -11.28852,9.78596 -14.93281,15.57631 -4.2841,6.80695 2.26261,11.96591 4.86785,18.78197 4.35357,8.94151 6.98993,4.53446 16.17421,5.23969 12.27642,2.51269 23.89898,1.2057 35.03931,1.12353 11.230115,-0.73399 20.968685,-9.05237 31.046635,-13.21888 6.75896,-4.15238 14.16179,-6.863 21.46961,-9.80618 5.87085,-3.10447 11.77363,-6.0856 18.02131,-8.21656 6.75615,-1.64799 12.73279,-10.35723 3.39005,-13.38426 -9.58301,-6.87173 -19.89049,-4.90285 -24.46428,-2.85714 z"
         style="opacity:1;fill:#fff5f0;fill-opacity:1;fill-rule:evenodd;stroke:#000000;stroke-width:1px;stroke-linecap:butt;stroke-linejoin:miter;stroke-opacity:1" />
      <path
         sodipodi:nodetypes="cccccc"
         inkscape:connector-curvature="0"
         id="path4447"
         d="m 173.87371,721.5843 c 6.08369,-5.4986 7.67443,-14.06026 14.03424,-18.90463 3.26384,-5.71566 7.91306,-11.8987 7.90123,-19.00159 7.42551,-4.91548 8.98448,8.40347 6.53599,13.2095 -3.34391,8.23699 -8.57583,15.4878 -13.82608,22.58514 -7.58378,12.03308 -12.06277,11.73773 -14.64538,2.11158 z"
         style="opacity:1;fill:#fff5f0;fill-opacity:1;fill-rule:evenodd;stroke:#000000;stroke-width:1px;stroke-linecap:butt;stroke-linejoin:miter;stroke-opacity:1" />
      <path
         sodipodi:nodetypes="cccc"
         inkscape:connector-curvature="0"
         id="path4443"
         d="m 173.90404,718.4511 c 13.48239,1.43879 21.09481,1.38536 17.17608,12.43189 -4.34942,5.4407 -25.42074,3.0119 -19.53161,-5.55506 1.67865,-1.16728 0.73415,-5.77465 2.35553,-6.87683 z"
         style="opacity:1;fill:#fff5f0;fill-opacity:1;fill-rule:evenodd;stroke:#000000;stroke-width:1px;stroke-linecap:butt;stroke-linejoin:miter;stroke-opacity:1" />
      <path
         sodipodi:nodetypes="cscscccsccc"
         inkscape:connector-curvature="0"
         id="path4441"
         d="m 136.97071,761.37509 c 2.42223,-6.84243 5.42567,-13.91275 7.11717,-21.16193 2.50352,-10.72919 7.68906,-17.56783 14.46862,-20.3301 4.25773,-3.20418 8.73344,-2.98312 13.08119,-1.82872 5.90155,1.56696 14.91084,3.97231 15.74406,10.54088 -3.0855,5.10529 1.88299,2.31268 5.28216,5.86418 6.01038,3.10541 10.94897,10.99922 3.2462,17.59037 -4.78739,6.57642 -9.88275,8.82648 -14.51268,12.95506 -4.39219,3.91659 -8.59821,5.43961 -16.3686,5.04546 -6.79906,-1.86465 -9.72176,6.30023 -18.79148,3.4135 l -0.93507,0.44194"
         style="opacity:1;fill:#fff5f0;fill-opacity:1;fill-rule:evenodd;stroke:#000000;stroke-width:1px;stroke-linecap:butt;stroke-linejoin:miter;stroke-opacity:1" />
      <path
         sodipodi:nodetypes="ccc"
         inkscape:connector-curvature="0"
         id="path4449"
         d="m 187.86541,732.70989 c -7.3685,2.46519 5.89728,12.13933 4.37949,2.0039 -1.07813,-1.8247 -1.87977,-1.92944 -4.37949,-2.0039 z"
         style="opacity:1;fill:#fff5f0;fill-opacity:1;fill-rule:evenodd;stroke:#000000;stroke-width:1px;stroke-linecap:butt;stroke-linejoin:miter;stroke-opacity:1" />
      <path
         sodipodi:nodetypes="ccc"
         inkscape:connector-curvature="0"
         id="path4451"
         d="m 185.12371,736.22715 c -3.60476,6.36132 5.9763,8.70489 -1.99416,10.68481 -1.06078,0.21622 -3.14523,1.02178 -3.54155,-0.50623"
         style="opacity:1;fill:#fff5f0;fill-opacity:1;fill-rule:evenodd;stroke:#000000;stroke-width:1px;stroke-linecap:butt;stroke-linejoin:miter;stroke-opacity:1" />
      <path
         sodipodi:nodetypes="ccc"
         inkscape:connector-curvature="0"
         id="path4453"
         d="m 173.65739,725.81771 c 4.85745,7.00787 14.83967,4.99305 9.80497,13.21073 -2.25327,3.08444 -4.62465,13.51328 -9.2315,9.163"
         style="opacity:1;fill:#fff5f0;fill-opacity:1;fill-rule:evenodd;stroke:#000000;stroke-width:1px;stroke-linecap:butt;stroke-linejoin:miter;stroke-opacity:1" />
      <path
         sodipodi:nodetypes="cccc"
         inkscape:connector-curvature="0"
         id="path4455"
         d="m 163.31448,730.10342 c 5.41728,5.67377 15.20855,3.74101 11.80549,15.50243 0.8119,12.0589 -8.07487,8.23746 -14.4463,6.82293 -5.8602,-2.36375 1.66598,-10.56175 3.02147,-4.05877"
         style="opacity:1;fill:#fff5f0;fill-opacity:1;fill-rule:evenodd;stroke:#000000;stroke-width:1px;stroke-linecap:butt;stroke-linejoin:miter;stroke-opacity:1" />
      <path
         sodipodi:nodetypes="cc"
         inkscape:connector-curvature="0"
         id="path4457"
         d="m 153.69514,741.22715 c 2.40371,1.16173 8.85358,2.67218 8.88896,4.86662"
         style="opacity:1;fill:#fff5f0;fill-opacity:1;fill-rule:evenodd;stroke:#000000;stroke-width:1px;stroke-linecap:butt;stroke-linejoin:miter;stroke-opacity:1" />
      <path
         sodipodi:nodetypes="cc"
         inkscape:connector-curvature="0"
         id="path4459"
         d="m 157.62371,737.47715 c 5.48309,7.13812 3.40391,9.95248 9.28572,6.96429"
         style="opacity:1;fill:#fff5f0;fill-opacity:1;fill-rule:evenodd;stroke:#000000;stroke-width:1px;stroke-linecap:butt;stroke-linejoin:miter;stroke-opacity:1" />
      <path
         inkscape:connector-curvature="0"
         id="path4461"
         d="m 163.15943,754.79858 c -2.13326,2.74239 -3.55672,7.03669 -5.53572,9.28572"
         style="opacity:1;fill:#fff5f0;fill-opacity:1;fill-rule:evenodd;stroke:#000000;stroke-width:1px;stroke-linecap:butt;stroke-linejoin:miter;stroke-opacity:1" />
      <path
         inkscape:connector-curvature="0"
         id="path4463"
         d="m 164.588,755.87001 c -0.0276,2.69976 0.68159,5.34018 0.71428,8.03572"
         style="opacity:1;fill:#fff5f0;fill-opacity:1;fill-rule:evenodd;stroke:#000000;stroke-width:1px;stroke-linecap:butt;stroke-linejoin:miter;stroke-opacity:1" />
      <g
         transform="matrix(0.99702142,0.07712513,-0.07712513,0.99702142,-440.76473,-88.043878)"
         id="g4537"
         style="opacity:1">
        <path
           sodipodi:nodetypes="czcczcc"
           inkscape:connector-curvature="0"
           id="path4529"
           d="m 674.48196,703.83565 c 0,0 15.1981,-3.786 22.86825,-4.14051 7.67016,-0.35451 23.15269,2.01345 23.15269,2.01345 l 0.20405,4.4148 c 0,0 -15.48253,-2.36796 -23.15269,-2.01345 -7.67015,0.35451 -22.86825,4.14051 -22.86825,4.14051 z"
           style="opacity:1;fill:#00ffef;fill-opacity:1;stroke:none;stroke-width:0.2;stroke-miterlimit:4;stroke-dasharray:none;stroke-opacity:1" />
        <path
           inkscape:transform-center-y="-3.6483547"
           transform="matrix(0.82510434,0.18071214,-0.07919793,0.36160579,464.93068,353.31607)"
           inkscape:transform-center-x="-5.9175721"
           d="m 383.02504,794.34935 0,-16.72624 0,-16.72625 14.48536,8.36313 14.48535,8.36312 -14.48535,8.36312 z"
           inkscape:randomized="0"
           inkscape:rounded="0"
           inkscape:flatsided="false"
           sodipodi:arg2="3.1415927"
           sodipodi:arg1="2.0943951"
           sodipodi:r2="9.6569014"
           sodipodi:r1="19.313803"
           sodipodi:cy="777.62311"
           sodipodi:cx="392.68195"
           sodipodi:sides="3"
           id="path4531"
           style="opacity:1;fill:#00ffef;fill-opacity:1;stroke:none;stroke-width:0.2;stroke-miterlimit:4;stroke-dasharray:none;stroke-opacity:1"
           sodipodi:type="star" />
        <path
           sodipodi:type="star"
           style="opacity:1;fill:#00ffef;fill-opacity:1;stroke:none;stroke-width:0.2;stroke-miterlimit:4;stroke-dasharray:none;stroke-opacity:1"
           id="path4535"
           sodipodi:sides="3"
           sodipodi:cx="392.68195"
           sodipodi:cy="777.62311"
           sodipodi:r1="19.313803"
           sodipodi:r2="9.6569014"
           sodipodi:arg1="2.0943951"
           sodipodi:arg2="3.1415927"
           inkscape:flatsided="false"
           inkscape:rounded="0"
           inkscape:randomized="0"
           d="m 383.02504,794.34935 0,-16.72624 0,-16.72625 14.48536,8.36313 14.48535,8.36312 -14.48535,8.36312 z"
           inkscape:transform-center-x="4.9820395"
           transform="matrix(-0.82765892,0.16862608,-0.07390116,-0.36272534,1051.0741,923.2349)"
           inkscape:transform-center-y="1.1625171" />
      </g>
      <text
         xml:space="preserve"
         style="font-style:normal;font-weight:normal;font-size:40px;line-height:125%;font-family:sans-serif;letter-spacing:0px;word-spacing:0px;opacity:1;fill:#000000;fill-opacity:1;stroke:none;stroke-width:1px;stroke-linecap:butt;stroke-linejoin:miter;stroke-opacity:1"
         x="225.20346"
         y="721.40234"
         id="text4542"
         sodipodi:linespacing="125%"><tspan
           sodipodi:role="line"
           id="tspan4544"
           x="225.20346"
           y="721.40234"
           style="fill:#00ffef;fill-opacity:1">X 2</tspan></text>
    </g>
    <text
       xml:space="preserve"
       style="font-style:normal;font-weight:normal;font-size:40px;line-height:125%;font-family:sans-serif;letter-spacing:0px;word-spacing:0px;fill:#000000;fill-opacity:1;stroke:none;stroke-width:1px;stroke-linecap:butt;stroke-linejoin:miter;stroke-opacity:1"
       x="22.05871"
       y="974.56897"
       id="text5980"
       sodipodi:linespacing="125%"><tspan
         sodipodi:role="line"
         id="tspan5982"
         x="22.05871"
         y="974.56897"
         style="font-style:normal;font-variant:normal;font-weight:bold;font-stretch:normal;font-family:sans-serif;-inkscape-font-specification:'sans-serif Bold'">Non</tspan></text>
    <text
       xml:space="preserve"
       style="font-style:normal;font-weight:normal;font-size:40px;line-height:125%;font-family:sans-serif;letter-spacing:0px;word-spacing:0px;fill:#000000;fill-opacity:1;stroke:none;stroke-width:1px;stroke-linecap:butt;stroke-linejoin:miter;stroke-opacity:1"
       x="24.326777"
       y="1015.8096"
       id="text5984"
       sodipodi:linespacing="125%"><tspan
         sodipodi:role="line"
         id="tspan5986"
         x="24.326777"
         y="1015.8096"
         style="font-size:25px">Configurations : </tspan></text>
    <text
       xml:space="preserve"
       style="font-style:normal;font-weight:normal;font-size:40px;line-height:125%;font-family:sans-serif;letter-spacing:0px;word-spacing:0px;fill:#000000;fill-opacity:1;stroke:none;stroke-width:1px;stroke-linecap:butt;stroke-linejoin:miter;stroke-opacity:1"
       x="308.81357"
       y="1023.4927"
       id="text6291"
       sodipodi:linespacing="125%"><tspan
         sodipodi:role="line"
         id="tspan6293"
         x="308.81357"
         y="1023.4927">D</tspan></text>
    <g
       id="g4389"
       transform="translate(-206.71885,251.06232)">
      <path
         sodipodi:nodetypes="cccccscc"
         inkscape:connector-curvature="0"
         id="path4285"
         d="m 521.5774,729.33483 c 0.22013,-17.35154 -4.60373,-8.95351 -6.73081,-19.36587 -1.07659,-18.66385 -2.12609,-24.12902 5.59217,-22.62242 1.99613,-7.67758 8.55018,-4.13276 8.55018,-4.13276 1.95751,-2.18207 3.269,-3.43064 6.73522,-2.45394 -0.24324,-17.95698 -0.60837,-23.15131 4.13952,-23.30778 4.267,-0.14063 4.32672,8.4402 4.729,24.25242 0.88713,12.58666 1.26828,17.43579 1.60592,21.93773"
         style="fill:none;fill-rule:evenodd;stroke:#000000;stroke-width:1px;stroke-linecap:butt;stroke-linejoin:miter;stroke-opacity:1" />
      <path
         sodipodi:nodetypes="cccccc"
         inkscape:connector-curvature="0"
         id="path4287"
         d="m 539.76368,729.52872 c -1.74439,-13.92694 10.90895,-12.71437 6.33929,-25.98214 -4.29916,-11.25731 -6.67089,-6.04126 -10.69107,-6.13554 -6.87731,0.5307 -6.4746,4.3239 -6.4746,4.3239 0.35928,1.93316 4.31945,2.85929 8.9023,3.05434 1.54714,1.17721 1.5741,3.76622 -0.75449,3.668"
         style="fill:none;fill-rule:evenodd;stroke:#000000;stroke-width:1px;stroke-linecap:butt;stroke-linejoin:miter;stroke-opacity:1" />
      <path
         sodipodi:nodetypes="cc"
         inkscape:connector-curvature="0"
         id="path4289"
         d="m 529.22797,700.42157 c 0,0 6.35945,0.72977 4.64285,-2.67857"
         style="fill:none;fill-rule:evenodd;stroke:#000000;stroke-width:1px;stroke-linecap:butt;stroke-linejoin:miter;stroke-opacity:1" />
      <path
         sodipodi:nodetypes="cc"
         inkscape:connector-curvature="0"
         id="path4291"
         d="m 533.24582,704.08229 c -4.87425,3.38953 -4.19836,9.12405 -3.57142,13.57143"
         style="fill:none;fill-rule:evenodd;stroke:#000000;stroke-width:1px;stroke-linecap:butt;stroke-linejoin:miter;stroke-opacity:1" />
      <path
         sodipodi:nodetypes="cc"
         inkscape:connector-curvature="0"
         id="path4293"
         d="m 535.68269,681.04658 c 10e-4,4.75646 0.595,11.34864 0.89286,16.25635"
         style="fill:none;fill-rule:evenodd;stroke:#000000;stroke-width:1px;stroke-linecap:butt;stroke-linejoin:miter;stroke-opacity:1" />
      <path
         sodipodi:nodetypes="cc"
         inkscape:connector-curvature="0"
         id="path4295"
         d="m 528.77071,683.25071 c -0.24841,3.98968 0.60105,11.41677 2.03918,14.99475"
         style="fill:none;fill-rule:evenodd;stroke:#000000;stroke-width:1px;stroke-linecap:butt;stroke-linejoin:miter;stroke-opacity:1" />
      <path
         sodipodi:nodetypes="cc"
         inkscape:connector-curvature="0"
         id="path4297"
         d="m 520.41932,687.35878 c -0.0179,4.59677 1.67618,19.9122 9.0765,14.40208"
         style="fill:none;fill-rule:evenodd;stroke:#000000;stroke-width:1px;stroke-linecap:butt;stroke-linejoin:miter;stroke-opacity:1" />
      <path
         sodipodi:nodetypes="cc"
         inkscape:connector-curvature="0"
         id="path4299"
         d="m 514.14766,696.76984 c 0.55114,5.64778 6.3567,12.10171 10.34816,5.16959"
         style="fill:none;fill-rule:evenodd;stroke:#000000;stroke-width:1px;stroke-linecap:butt;stroke-linejoin:miter;stroke-opacity:1" />
    </g>
  </g>
</svg>
