<?xml version="1.0" encoding="UTF-8" standalone="no"?>
<!-- Created with Inkscape (http://www.inkscape.org/) -->

<svg
   xmlns:dc="http://purl.org/dc/elements/1.1/"
   xmlns:cc="http://creativecommons.org/ns#"
   xmlns:rdf="http://www.w3.org/1999/02/22-rdf-syntax-ns#"
   xmlns:svg="http://www.w3.org/2000/svg"
   xmlns="http://www.w3.org/2000/svg"
   xmlns:xlink="http://www.w3.org/1999/xlink"
   xmlns:sodipodi="http://sodipodi.sourceforge.net/DTD/sodipodi-0.dtd"
   xmlns:inkscape="http://www.inkscape.org/namespaces/inkscape"
   width="105mm"
   height="148mm"
   viewBox="0 0 372.04724 524.40945"
   id="svg6324"
   version="1.1"
   inkscape:version="0.91 r13725"
   sodipodi:docname="Signer.svg">
  <defs
     id="defs6326">
    <linearGradient
       gradientTransform="translate(-11.478364,-34.295504)"
       inkscape:collect="always"
       xlink:href="#linearGradient5029"
       id="linearGradient5035"
       x1="327.79449"
       y1="678.60577"
       x2="327.79453"
       y2="707.90021"
       gradientUnits="userSpaceOnUse" />
    <linearGradient
       inkscape:collect="always"
       id="linearGradient5029">
      <stop
         style="stop-color:#00ffef;stop-opacity:1"
         offset="0"
         id="stop5031" />
      <stop
         style="stop-color:#a900ff;stop-opacity:1"
         offset="1"
         id="stop5033" />
    </linearGradient>
    <linearGradient
       inkscape:collect="always"
       xlink:href="#linearGradient5029"
       id="linearGradient6279"
       x1="327.79449"
       y1="678.60577"
       x2="327.79453"
       y2="707.90021"
       gradientUnits="userSpaceOnUse" />
  </defs>
  <sodipodi:namedview
     id="base"
     pagecolor="#ffffff"
     bordercolor="#666666"
     borderopacity="1.0"
     inkscape:pageopacity="0.0"
     inkscape:pageshadow="2"
     inkscape:zoom="0.98994949"
     inkscape:cx="441.63515"
     inkscape:cy="185.07973"
     inkscape:document-units="px"
     inkscape:current-layer="layer1"
     showgrid="false"
     inkscape:window-width="1680"
     inkscape:window-height="1022"
     inkscape:window-x="0"
     inkscape:window-y="28"
     inkscape:window-maximized="1" />
  <metadata
     id="metadata6329">
    <rdf:RDF>
      <cc:Work
         rdf:about="">
        <dc:format>image/svg+xml</dc:format>
        <dc:type
           rdf:resource="http://purl.org/dc/dcmitype/StillImage" />
        <dc:title />
      </cc:Work>
    </rdf:RDF>
  </metadata>
  <g
     inkscape:label="Calque 1"
     inkscape:groupmode="layer"
     id="layer1"
     transform="translate(0,-527.95276)">
    <g
       id="g7039">
      <path
         sodipodi:nodetypes="ccccccccccccc"
         inkscape:connector-curvature="0"
         id="path4573"
         d="m 134.23592,674.1381 c -4.36785,12.0813 -3.85421,46.93537 -21.88669,26.5482 -17.229902,-8.82447 -36.317311,-30.84787 -56.596361,-28.74162 -13.251056,12.43488 -30.034044,17.92891 -40.504803,37.60482 -7.0252001,15.612 -13.2039901,34.06935 -7.1780901,51.82939 6.7420501,14.95159 8.5392101,19.83901 15.4450561,33.32918 0.606054,19.19639 5.852752,51.64179 6.073821,67.88327 14.400506,9.11845 35.042106,11.67671 53.026956,17.8251 30.539041,5.82511 65.457521,8.35495 93.601501,-8.32597 3.30195,-19.16513 3.65244,-47.19423 1.45272,-68.47288 12.086,-4.49293 25.19687,-15.57981 30.60094,-26.20315 -4.29701,-25.70295 -12.17387,-52.99589 -26.41653,-72.57218 -10.05661,-17.21031 -28.41447,-28.66913 -47.61852,-30.70416 z"
         style="opacity:1;fill:#ff9e6f;fill-opacity:1;fill-rule:evenodd;stroke:#000000;stroke-width:1px;stroke-linecap:butt;stroke-linejoin:miter;stroke-opacity:1" />
      <g
         id="g4589"
         style="opacity:1;fill:#fff5f0;fill-opacity:1"
         transform="translate(-110.11178,-81.667695)">
        <path
           sodipodi:nodetypes="cccccccc"
           inkscape:connector-curvature="0"
           id="path4591"
           d="m 257.67857,691.02289 c 0.80333,-2.98751 0.17198,-7.146 3.12497,-8.67465 3.43227,-1.58899 3.15969,1.39396 3.73629,3.93231 1.2597,3.82115 -0.45906,9.69576 -1.64122,13.70071 -1.81478,3.32744 -0.62473,7.63788 -3.06728,9.03772 -1.02087,4.02932 -5.1765,3.52095 -4.26848,-0.49051 0.021,-2.89189 1.10284,-5.64983 0.99762,-8.56091 0.17755,-2.99502 1.39324,-5.93507 1.1181,-8.94467 z"
           style="fill:#fff5f0;fill-opacity:1;fill-rule:evenodd;stroke:#000000;stroke-width:1px;stroke-linecap:butt;stroke-linejoin:miter;stroke-opacity:1" />
        <path
           style="fill:#fff5f0;fill-opacity:1;fill-rule:evenodd;stroke:#000000;stroke-width:1px;stroke-linecap:butt;stroke-linejoin:miter;stroke-opacity:1"
           d="m 256.10135,703.12112 c 1.85325,0.13014 3.89056,-1.06224 4.27496,-2.95872 0.58052,-1.89977 1.01968,-4.0278 0.27515,-5.9369 -0.0503,-0.36054 -0.65667,-0.66596 -0.64162,-0.91067"
           id="path4593"
           inkscape:connector-curvature="0" />
      </g>
      <path
         sodipodi:nodetypes="czcccccccccccczccccccc"
         inkscape:connector-curvature="0"
         id="path4627"
         d="m 58.234739,676.98627 c 4.48308,-5.83702 10.39433,-10.33803 13.12616,-13.07343 2.73184,-2.73539 5.9606,-5.28156 7.09761,-9.90286 1.1892,-4.00843 1.61706,-15.46293 0.91418,-19.49691 -8.36672,-4.23067 -9.08258,-14.96162 -11.4734,-21.26973 -1.81392,-6.60681 4.83848,-15.89593 10.12866,-8.75805 -0.26327,-6.51782 -1.06027,-14.69276 0.41092,-21.05997 0.17864,-7.30623 4.54281,-13.58969 10.618499,-17.32293 6.07649,-3.94097 13.188072,-5.77844 20.406022,-5.89248 10.43426,-0.45393 21.56461,-2.49321 31.41704,1.97899 6.66188,3.47005 8.51517,11.98364 10.3857,18.70763 2.02951,6.94705 0.15776,13.67348 -0.92777,20.39674 1.28547,6.49437 0.65779,12.54944 -0.0277,19.08988 0.42584,5.44928 0.13918,11.37296 -2.39019,16.606 -2.25111,7.63227 -5.50011,14.23607 -6.41168,17.35073 -0.91157,3.11465 -3.74347,8.08105 -7.02137,10.09394 -2.8657,10.82425 1.15756,21.38506 1.26472,28.18142 1.10966,5.67533 -0.22679,11.77171 -5.18747,15.20155 -4.76164,4.76183 -11.71809,6.07542 -18.14456,4.84833 -10.59592,-0.83343 -20.819992,-4.39009 -30.603621,-8.39131 -8.88337,-4.36419 -17.13775,-10.88576 -22.04482,-19.59986 -0.67886,-2.8323 -2.30161,-5.38896 -1.53693,-7.68768 z"
         style="opacity:1;fill:#fff5f0;fill-opacity:1;fill-rule:evenodd;stroke:#000000;stroke-width:1px;stroke-linecap:butt;stroke-linejoin:miter;stroke-opacity:1" />
      <path
         sodipodi:nodetypes="cccccccccc"
         inkscape:connector-curvature="0"
         id="path4578"
         d="m 45.664494,708.42382 c 7.568145,6.47306 15.018885,8.91627 20.544095,17.7944 6.23634,7.19577 10.71434,14.74833 13.99203,23.74785 4.5848,10.35201 11.922569,20.21305 16.626989,30.49478 2.95455,10.5553 7.242642,16.21069 10.256402,30.29883 -4.31598,5.00695 -8.328312,16.76843 -11.702342,22.29571 -6.74766,11.31338 -6.948769,26.10055 -6.60794,39.32148 -10.409509,-5.42126 -23.987119,-19.18478 -33.324799,-28.77556 -11.455474,-19.50397 -18.214803,-27.55873 -30.167172,-46.7843 -2.035498,-1.3319 0.366342,-0.21681 -1.402977,-1.60748"
         style="opacity:1;fill:none;fill-rule:evenodd;stroke:#000000;stroke-width:1px;stroke-linecap:butt;stroke-linejoin:miter;stroke-opacity:1" />
      <path
         sodipodi:nodetypes="cccccccccccccccccccc"
         inkscape:connector-curvature="0"
         id="path4641"
         d="m 86.748199,613.82708 c -0.31782,-4.94721 -3.34807,-8.77706 -0.72305,-13.51458 1.92524,-6.06684 0.15567,-14.4823 -1.31895,-20.36427 -0.28594,-7.06294 3.918809,-10.07755 9.761409,-12.66531 6.525812,-2.3164 21.495782,4.95762 28.493792,5.31323 8.59821,0.005 8.7734,-7.79538 17.09648,-4.95502 5.11241,3.78706 7.68891,11.49654 8.94677,17.37629 1.71259,7.31606 0.67746,16.14697 1.81835,19.19272 0.38529,4.3257 1.00298,2.37539 1.1204,-1.82481 1.51055,-6.05051 0.39769,-10.03127 0.58174,-17.10637 0.59125,-5.55188 -0.34878,-12.85057 -1.50752,-16.88707 -0.54819,-4.51527 -2.19654,-8.7681 -6.96958,-13.29978 -6.81395,-7.39926 -15.9416,-12.97245 -25.24542,-12.60335 -7.28775,-2.21879 -20.413012,1.21054 -27.483252,3.11283 -9.962926,3.42854 -15.990668,12.96413 -19.519509,20.0393 -2.49464,6.14585 -3.62717,14.39793 -2.08417,20.96408 0.90172,5.05253 -0.8295,13.17575 1.47834,16.20184 3.81669,-1.89869 7.34229,3.35164 10.4879,7.73351 0.72356,1.97804 1.25095,3.61407 2.11988,5.69748 0,0 2.93193,0.19302 2.94639,-2.41072 z"
         style="opacity:1;fill:#fff5ac;fill-opacity:1;fill-rule:evenodd;stroke:#000000;stroke-width:1px;stroke-linecap:butt;stroke-linejoin:miter;stroke-opacity:1" />
      <path
         sodipodi:nodetypes="ccccccccccccccccscccccczccccc"
         inkscape:connector-curvature="0"
         id="path4687"
         d="m 263.95275,794.72612 c 10.27862,-7.07688 15.74634,-6.10236 22.38642,-10.24356 9.84652,-5.18567 16.95438,-18.81351 20.2869,-16.82007 1.73982,2.84291 2.79138,12.87516 -4.09664,17.33257 -4.51899,5.0011 -9.75264,5.44993 -9.03474,13.25141 2.87311,6.25803 9.3752,9.91082 14.64439,13.81088 5.54179,3.72475 12.62172,5.99604 18.57518,8.56535 5.80617,2.22823 11.83754,4.3259 17.01658,7.8788 4.56295,7.29727 -2.89215,7.20975 -8.60997,5.64536 -7.82524,-2.22854 -21.36753,-9.39549 -26.23493,-8.32544 0.97877,3.86465 12.18303,8.96166 16.95156,13.09073 5.67638,4.37187 12.16193,7.1586 15.50993,13.75948 -3.19316,7.6424 -13.67512,0.19472 -18.67332,-3.77989 -5.62137,-3.74928 -10.47514,-10.06249 -16.71499,-11.23269 1.77194,3.67773 6.5083,6.81954 9.16939,9.17965 5.47319,5.48378 16.01148,13.21114 14.28514,16.44351 -4.2823,5.73344 -16.13835,-6.19359 -19.91746,-9.9377 -4.56778,-4.5255 -10.79173,-12.68898 -15.08169,-12.06355 -1.28943,3.06702 5.53007,10.067 8.71132,15.42194 2.40194,3.80453 10.78672,12.91895 1.42063,11.24162 -6.01986,-1.41547 -8.86511,-7.52148 -12.86668,-12.64429 -2.14908,-5.55146 -5.96016,-12.29635 -11.67923,-15.1362 -5.56529,-3.26919 -19.45961,-11.86464 -25.25824,-15.99943 -15.80716,1.4108 -29.70595,-0.25309 -42.91079,-2.53547 -13.20485,-2.28237 -29.40632,-10.31871 -38.62591,-19.01369 -5.34254,-6.37234 0.87804,-9.85759 6.86473,-16.0542 5.02458,-5.80578 10.44213,-11.40595 16.32541,-16.25212 9.04605,5.91777 21.60397,10.75596 36.3089,17.06222 14.08859,5.67377 26.68689,6.44648 31.24811,7.35478 z"
         style="opacity:1;fill:#fff5f0;fill-opacity:1;fill-rule:evenodd;stroke:#000000;stroke-width:1px;stroke-linecap:butt;stroke-linejoin:miter;stroke-opacity:1" />
      <path
         style="opacity:1;fill:#ffffff;fill-opacity:1;fill-rule:evenodd;stroke:#000000;stroke-width:1px;stroke-linecap:butt;stroke-linejoin:miter;stroke-opacity:1"
         d="m 99.888858,607.89335 c 1.917472,-2.3574 4.860042,-3.84425 7.881012,-4.07239 1.74184,-0.11312 3.58839,0.45308 4.7373,1.81814 0.8208,0.57648 0.56019,1.6092 -0.0116,2.25876 -1.30907,1.75146 -3.63083,2.23107 -5.69856,2.27492 -2.25994,0.0164 -4.56292,-0.57219 -6.40042,-1.9238 -0.17077,-0.11634 -0.33978,-0.23525 -0.507722,-0.35563 z"
         id="path4595"
         inkscape:connector-curvature="0" />
      <path
         style="opacity:1;fill:#4e6e7e;fill-opacity:1;fill-rule:evenodd;stroke:#000000;stroke-width:1px;stroke-linecap:butt;stroke-linejoin:miter;stroke-opacity:1"
         d="m 105.78172,604.94693 c -1.68691,0.4355 -2.87741,2.81853 -1.61912,4.22943 1.61545,1.2336 4.14383,0.13643 4.85278,-1.62414 0.5204,-1.68963 -1.29461,-2.86598 -2.80812,-2.59564 l -0.213,-0.003 -0.21254,-0.006 0,0 z"
         id="path4597"
         inkscape:connector-curvature="0" />
      <path
         style="opacity:1;fill:#ffffff;fill-opacity:1;fill-rule:evenodd;stroke:#000000;stroke-width:1px;stroke-linecap:butt;stroke-linejoin:miter;stroke-opacity:1"
         d="m 133.72814,607.62549 c 1.06388,-1.98517 3.00703,-2.05827 5.04069,-2.43408 2.72876,-0.48715 4.76828,0.50098 6.01454,3.05844 -1.90619,1.19119 -2.04236,2.28503 -4.47838,2.53741 -2.43602,0.25238 -5.36399,-0.83761 -6.57685,-3.16177 z"
         id="path4599"
         inkscape:connector-curvature="0"
         sodipodi:nodetypes="ccczc" />
      <path
         sodipodi:nodetypes="czczcc"
         style="opacity:1;fill:#fff5ac;fill-opacity:1;fill-rule:evenodd;stroke:#000000;stroke-width:1px;stroke-linecap:butt;stroke-linejoin:miter;stroke-opacity:1"
         d="m 132.1637,602.44359 c -1.07071,-3.4509 2.36593,-4.08487 5.44586,-4.14413 3.07992,-0.0592 8.23331,2.47416 8.50553,5.26633 -1.65932,-1.27454 -4.43848,-2.72647 -7.40432,-2.42449 -2.96587,0.30196 -3.36863,0.43682 -6.26105,1.55891 z"
         id="path4601"
         inkscape:connector-curvature="0" />
      <path
         sodipodi:nodetypes="czczccc"
         style="opacity:1;fill:#fff5ac;fill-opacity:1;fill-rule:evenodd;stroke:#000000;stroke-width:1px;stroke-linecap:butt;stroke-linejoin:miter;stroke-opacity:1"
         d="m 117.92841,602.26458 c -4.06013,1.5512 -6.0527,-0.93954 -11.0152,-0.15972 -4.96251,0.77982 -10.435092,3.36385 -10.435092,3.36385 1.95246,-1.85194 5.526892,-4.94954 9.485482,-5.5996 3.95856,-0.65007 7.36052,-0.92027 10.63363,0.34191 0.74404,0.39692 1.54261,1.11448 1.33118,2.05353 z"
         id="path4603"
         inkscape:connector-curvature="0" />
      <path
         sodipodi:nodetypes="ccsc"
         style="opacity:1;fill:none;fill-rule:evenodd;stroke:#000000;stroke-width:1px;stroke-linecap:butt;stroke-linejoin:miter;stroke-opacity:1"
         d="m 121.04957,628.42906 c 4.3165,0.13947 5.37786,2.69506 7.06442,3.79953 1.57171,0.98545 3.58285,0.50963 5.03605,-0.52002 1.73964,-1.23261 1.35601,-3.80756 -0.18666,-5.91055"
         id="path4607"
         inkscape:connector-curvature="0" />
      <path
         inkscape:transform-center-y="-1.3005471"
         inkscape:transform-center-x="-4.7212593"
         style="opacity:1;fill:none;fill-rule:evenodd;stroke:#000000;stroke-width:1px;stroke-linecap:butt;stroke-linejoin:miter;stroke-opacity:1"
         d="m 117.88913,626.84733 c -0.15316,2.01867 1.13793,5.11374 3.33147,4.34023 l 0.0393,-0.0365 0.0231,-0.0219"
         id="path4609"
         inkscape:connector-curvature="0"
         sodipodi:nodetypes="cccc" />
      <path
         style="opacity:1;fill:#eecdd4;fill-opacity:1;fill-rule:evenodd;stroke:#000000;stroke-width:1px;stroke-linecap:butt;stroke-linejoin:miter;stroke-opacity:1"
         d="m 111.97306,644.07836 c 6.3575,-1.07739 10.4027,-5.85026 15.37991,-2.81583 7.68747,-3.14594 4.96695,1.44147 8.98616,1.24439 -2.71189,2.49729 -1.39195,4.26375 -5.74026,5.97039 -3.40996,0.6895 -6.03775,0.19076 -9.14118,-1.73107 -2.00258,-1.18072 -6.07375,-2.52725 -9.48463,-2.66788 z"
         id="path4611"
         inkscape:connector-curvature="0"
         sodipodi:nodetypes="cccccc" />
      <path
         style="opacity:1;fill:none;fill-rule:evenodd;stroke:#000000;stroke-width:1px;stroke-linecap:butt;stroke-linejoin:miter;stroke-opacity:1"
         d="m 113.92072,643.9138 c 7.44667,-0.94086 11.11937,0.81931 14.68195,0.58432 3.56258,-0.23499 3.96195,-0.77687 7.16191,-1.77445"
         id="path4613"
         inkscape:connector-curvature="0"
         sodipodi:nodetypes="czc" />
      <path
         inkscape:connector-curvature="0"
         id="path4615"
         d="m 138.10315,605.48264 c -1.68691,0.4355 -2.87741,2.81853 -1.61912,4.22943 1.61545,1.2336 4.14383,0.13643 4.85278,-1.62414 0.5204,-1.68963 -1.29461,-2.86598 -2.80812,-2.59564 l -0.213,-0.003 -0.21254,-0.006 0,0 z"
         style="opacity:1;fill:#4e6e7e;fill-opacity:1;fill-rule:evenodd;stroke:#000000;stroke-width:1px;stroke-linecap:butt;stroke-linejoin:miter;stroke-opacity:1" />
      <path
         inkscape:connector-curvature="0"
         id="path4635"
         d="m 75.461659,608.06729 c -3.47922,-0.83428 -5.65818,3.76713 -3.84398,6.44933 0.42085,1.195 0.94161,2.37778 1.06601,3.6522"
         style="opacity:1;fill:none;fill-rule:evenodd;stroke:#000000;stroke-width:1px;stroke-linecap:butt;stroke-linejoin:miter;stroke-opacity:1" />
      <path
         inkscape:connector-curvature="0"
         id="path4637"
         d="m 79.249739,616.02225 c -2.23464,1.09597 -1.85844,4.40858 -0.25983,5.91553 0.59158,0.67331 1.28343,1.6678 0.63867,2.54453"
         style="opacity:1;fill:none;fill-rule:evenodd;stroke:#000000;stroke-width:1px;stroke-linecap:butt;stroke-linejoin:miter;stroke-opacity:1" />
      <path
         sodipodi:nodetypes="cccc"
         inkscape:connector-curvature="0"
         id="path4639"
         d="m 98.190098,650.36743 c 5.583792,4.89836 11.179502,9.78788 16.975612,14.43534 5.0101,1.41369 8.81973,1.95333 14.00315,1.66778 1.52835,-0.27327 3.64659,-1.0554 5.25981,-2.00562"
         style="opacity:1;fill:none;fill-rule:evenodd;stroke:#000000;stroke-width:1px;stroke-linecap:butt;stroke-linejoin:miter;stroke-opacity:1" />
      <path
         inkscape:transform-center-y="-0.88641715"
         transform="matrix(0.62042449,1.0708695,-0.46931352,0.27190391,462.41377,123.21562)"
         inkscape:transform-center-x="-6.3081619"
         d="m 383.02504,794.34935 0,-16.72624 0,-16.72625 14.48536,8.36313 14.48535,8.36312 -14.48535,8.36312 z"
         inkscape:randomized="0"
         inkscape:rounded="0"
         inkscape:flatsided="false"
         sodipodi:arg2="3.1415927"
         sodipodi:arg1="2.0943951"
         sodipodi:r2="9.6569014"
         sodipodi:r1="19.313803"
         sodipodi:cy="777.62311"
         sodipodi:cx="392.68195"
         sodipodi:sides="3"
         id="path4727"
         style="opacity:1;fill:#a900ff;fill-opacity:1;stroke:none;stroke-width:0.2;stroke-miterlimit:4;stroke-dasharray:none;stroke-opacity:1"
         sodipodi:type="star" />
      <path
         transform="matrix(1.3980338,-0.43859367,0.43859367,1.3980338,-487.25629,36.246855)"
         sodipodi:type="spiral"
         style="opacity:1;fill:none;fill-opacity:1;fill-rule:evenodd;stroke:#a900ff;stroke-width:3;stroke-linecap:butt;stroke-linejoin:miter;stroke-miterlimit:4;stroke-dasharray:none;stroke-opacity:1"
         id="path4729"
         sodipodi:cx="337.67041"
         sodipodi:cy="639.83447"
         sodipodi:expansion="3"
         sodipodi:revolution="3.9380796"
         sodipodi:radius="54.358826"
         sodipodi:argument="-18.591629"
         sodipodi:t0="0.8078078"
         d="m 342.63922,668.05497 c -17.0779,5.72132 -35.02922,-5.42993 -40.3791,-21.98578 -6.87373,-21.27158 7.05009,-43.49746 27.71107,-49.96269 26.10038,-8.16733 53.23433,8.9567 60.95494,34.3512 0.22852,0.75164 0.4407,1.50824 0.63642,2.26908" />
      <g
         transform="matrix(-0.671974,1.6745276,-1.6745276,-0.671974,1583.9137,619.51609)"
         id="g4765"
         style="opacity:1">
        <path
           inkscape:transform-center-y="-0.88641715"
           transform="matrix(0.18524601,0.82409827,-0.36116488,0.08118493,600.65635,250.64691)"
           inkscape:transform-center-x="-6.3081619"
           d="m 383.02504,794.34935 0,-16.72624 0,-16.72625 14.48536,8.36313 14.48535,8.36312 -14.48535,8.36312 z"
           inkscape:randomized="0"
           inkscape:rounded="0"
           inkscape:flatsided="false"
           sodipodi:arg2="3.1415927"
           sodipodi:arg1="2.0943951"
           sodipodi:r2="9.6569014"
           sodipodi:r1="19.313803"
           sodipodi:cy="777.62311"
           sodipodi:cx="392.68195"
           sodipodi:sides="3"
           id="path4767"
           style="opacity:1;fill:#00ffef;fill-opacity:1;stroke:none;stroke-width:0.2;stroke-miterlimit:4;stroke-dasharray:none;stroke-opacity:1"
           sodipodi:type="star" />
        <path
           sodipodi:type="spiral"
           style="fill:none;fill-opacity:1;fill-rule:evenodd;stroke:#00ffef;stroke-width:3;stroke-linecap:butt;stroke-linejoin:miter;stroke-miterlimit:4;stroke-dasharray:none;stroke-opacity:1"
           id="path4769"
           sodipodi:cx="337.67041"
           sodipodi:cy="639.83447"
           sodipodi:expansion="3"
           sodipodi:revolution="3.9380796"
           sodipodi:radius="54.358826"
           sodipodi:argument="-18.591629"
           sodipodi:t0="0.8078078"
           d="m 342.63922,668.05497 c -17.0779,5.72132 -35.02922,-5.42993 -40.3791,-21.98578 -6.87373,-21.27158 7.05009,-43.49746 27.71107,-49.96269 26.10038,-8.16733 53.23433,8.9567 60.95494,34.3512 0.22852,0.75164 0.4407,1.50824 0.63642,2.26908" />
      </g>
      <g
         id="g4741"
         style="opacity:1"
         transform="translate(-11.478364,-34.295504)">
        <path
           style="fill:#fff5f0;fill-opacity:1;fill-rule:evenodd;stroke:#000000;stroke-width:1px;stroke-linecap:butt;stroke-linejoin:miter;stroke-opacity:1"
           d="m 115.88254,847.4713 c 8.76733,-4.22872 18.10228,-6.71242 27.38113,-9.61038 10.13976,-3.73898 16.23863,-4.86935 25.85137,-9.97153 8.50291,-5.91186 32.43286,-17.22215 39.5044,-26.54656 0.36517,-6.43114 -4.12812,-15.82207 -7.73212,-20.42844 1.15668,-11.12799 -6.92485,-22.75368 -7.01495,-28.60887 -5.39824,-4.61421 -7.01853,-9.94199 1.78532,-7.41223 16.07867,9.01855 11.26755,24.07798 18.7658,25.16326 7.60975,-0.79234 15.58249,-18.1575 19.3374,-27.53581 3.85114,-9.85135 11.30421,-24.16308 16.31486,-21.64672 4.0848,1.58371 -3.71111,20.94127 -8.75695,32.52112 -2.65579,5.75173 -0.76296,6.74344 1.34902,0.42797 4.34381,-9.7664 12.4994,-26.92925 14.78876,-32.32554 1.51254,-4.20994 11.3678,-3.83708 7.96509,5.12399 -3.4027,8.96108 -8.84598,18.71057 -11.77633,28.96612 -7.01355,18.85694 6.25616,-4.05609 7.45961,-7.2847 4.37808,-7.71796 6.94534,-20.43312 12.97401,-17.04291 5.3522,3.04159 -3.53282,20.08109 -8.36351,27.69223 -1.87919,3.02092 -7.40858,11.15204 -6.72875,15.62174 4.08908,2.8282 8.46548,-0.76792 14.86913,-3.94764 6.56499,-3.25984 15.64054,-11.47177 18.19785,-7.52651 1.10356,5.30589 -15.84953,17.07777 -24.78675,21.66513 -8.41254,6.74035 -9.63996,14.35057 -15.64309,19.04184 -9.65968,7.28529 -18.43738,18.1398 -27.6427,26.00151 -13.20463,12.60932 -25.09184,25.06475 -39.66991,35.98253 -7.90469,5.84574 -16.93449,10.93862 -25.02566,16.54659 -10.05642,6.97008 -23.45738,14.05429 -34.3922,19.64586 -4.78971,4.68192 -11.32,11.7419 -21.97689,5.99483 -8.256099,-5.50249 -19.841709,-10.60898 -16.905349,-21.24867 1.28825,-13.46614 19.436119,-36.24392 29.871409,-39.25821 z"
           id="path4651"
           inkscape:connector-curvature="0"
           sodipodi:nodetypes="ccccccccccccczcccccscccccscccc" />
        <path
           style="fill:none;fill-rule:evenodd;stroke:#000000;stroke-width:1px;stroke-linecap:butt;stroke-linejoin:miter;stroke-opacity:1"
           d="m 189.72304,745.20895 c 7.17862,3.38107 6.21184,7.99879 4.00451,7.02862 -2.98989,-2.52972 -4.77438,-5.77627 -4.00451,-7.02862 z"
           id="path4655"
           inkscape:connector-curvature="0"
           sodipodi:nodetypes="ccc" />
        <path
           style="fill:none;fill-rule:evenodd;stroke:#000000;stroke-width:1px;stroke-linecap:butt;stroke-linejoin:miter;stroke-opacity:1"
           d="m 260.7494,719.45007 c -6.87042,4.50482 4.71829,9.84224 4.83749,3.25356 -0.2591,-1.29606 -1.16354,-3.21197 -4.83749,-3.25356 z"
           id="path4659"
           inkscape:connector-curvature="0"
           sodipodi:nodetypes="ccc" />
        <path
           style="fill:none;fill-rule:evenodd;stroke:#000000;stroke-width:1px;stroke-linecap:butt;stroke-linejoin:miter;stroke-opacity:1"
           d="m 270.59839,731.82444 c -6.36003,5.73504 4.76397,9.17708 4.55296,2.01905 -0.47936,-1.63747 -2.48811,-2.98696 -4.55296,-2.01905 z"
           id="path4663"
           inkscape:connector-curvature="0"
           sodipodi:nodetypes="ccc" />
        <path
           style="fill:none;fill-rule:evenodd;stroke:#000000;stroke-width:1px;stroke-linecap:butt;stroke-linejoin:miter;stroke-opacity:1"
           d="m 289.34934,762.19215 c -4.32582,2.68696 -0.27129,5.06129 2.17,3.35143 0.82591,-1.36611 -0.79745,-3.42909 -2.17,-3.35143 z"
           id="path4665"
           inkscape:connector-curvature="0"
           sodipodi:nodetypes="ccc" />
        <path
           sodipodi:nodetypes="ccc"
           inkscape:connector-curvature="0"
           id="path4719"
           d="m 247.23861,721.34411 c -6.36003,5.73504 3.75383,8.79827 3.54282,1.64025 -0.47937,-1.63748 -1.47796,-2.60816 -3.54282,-1.64025 z"
           style="fill:none;fill-rule:evenodd;stroke:#000000;stroke-width:1px;stroke-linecap:butt;stroke-linejoin:miter;stroke-opacity:1" />
      </g>
      <text
         xml:space="preserve"
         style="font-style:normal;font-weight:normal;font-size:40px;line-height:125%;font-family:sans-serif;letter-spacing:0px;word-spacing:0px;opacity:1;fill:url(#linearGradient5035);fill-opacity:1;stroke:none;stroke-width:1px;stroke-linecap:butt;stroke-linejoin:miter;stroke-opacity:1"
         x="284.39377"
         y="673.40607"
         id="text4731"
         sodipodi:linespacing="125%"><tspan
           sodipodi:role="line"
           id="tspan4733"
           x="284.39377"
           y="673.40607"
           style="fill:url(#linearGradient5035);fill-opacity:1">X 2</tspan></text>
    </g>
    <text
       xml:space="preserve"
       style="font-style:normal;font-weight:normal;font-size:40px;line-height:125%;font-family:sans-serif;letter-spacing:0px;word-spacing:0px;fill:#000000;fill-opacity:1;stroke:none;stroke-width:1px;stroke-linecap:butt;stroke-linejoin:miter;stroke-opacity:1"
       x="22.058712"
       y="973.72852"
       id="text5980"
       sodipodi:linespacing="125%"><tspan
         sodipodi:role="line"
         id="tspan5982"
         x="22.058712"
         y="973.72852"
         style="font-style:normal;font-variant:normal;font-weight:bold;font-stretch:normal;font-family:sans-serif;-inkscape-font-specification:'sans-serif Bold'">Signer</tspan></text>
    <text
       xml:space="preserve"
       style="font-style:normal;font-weight:normal;font-size:40px;line-height:125%;font-family:sans-serif;letter-spacing:0px;word-spacing:0px;fill:#000000;fill-opacity:1;stroke:none;stroke-width:1px;stroke-linecap:butt;stroke-linejoin:miter;stroke-opacity:1"
       x="24.326778"
       y="1014.9692"
       id="text5984"
       sodipodi:linespacing="125%"><tspan
         sodipodi:role="line"
         id="tspan5986"
         x="24.326778"
         y="1014.9692"
         style="font-size:25px">Configurations : </tspan></text>
    <g
       id="g7286"
       transform="translate(0,2.5253296)">
      <text
         sodipodi:linespacing="125%"
         id="text6287"
         y="1020.1074"
         x="248.62318"
         style="font-style:normal;font-weight:normal;font-size:40px;line-height:125%;font-family:sans-serif;letter-spacing:0px;word-spacing:0px;fill:#000000;fill-opacity:1;stroke:none;stroke-width:1px;stroke-linecap:butt;stroke-linejoin:miter;stroke-opacity:1"
         xml:space="preserve"><tspan
           y="1020.1074"
           x="248.62318"
           id="tspan6289"
           sodipodi:role="line">G</tspan></text>
      <text
         sodipodi:linespacing="125%"
         id="text6291"
         y="1020.1269"
         x="316.38965"
         style="font-style:normal;font-weight:normal;font-size:40px;line-height:125%;font-family:sans-serif;letter-spacing:0px;word-spacing:0px;fill:#000000;fill-opacity:1;stroke:none;stroke-width:1px;stroke-linecap:butt;stroke-linejoin:miter;stroke-opacity:1"
         xml:space="preserve"><tspan
           y="1020.1269"
           x="316.38965"
           id="tspan6293"
           sodipodi:role="line">D</tspan></text>
      <text
         sodipodi:linespacing="125%"
         id="text7282"
         y="1018.0859"
         x="281.56891"
         style="font-style:normal;font-weight:normal;font-size:40px;line-height:125%;font-family:sans-serif;letter-spacing:0px;word-spacing:0px;fill:#000000;fill-opacity:1;stroke:none;stroke-width:1px;stroke-linecap:butt;stroke-linejoin:miter;stroke-opacity:1"
         xml:space="preserve"><tspan
           y="1018.0859"
           x="281.56891"
           id="tspan7284"
           sodipodi:role="line">+</tspan></text>
    </g>
    <g
       id="g4409"
       transform="translate(-383.72788,255.6475)">
      <path
         sodipodi:nodetypes="cccccccccccc"
         inkscape:connector-curvature="0"
         id="path4319"
         d="m 670.56725,723.54658 c 0.0399,-2.65832 -0.13518,-4.37764 -0.19233,-6.42064 -3.89644,-3.918 -7.13924,-7.26682 -6.8955,-25.05913 -2.82134,-6.75431 -13.02682,-17.65428 -9.4187,-21.71439 3.69431,-4.47699 12.96541,17.44246 15.73315,17.23931 -1.23565,-7.11541 -9.54681,-25.90453 -4.0932,-28.058 6.51803,-1.62818 8.84077,23.09151 13.4714,27.55006 1.82249,-4.43916 -5.96855,-29.028 1.9309,-30.41222 7.77146,-0.086 3.58244,23.86848 7.15038,29.61974 3.53613,-5.64455 3.87628,-25.26525 9.65682,-23.98159 6.18211,1.36054 -1.33319,16.82264 -0.64649,22.219 0.18435,2.18095 -0.94511,16.85976 0.26787,19.28572"
         style="fill:none;fill-rule:evenodd;stroke:#000000;stroke-width:1px;stroke-linecap:butt;stroke-linejoin:miter;stroke-opacity:1" />
      <path
         sodipodi:nodetypes="cccc"
         inkscape:connector-curvature="0"
         id="path4321"
         d="m 695.03154,706.13586 c 6.32061,-4.46489 21.59176,-12.23381 23.75,-3.39285 -17.59273,7.64164 -15.75571,10.37047 -28.09947,16.55854 -0.69129,1.56885 0.0586,3.34859 -0.47196,4.95931"
         style="fill:none;fill-rule:evenodd;stroke:#000000;stroke-width:1px;stroke-linecap:butt;stroke-linejoin:miter;stroke-opacity:1" />
      <path
         sodipodi:nodetypes="cc"
         inkscape:connector-curvature="0"
         id="path4323"
         d="m 680.38868,710.68943 c 0.20561,-5.67281 4.12204,-9.42904 9.46429,-8.75"
         style="fill:none;fill-rule:evenodd;stroke:#000000;stroke-width:1px;stroke-linecap:butt;stroke-linejoin:miter;stroke-opacity:1" />
    </g>
  </g>
</svg>
