<?xml version="1.0" encoding="UTF-8" standalone="no"?>
<!-- Created with Inkscape (http://www.inkscape.org/) -->

<svg
   xmlns:dc="http://purl.org/dc/elements/1.1/"
   xmlns:cc="http://creativecommons.org/ns#"
   xmlns:rdf="http://www.w3.org/1999/02/22-rdf-syntax-ns#"
   xmlns:svg="http://www.w3.org/2000/svg"
   xmlns="http://www.w3.org/2000/svg"
   xmlns:sodipodi="http://sodipodi.sourceforge.net/DTD/sodipodi-0.dtd"
   xmlns:inkscape="http://www.inkscape.org/namespaces/inkscape"
   id="svg4190"
   version="1.1"
   inkscape:version="0.91 r13725"
   width="300"
   height="277.5"
   viewBox="0 0 300 277.5"
   sodipodi:docname="signalfabetoZ.svg"
   inkscape:export-filename="/home/lady/Documents/loisir/signotheque/signalfabetoZ.svg.png"
   inkscape:export-xdpi="150"
   inkscape:export-ydpi="150">
  <metadata
     id="metadata4196">
    <rdf:RDF>
      <cc:Work
         rdf:about="">
        <dc:format>image/svg+xml</dc:format>
        <dc:type
           rdf:resource="http://purl.org/dc/dcmitype/StillImage" />
        <dc:title />
      </cc:Work>
    </rdf:RDF>
  </metadata>
  <defs
     id="defs4194" />
  <sodipodi:namedview
     pagecolor="#ffffff"
     bordercolor="#666666"
     borderopacity="1"
     objecttolerance="10"
     gridtolerance="10"
     guidetolerance="10"
     inkscape:pageopacity="0"
     inkscape:pageshadow="2"
     inkscape:window-width="1336"
     inkscape:window-height="739"
     id="namedview4192"
     showgrid="false"
     inkscape:zoom="2.0171245"
     inkscape:cx="150.70861"
     inkscape:cy="138.17936"
     inkscape:window-x="0"
     inkscape:window-y="0"
     inkscape:window-maximized="1"
     inkscape:current-layer="svg4190" />
  <g
     id="g4141"
     inkscape:export-xdpi="300"
     inkscape:export-ydpi="300">
    <rect
       inkscape:export-ydpi="90"
       inkscape:export-xdpi="90"
       y="0.77349198"
       x="0.73418808"
       height="277.0943"
       width="299.94885"
       id="rect4274"
       style="opacity:1;fill:#cfb1cd;fill-opacity:1;fill-rule:evenodd;stroke:#000000;stroke-width:1.52013862;stroke-miterlimit:4;stroke-dasharray:none;stroke-opacity:1" />
    <path
       sodipodi:nodetypes="czzzzzcczzzczzcczzzzzzccczcczzzzzzcc"
       inkscape:connector-curvature="0"
       id="path4200-9"
       d="m 209.74867,132.40927 c 16.23286,-7.1501 17.01705,0.19111 19.96372,7.01426 2.94672,6.82305 -11.01142,38.98213 -14.02858,49.63947 -3.01721,10.65734 -6.01968,13.52043 -8.63297,20.5032 -2.61327,6.98277 -11.54987,21.44059 -15.64723,27.51757 -4.09736,6.07699 -4.26166,10.35844 -4.16419,13.13733 0.0973,2.77888 -0.15224,6.2868 -0.15224,6.2868 l -66.90541,-4.31643 c 0,0 1.57572,-8.00121 -0.53953,-15.10765 -2.11526,-7.10643 -3.28453,-6.62934 -8.09343,-11.87038 -4.80891,-5.24104 -16.87556,-23.46141 -19.424133,-29.67575 -2.548573,-6.21434 -0.854012,-1.69128 -6.474728,-16.18677 -3.416193,-4.10828 -5.777633,-11.551 -9.71209,-19.42418 -3.934456,-7.8732 -9.431661,-15.01102 -12.949403,-19.96367 -3.517744,-4.95266 -6.990633,-5.55931 -10.251627,-11.33076 -4.509513,-8.22228 6.693301,-17.35656 18.884594,-10.25167 7.592611,2.86183 9.220358,5.51043 12.40987,9.7121 3.189561,4.20172 7.903008,14.37007 12.409868,18.8846 4.506859,4.51451 5.108149,7.4315 9.172499,8.63296 4.06436,1.20146 10.79259,-0.71425 10.79121,-3.23737 -9.5e-4,-2.52316 3.00592,-21.44761 2.1582,-32.37358 -0.84773,-10.92596 0.31246,-20.586916 0,-30.754881 C 118.2506,79.076515 120,67.57406 120.18177,59.029133 c 0.23681,-14.713539 2.33118,-29.485683 11.08976,-28.344168 8.77025,1.899971 8.35756,17.548042 9.71205,32.121061 0.34144,8.095257 1.34054,18.863277 2.15828,27.770043 0.81777,8.906765 0.22502,25.174451 4.55747,29.423281 7.10019,6.75781 14.93103,-15.94976 22.12191,-28.0571 5.1362,-8.816518 8.81066,-19.110199 14.56811,-28.057101 5.75744,-8.9469 11.92659,-23.24402 17.54146,-25.370763 5.61487,-2.126755 7.53738,0.02951 9.98761,2.146692 2.45016,2.115647 1.27587,5.599991 0.53953,9.94157 -0.73634,4.34159 -6.56557,15.147106 -10.24009,22.994598 -3.67451,7.84749 -6.01708,12.517557 -10.25162,20.790308 -4.23453,8.272756 -15.10189,34.244756 -15.10189,34.244756 83.12298,-29.854231 -42.43377,94.76322 10.76236,-2.15823"
       style="fill:#ffffff;fill-opacity:1;fill-rule:evenodd;stroke:none;stroke-width:1px;stroke-linecap:butt;stroke-linejoin:miter;stroke-opacity:1" />
    <path
       sodipodi:nodetypes="czzzzzcczzzczzcczzzzzzczczcczzzzzzcsc"
       inkscape:connector-curvature="0"
       id="path4200"
       d="m 209.1149,132.40293 c 16.23286,-7.1501 17.01706,0.1911 19.96373,7.01427 2.9467,6.82305 -11.01142,38.98214 -14.02858,49.63946 -3.01721,10.65734 -6.0197,13.52043 -8.63297,20.5032 -2.61328,6.98278 -12.86996,21.96864 -15.64723,27.51757 -2.77727,5.54895 -2.8068,7.18567 -3.23737,10.49261 -0.43037,3.30693 -1.07907,8.93152 -1.07907,8.93152 m -66.9054,-4.31644 c 0,0 1.57572,-8.00121 -0.53954,-15.10763 -2.11525,-7.10644 -3.28452,-6.62934 -8.09343,-11.87039 -4.80891,-5.24104 -16.875556,-23.46142 -19.424129,-29.67575 -2.548573,-6.21434 -0.854011,-1.69127 -6.474728,-16.18677 -3.416192,-4.10828 -5.777632,-11.551 -9.712088,-19.42418 -3.934458,-7.87319 -9.431662,-15.01102 -12.949406,-19.96367 -3.517743,-4.95265 -6.990632,-5.55931 -10.251626,-11.33075 -4.509513,-8.22229 6.693302,-17.35657 18.884595,-10.25167 7.592611,2.86182 9.220358,5.51043 12.409868,9.71209 3.189561,4.20171 7.90301,14.37006 12.40987,18.88459 4.506864,4.51453 5.108154,7.43153 9.172504,8.63298 4.06435,1.20144 10.79258,-0.71425 10.79121,-3.23738 -9.5e-4,-2.52316 3.00592,-21.44761 2.1582,-32.37357 -0.84773,-10.92597 0.31246,-20.586926 0,-30.754877 -0.31247,-10.167966 1.43692,-21.670421 1.6187,-30.215348 0.2368,-14.71354 2.08808,-30.270367 12.40987,-29.136224 10.32177,1.134142 9.67765,18.868134 9.71203,32.913128 0.34145,8.095245 1.34053,18.07121 2.1583,26.977975 0.81774,8.90676 -1.09504,25.966516 3.23735,30.215346 7.1002,6.75781 14.93102,-15.94977 22.12192,-28.057109 5.13619,-8.816505 8.81066,-19.110186 14.56811,-28.0571 5.75744,-8.946902 12.45461,-22.451953 16.48537,-24.842727 4.03075,-2.390774 9.12155,-2.345133 11.57172,0.562582 2.45017,2.907702 2.16473,4.822605 1.06759,10.469606 -1.09716,5.647001 -6.56567,15.675331 -10.24009,23.522634 -3.67441,7.847292 -6.01709,13.309613 -10.25162,21.582378 -4.23455,8.272756 -14.29677,30.659046 -14.34412,33.452696 2.5208,2.10464 15.34453,-12.95362 19.20013,-14.02856 7.83703,-2.18493 18.15616,6.67516 12.40987,16.1868"
       style="fill:#ffffff;fill-opacity:1;fill-rule:evenodd;stroke:#000000;stroke-width:1.47399998;stroke-linecap:round;stroke-linejoin:round;stroke-miterlimit:4;stroke-dasharray:none;stroke-opacity:1" />
    <path
       sodipodi:nodetypes="cscc"
       inkscape:connector-curvature="0"
       id="path4202"
       d="m 224.66943,153.44571 c -5.37516,3.72778 -7.67436,5.92685 -13.6176,13.24365 -3.37519,4.15515 -10.13319,13.71566 -19.83511,9.4178 -6.50388,-8.97402 17.67033,-43.97894 17.67033,-43.97894"
       style="fill:#ffffff;fill-opacity:1;fill-rule:evenodd;stroke:#000000;stroke-width:1.47387373;stroke-linecap:butt;stroke-linejoin:miter;stroke-miterlimit:4;stroke-dasharray:none;stroke-opacity:1" />
    <path
       sodipodi:nodetypes="czc"
       inkscape:connector-curvature="0"
       id="path4204"
       d="m 144.27512,137.79849 c 0,0 5.88975,16.7626 14.02848,24.28015 8.13874,7.51754 48.59132,25.177 57.73285,24.2802"
       style="opacity:1;fill:none;fill-rule:evenodd;stroke:#2d2d2d;stroke-width:1.47387373;stroke-linecap:butt;stroke-linejoin:miter;stroke-miterlimit:4;stroke-dasharray:none;stroke-opacity:1" />
    <path
       sodipodi:nodetypes="czc"
       inkscape:connector-curvature="0"
       id="path4206"
       d="m 149.1311,231.68178 c 0,0 -5.38696,4.21386 -10.25162,4.85608 -4.86463,0.64225 -16.18681,-3.23737 -16.18681,-3.23737"
       style="fill:none;fill-rule:evenodd;stroke:#0f0f0f;stroke-width:1.47387373;stroke-linecap:butt;stroke-linejoin:miter;stroke-miterlimit:4;stroke-dasharray:none;stroke-opacity:1" />
    <path
       sodipodi:nodetypes="czc"
       inkscape:connector-curvature="0"
       id="path4208"
       d="m 183.66293,240.85434 c 0,0 -12.96581,1.43185 -17.80548,-1.07913 -4.83966,-2.51074 -6.47472,-7.55384 -6.47472,-7.55384"
       style="fill:none;fill-rule:evenodd;stroke:#0f0f0f;stroke-width:1.47387373;stroke-linecap:butt;stroke-linejoin:miter;stroke-miterlimit:4;stroke-dasharray:none;stroke-opacity:1" />
    <path
       sodipodi:nodetypes="cscszc"
       inkscape:connector-curvature="0"
       id="path4200-1"
       d="m 209.56071,130.97852 c -4.90814,9.71809 -7.27499,15.52069 -10.60324,20.31535 -11.23215,16.18086 -16.91293,21.78704 -19.37914,24.22954 -7.5708,5.34702 -10.85848,0.76163 -12.23603,-2.13997 -2.46131,-5.18438 1.9653,-14.35201 4.92944,-20.75753 2.96414,-6.40552 14.81539,-26.15178 14.81539,-26.15178"
       style="fill:#ffffff;fill-opacity:1;fill-rule:evenodd;stroke:#000000;stroke-width:1.47387373;stroke-linecap:round;stroke-linejoin:round;stroke-miterlimit:4;stroke-dasharray:none;stroke-opacity:1" />
    <path
       sodipodi:nodetypes="czc"
       inkscape:connector-curvature="0"
       id="path4204-9"
       d="m 129.70766,154.80021 c 0,0 12.36447,10.82746 20.50321,18.34501 8.13872,7.51755 12.44082,31.11215 9.71202,46.40211"
       style="opacity:1;fill:none;fill-rule:evenodd;stroke:#2d2d2d;stroke-width:1.47387373;stroke-linecap:butt;stroke-linejoin:miter;stroke-miterlimit:4;stroke-dasharray:none;stroke-opacity:1" />
  </g>
</svg>
