<?xml version="1.0" encoding="UTF-8" standalone="no"?>
<!-- Created with Inkscape (http://www.inkscape.org/) -->

<svg
   xmlns:dc="http://purl.org/dc/elements/1.1/"
   xmlns:cc="http://creativecommons.org/ns#"
   xmlns:rdf="http://www.w3.org/1999/02/22-rdf-syntax-ns#"
   xmlns:svg="http://www.w3.org/2000/svg"
   xmlns="http://www.w3.org/2000/svg"
   xmlns:sodipodi="http://sodipodi.sourceforge.net/DTD/sodipodi-0.dtd"
   xmlns:inkscape="http://www.inkscape.org/namespaces/inkscape"
   width="105mm"
   height="148mm"
   viewBox="0 0 372.04724 524.40945"
   id="svg5316"
   version="1.1"
   inkscape:version="0.91 r13725"
   sodipodi:docname="Vin.svg">
  <defs
     id="defs5318" />
  <sodipodi:namedview
     id="base"
     pagecolor="#ffffff"
     bordercolor="#666666"
     borderopacity="1.0"
     inkscape:pageopacity="0.0"
     inkscape:pageshadow="2"
     inkscape:zoom="0.98994949"
     inkscape:cx="271.95655"
     inkscape:cy="293.88911"
     inkscape:document-units="px"
     inkscape:current-layer="g4322"
     showgrid="false"
     inkscape:window-width="1680"
     inkscape:window-height="1022"
     inkscape:window-x="0"
     inkscape:window-y="28"
     inkscape:window-maximized="1" />
  <metadata
     id="metadata5321">
    <rdf:RDF>
      <cc:Work
         rdf:about="">
        <dc:format>image/svg+xml</dc:format>
        <dc:type
           rdf:resource="http://purl.org/dc/dcmitype/StillImage" />
        <dc:title></dc:title>
      </cc:Work>
    </rdf:RDF>
  </metadata>
  <g
     inkscape:label="Calque 1"
     inkscape:groupmode="layer"
     id="layer1"
     transform="translate(0,-527.95276)"
     style="opacity:0.96">
    <text
       xml:space="preserve"
       style="font-style:normal;font-weight:normal;font-size:40px;line-height:125%;font-family:sans-serif;letter-spacing:0px;word-spacing:0px;fill:#000000;fill-opacity:1;stroke:none;stroke-width:1px;stroke-linecap:butt;stroke-linejoin:miter;stroke-opacity:1"
       x="26.52743"
       y="984.94446"
       id="text5980"
       sodipodi:linespacing="125%"><tspan
         sodipodi:role="line"
         id="tspan5982"
         x="26.52743"
         y="984.94446"
         style="font-style:normal;font-variant:normal;font-weight:bold;font-stretch:normal;font-family:sans-serif;-inkscape-font-specification:'sans-serif Bold'">Vin</tspan></text>
    <text
       xml:space="preserve"
       style="font-style:normal;font-weight:normal;font-size:40px;line-height:125%;font-family:sans-serif;letter-spacing:0px;word-spacing:0px;fill:#000000;fill-opacity:1;stroke:none;stroke-width:1px;stroke-linecap:butt;stroke-linejoin:miter;stroke-opacity:1"
       x="28.795496"
       y="1026.1851"
       id="text5984"
       sodipodi:linespacing="125%"><tspan
         sodipodi:role="line"
         id="tspan5986"
         x="28.795496"
         y="1026.1851"
         style="font-size:25px">Configurations : </tspan></text>
    <text
       xml:space="preserve"
       style="font-style:normal;font-weight:normal;font-size:40px;line-height:125%;font-family:sans-serif;letter-spacing:0px;word-spacing:0px;fill:#000000;fill-opacity:1;stroke:none;stroke-width:1px;stroke-linecap:butt;stroke-linejoin:miter;stroke-opacity:1"
       x="313.28229"
       y="1033.8682"
       id="text6291"
       sodipodi:linespacing="125%"><tspan
         sodipodi:role="line"
         id="tspan6293"
         x="313.28229"
         y="1033.8682">D</tspan></text>
    <g
       id="g4596"
       transform="matrix(0.41832134,0,0,0.41832134,-53.274665,479.5283)"
       style="display:inline;stroke-width:2.39050674;stroke-miterlimit:4;stroke-dasharray:none">
      <path
         style="fill:#fff5f0;fill-opacity:1;fill-rule:evenodd;stroke:#000000;stroke-width:2.39050674;stroke-linecap:butt;stroke-linejoin:miter;stroke-miterlimit:4;stroke-dasharray:none;stroke-opacity:1"
         d="m 636.18832,275.99203 c 3.6051,-8.41881 13.0545,-2.19925 8.5819,6.79394 -5.4337,11.69713 -7.8176,25.50157 -10.0122,39.33333 -6.857,6.36932 -11.5129,-3.50645 -9.6545,-11.08485 2.7532,-11.99934 5.7501,-24.59255 11.0848,-35.04242 z"
         id="path4526"
         inkscape:connector-curvature="0" />
      <path
         id="path4528"
         style="fill:#fff5f0;fill-opacity:1;fill-rule:evenodd;stroke:#000000;stroke-width:2.39050674;stroke-linecap:butt;stroke-linejoin:miter;stroke-miterlimit:4;stroke-dasharray:none;stroke-opacity:1"
         d="m 486.54292,313.71627 c -9.7854,-1.57 -12.2101,-15.73001 -11.8,-24.85152 -1.3862,-13.16948 -5.7681,-22.57234 1.9666,-31.64545 5.0081,-5.30035 12.3116,-1.44274 14.7698,5.90388 -2.5225,-10.7043 -4.3438,-23.56097 -5.7569,-35.29526 -1.4131,-11.73429 3.6488,-32.90126 13.956,-44.16608 12.7021,-13.88233 30.8284,-26.91383 51.8961,-28.28148 21.0676,-1.36765 43.3054,1.37571 62.6855,17.70845 19.3802,16.33273 20.1837,51.28402 18.1798,78.74004 1.0031,16.85571 6.3988,40.31133 2.8755,47.4793 -8.193,16.00239 -4.247,35.96951 -12.5019,49.76735 -2.2029,3.95716 -8.9348,16.88481 -17.2233,21.08933 0.8211,11.96926 1.7265,29.6993 1.7265,29.6993 27.1684,17.82493 59.5142,24.24622 78.2914,29.30535 -25.3392,118.5241 -90.1835,193.458 -123.7075,193.97595 -81.8352,3.11209 -125.544,-137.00423 -139.9956,-185.07541 20.6938,-9.13315 42.5792,-11.68251 90.6682,-40.38939 2.6904,-15.09301 2.3885,-27.70149 2.4112,-39.53822 -12.826,-11.86522 -19.1854,-40.66894 -20.4715,-52.79669 -1.2861,3.78436 -3.8282,8.41378 -7.9699,8.37055 z"
         inkscape:connector-curvature="0"
         sodipodi:nodetypes="cccczssscccccccccccc" />
      <path
         style="fill:#c6d494;fill-opacity:1;fill-rule:evenodd;stroke:#000000;stroke-width:2.39050674;stroke-linecap:butt;stroke-linejoin:miter;stroke-miterlimit:4;stroke-dasharray:none;stroke-opacity:1"
         d="m 383.31192,1000.768 c 11.4383,-37.40983 15.9726,-75.15356 18.409,-112.93896 2.4364,-37.7854 7.4077,-96.34733 15.3666,-133.16556 -18.7267,-8.98679 -28.9883,-24.28448 -41.8667,-47.1948 -12.8784,-22.91032 -18.8323,-45.02335 -22.0475,-68.82954 -1.3272,-34.1245 -2.4495,-47.47393 -2.4794,-78.10007 -0.03,-30.62614 -0.3281,-81.38006 11.65,-95.68934 19.8332,-28.75487 100.5785,-36.84762 140.6411,-62.7534 3.439,51.01534 6.8488,100.78847 30.7192,173.43548 7.6441,4.83772 31.5439,4.67607 39.0505,1.46281 22.8684,-49.82791 36.2515,-116.59528 42.6682,-173.69756 34.685,16.54733 105.2871,26.31811 127.0761,44.43669 22.1286,18.15602 26.6741,44.8964 35.3173,70.16155 8.9555,30.50256 13.2484,60.51174 13.2378,93.78113 -0.4544,27.97732 1.5939,53.63476 2.1759,82.2269 0.582,28.59214 -0.4093,56.71753 -1.7173,92.31234 4.0017,41.15739 -4.1728,101.53917 -7.9484,125.55115 -3.7756,24.01199 -8.1483,42.5292 -11.3675,68.60405 -16.2796,2.72622 -43.5334,0.62469 -53.9691,-3.44674 -0.4181,5.46807 -1.9908,17.49274 -1.1922,27.21437 -103.3117,5.619 -218.4198,11.8211 -333.7239,-3.3705 z"
         id="path4530"
         inkscape:connector-curvature="0"
         sodipodi:nodetypes="czczczcccccccczczccccc" />
      <path
         style="fill:none;fill-rule:evenodd;stroke:#000000;stroke-width:2.39050674;stroke-linecap:butt;stroke-linejoin:miter;stroke-miterlimit:4;stroke-dasharray:none;stroke-opacity:1"
         d="m 605.61562,370.21324 c -7.7091,4.75973 -19.4973,7.06694 -33.2545,7.68788 -17.434,-1.97404 -30.365,-5.38834 -44.5182,-13.94546"
         id="path4533"
         inkscape:connector-curvature="0"
         sodipodi:nodetypes="ccc" />
      <path
         style="fill:#ff9696;fill-opacity:1;fill-rule:evenodd;stroke:#000000;stroke-width:2.39050674;stroke-linecap:butt;stroke-linejoin:miter;stroke-miterlimit:4;stroke-dasharray:none;stroke-opacity:1"
         d="m 601.32472,325.69506 c -8.2327,9.72388 -17.2252,15.5423 -29.6788,15.37575 -12.4535,-0.16654 -25.0188,-7.63031 -31.1091,-17.52121 7.7865,-3.65763 20.7611,-5.52056 31.1091,-5.54242 10.3479,-0.0219 25.3894,4.25622 29.6788,7.68788 z"
         id="path4537"
         inkscape:connector-curvature="0"
         sodipodi:nodetypes="czczc" />
      <g
         transform="translate(-997.21768,287.23106)"
         id="g4539"
         style="stroke-width:2.39050674;stroke-miterlimit:4;stroke-dasharray:none">
        <path
           sodipodi:nodetypes="ccccccc"
           inkscape:connector-curvature="0"
           id="path4541"
           d="m 1503.159,93.562863 c 0.568,-14.286992 0.7633,-27.364828 -1.2642,-38.938012 1.3744,-18.422043 -4.4274,-46.0028258 0.2528,-51.9594915 9.9313,-1.6260583 13.3831,10.4548265 14.665,19.5954285 2.3072,12.165737 2.3745,25.369333 2.5285,35.398194 1.3452,14.958194 8.7607,29.323449 3.2869,42.477828 -7.5856,3.08467 -15.915,-1.807149 -19.469,-6.573947 z"
           style="fill:#fff5f0;fill-opacity:1;fill-rule:evenodd;stroke:#000000;stroke-width:2.39050674;stroke-linecap:butt;stroke-linejoin:miter;stroke-miterlimit:4;stroke-dasharray:none;stroke-opacity:1" />
        <path
           sodipodi:nodetypes="cc"
           inkscape:connector-curvature="0"
           id="path4543"
           d="m 1503.0697,2.8852118 c 0.5814,4.9603367 1.4236,12.7873172 -2.5026,15.9121192"
           style="fill:none;fill-rule:evenodd;stroke:#000000;stroke-width:2.39050674;stroke-linecap:butt;stroke-linejoin:miter;stroke-miterlimit:4;stroke-dasharray:none;stroke-opacity:1" />
      </g>
      <g
         transform="translate(-997.21768,287.23106)"
         id="g4545"
         style="stroke-width:2.39050674;stroke-miterlimit:4;stroke-dasharray:none">
        <path
           sodipodi:nodetypes="cccczccc"
           inkscape:connector-curvature="0"
           id="path4547"
           d="m 1506.9517,89.011667 c 1.1075,-9.575917 -1.2899,-21.976222 2.0227,-29.83562 5.5603,-8.655691 11.2906,-17.14662 15.6764,-26.801489 4.0468,-7.279474 5.1878,-18.210907 9.9656,-24.9321112 6.0717,-1.5393326 11.6102,1.9577743 9.7562,15.0445452 -1.8539,13.086771 -6.8484,23.478519 -10.6195,34.919145 -2.4745,7.225475 -3.7956,16.671948 -5.0568,24.525891 -4.3704,22.071002 -9.596,16.890891 -21.7446,7.079639 z"
           style="fill:#fff5f0;fill-opacity:1;fill-rule:evenodd;stroke:#000000;stroke-width:2.39050674;stroke-linecap:butt;stroke-linejoin:miter;stroke-miterlimit:4;stroke-dasharray:none;stroke-opacity:1" />
        <path
           sodipodi:nodetypes="cc"
           inkscape:connector-curvature="0"
           id="path4549"
           d="m 1535.7879,6.997333 c -0.1435,4.402207 -0.7999,13.035448 -6.6147,13.766657"
           style="fill:none;fill-rule:evenodd;stroke:#000000;stroke-width:2.39050674;stroke-linecap:butt;stroke-linejoin:miter;stroke-miterlimit:4;stroke-dasharray:none;stroke-opacity:1" />
      </g>
      <path
         style="fill:#fff5f0;fill-opacity:1;fill-rule:evenodd;stroke:#000000;stroke-width:2.39050674;stroke-linecap:butt;stroke-linejoin:miter;stroke-miterlimit:4;stroke-dasharray:none;stroke-opacity:1"
         d="m 550.18382,388.49143 c 2.1441,-7.80896 12.9337,-12.95084 17.2907,-8.79565 4.3615,7.00929 -0.4663,21.27606 -7.1717,25.37119 -5.0821,-0.026 -9.8514,-9.19669 -10.119,-16.57554 z"
         id="path4551"
         inkscape:connector-curvature="0"
         sodipodi:nodetypes="cccc" />
      <path
         style="fill:#fff5f0;fill-opacity:1;fill-rule:evenodd;stroke:#000000;stroke-width:2.39050674;stroke-linecap:butt;stroke-linejoin:miter;stroke-miterlimit:4;stroke-dasharray:none;stroke-opacity:1"
         d="m 449.55702,509.2388 c 3.3065,-13.10101 8.4,-26.51369 12.6423,-39.4437 4.7183,-10.26719 10.2208,-25.62664 15.9291,-36.91527 5.7084,-11.28862 12.8175,-30.51647 17.4463,-39.44369 4.6288,-8.92722 3.5958,-9.83114 7.5853,-13.14791 2.0108,-7.95102 7.4115,-11.32161 16.1821,-8.5967 11.978,3.51864 24.2155,6.47208 37.9266,8.09101 5.1516,1.55584 6.3298,11.49045 6.5739,19.21617 0.2441,7.72572 3.2638,20.25855 1.5171,26.80149 2.226,1.60089 2.5693,3.55979 2.5693,3.55979 6.8903,8.94496 6.2376,9.46626 4.0043,13.12793 -6.5616,3.5409 -14.1376,-4.72452 -15.7785,-7.5139 -4.514,-3.99758 -13.2987,-8.66813 -13.2987,-8.66813 0,0 -5.0115,3.86661 -4.2983,10.0206 -2.3236,13.57852 -12.6832,21.66212 -20.7332,25.88328 -5.3018,3.47669 -7.2848,13.42735 -16.4349,22.50313 -0.1988,12.42981 -1.9768,20.10994 -3.287,35.14536 -14.8168,6.36766 -39.577,4.07511 -48.5461,-10.61946 z"
         id="path4553"
         inkscape:connector-curvature="0"
         sodipodi:nodetypes="cczzccczccccccccccc" />
      <path
         style="fill:none;fill-rule:evenodd;stroke:#000000;stroke-width:2.39050674;stroke-linecap:butt;stroke-linejoin:miter;stroke-miterlimit:4;stroke-dasharray:none;stroke-opacity:1"
         d="m 490.14742,407.51609 c 6.3608,-13.76272 10.6401,-7.60291 26.1605,-8.51738 11.6527,2.60622 22.6763,2.98414 30.3413,7.07964 4.0937,5.52508 15.2398,15.89085 18.6443,19.62359"
         id="path4555"
         inkscape:connector-curvature="0"
         sodipodi:nodetypes="cccc" />
      <path
         style="fill:none;fill-rule:evenodd;stroke:#000000;stroke-width:2.39050674;stroke-linecap:butt;stroke-linejoin:miter;stroke-miterlimit:4;stroke-dasharray:none;stroke-opacity:1"
         d="m 542.57572,426.21913 c -4.2833,-2.057 -11.9177,-4.35007 -15.4389,-7.47052 -2.5376,10.36952 -5.3287,15.19642 -9.9302,18.27402"
         id="path4557"
         inkscape:connector-curvature="0"
         sodipodi:nodetypes="ccc" />
      <path
         style="fill:#c6d494;fill-opacity:1;fill-rule:evenodd;stroke:#000000;stroke-width:2.39050674;stroke-linecap:butt;stroke-linejoin:miter;stroke-miterlimit:4;stroke-dasharray:none;stroke-opacity:1"
         d="m 430.34092,762.84157 c -13.1696,-5.86401 -27.0661,-11.84315 -35.7531,-23.87332 -8.032,-11.18121 -16.9412,-22.5535 -20.3981,-36.09851 -4.2455,-17.18106 -5.516,-36.05595 0.3559,-52.95579 8.4717,-16.57839 18.1004,-32.76987 30.4837,-46.76834 16.3148,-18.4983 25.9167,-32.12879 34.2482,-66.17297 8.3315,-34.04418 10.3679,-49.15065 17.457,-55.53081 2.8866,6.15081 5.3244,12.93307 20.4231,15.47924 15.0986,2.54617 21.0463,1.11448 25.2439,-5.63421 4.7464,-3.31349 -2.9633,79.74044 -6.6546,115.90207 -3.6913,36.16163 -7.2656,67.47193 -17.8467,92.06108 -10.581,24.58915 -15.8277,35.97573 -22.1502,48.93534 -5.0434,9.12223 -14.066,17.97544 -25.4091,14.65622 z"
         id="path4561"
         inkscape:connector-curvature="0"
         sodipodi:nodetypes="ccccczczczzcc" />
      <path
         style="fill:#ffffff;fill-opacity:1;fill-rule:evenodd;stroke:#000000;stroke-width:2.39050674;stroke-linecap:butt;stroke-linejoin:miter;stroke-miterlimit:4;stroke-dasharray:none;stroke-opacity:1"
         d="m 717.39752,733.2595 c 3.0709,38.53844 10.1704,69.10868 6.7975,101.53495 -10.7696,-26.88967 -16.5608,-53.17829 -20.8483,-92.97451 -4.2876,-39.79623 -7.0334,-106.58866 -4.6025,-136.08519 8.752,28.4048 15.5823,88.98631 18.6533,127.52475 z"
         id="path4563"
         inkscape:connector-curvature="0"
         sodipodi:nodetypes="zczcz" />
      <path
         style="fill:#de913b;fill-opacity:1;fill-rule:evenodd;stroke:#000000;stroke-width:2.39050674;stroke-linecap:butt;stroke-linejoin:miter;stroke-miterlimit:4;stroke-dasharray:none;stroke-opacity:1"
         d="m 517.83082,239.34051 c -1.421,5.25141 9.8569,1.30596 20.9181,1.07273 11.0613,-0.23323 18.4765,4.95118 19.3106,3.90839 4.2311,-3.36703 -20.5812,-10.38315 -40.2287,-4.98112 z"
         id="path4565"
         inkscape:connector-curvature="0"
         sodipodi:nodetypes="czcc" />
      <path
         style="fill:#de913b;fill-opacity:1;fill-rule:evenodd;stroke:#000000;stroke-width:2.39050674;stroke-linecap:butt;stroke-linejoin:miter;stroke-miterlimit:4;stroke-dasharray:none;stroke-opacity:1"
         d="m 586.12782,206.62233 c -14.1167,11.05376 -38.9933,30.8762 -54.7092,28.60606 -10.0398,10.5402 -22.8412,25.08032 -39.6909,27.89091 -1.4989,-5.34373 -5.3085,-10.20737 -12.8727,-7.86667 -7.2605,-7.5438 -7.5584,-22.67057 -6.7939,-37.72424 0.7644,-15.05367 8.9566,-34.3388 22.5272,-47.91515 13.5706,-13.57635 36.3599,-19.3177 55.7819,-20.20303 19.422,-0.88533 37.4871,0.3853 50.9545,9.11818 13.4674,8.73288 24.7217,15.68397 28.9637,31.82424 10.1419,13.81604 7.0692,36.84778 7.8666,50.5599 0.7974,13.71212 0.3529,27.88523 -2.3243,35.97344 -6.2222,-27.16097 -11.3486,-60.49524 -11.0732,-79.85109 -13.4101,13.52629 -27.8507,10.14568 -38.6297,9.58745 z"
         id="path4570"
         inkscape:connector-curvature="0"
         sodipodi:nodetypes="cccczzzzczccc" />
      <path
         style="fill:#ffffff;fill-opacity:1;fill-rule:evenodd;stroke:#000000;stroke-width:2.39050674;stroke-linecap:butt;stroke-linejoin:miter;stroke-miterlimit:4;stroke-dasharray:none;stroke-opacity:1"
         d="m 595.78232,326.23142 c -18.6699,-7.69434 -42.0364,-4.92651 -48.6303,-0.35758 13.0123,8.55656 37.8029,11.31675 48.6303,0.35758 z"
         id="path4572"
         inkscape:connector-curvature="0"
         sodipodi:nodetypes="ccc" />
      <path
         style="fill:none;fill-rule:evenodd;stroke:#000000;stroke-width:2.39050674;stroke-linecap:butt;stroke-linejoin:miter;stroke-miterlimit:4;stroke-dasharray:none;stroke-opacity:1"
         d="m 555.01862,291.69995 c -6.2871,7.99867 1.8384,11.56946 8.2243,8.60723"
         id="path4574"
         inkscape:connector-curvature="0"
         sodipodi:nodetypes="cc" />
      <path
         style="fill:none;fill-rule:evenodd;stroke:#000000;stroke-width:2.39050674;stroke-linecap:butt;stroke-linejoin:miter;stroke-miterlimit:4;stroke-dasharray:none;stroke-opacity:1"
         d="m 591.27822,287.02977 c 8.3972,9.12521 5.0326,18.17315 -0.9426,16.41255 0.1899,-3.01158 -5.1405,-4.88069 -6.6496,-0.84158"
         id="path4576"
         inkscape:connector-curvature="0"
         sodipodi:nodetypes="ccc" />
      <path
         style="fill:#de913b;fill-opacity:1;fill-rule:evenodd;stroke:#000000;stroke-width:2.39050674;stroke-linecap:butt;stroke-linejoin:miter;stroke-miterlimit:4;stroke-dasharray:none;stroke-opacity:1"
         d="m 624.56722,245.4193 c 3.1438,5.56075 -7.3751,0.83251 -13.9455,0.71515 -6.5704,-0.11736 -13.492,1.82323 -18.7727,4.4697 -0.7725,-5.97325 23.567,-11.08505 32.7182,-5.18485 z"
         id="path4578"
         inkscape:connector-curvature="0"
         sodipodi:nodetypes="czcc" />
      <path
         style="fill:none;fill-rule:evenodd;stroke:#000000;stroke-width:2.39050674;stroke-linecap:butt;stroke-linejoin:miter;stroke-miterlimit:4;stroke-dasharray:none;stroke-opacity:1"
         d="m 592.74292,265.08597 c 10.0176,-6.81871 17.9215,-5.50696 28.7849,1.96666 -9.4181,4.71575 -20.8608,4.38792 -28.7849,-1.96666 z"
         id="path4580"
         inkscape:connector-curvature="0"
         sodipodi:nodetypes="ccc" />
      <path
         style="fill:none;fill-rule:evenodd;stroke:#000000;stroke-width:2.39050674;stroke-linecap:butt;stroke-linejoin:miter;stroke-miterlimit:4;stroke-dasharray:none;stroke-opacity:1"
         d="m 552.87322,258.47081 c -12.6957,-9.30532 -25.9442,-1.43201 -29.9621,1.58143 5.5979,2.54448 19.5719,8.19001 29.9621,-1.58143 z"
         id="path4582"
         inkscape:connector-curvature="0"
         sodipodi:nodetypes="ccc" />
      <circle
         style="opacity:1;fill:#369152;fill-opacity:1;stroke:#000000;stroke-width:2.39050674;stroke-miterlimit:4;stroke-dasharray:none;stroke-opacity:1"
         id="circle4584"
         cx="539.19586"
         cy="258.91779"
         r="4.4704022" />
      <circle
         r="4.4704022"
         cy="265.17535"
         cx="606.4201"
         id="circle4586"
         style="opacity:1;fill:#369152;fill-opacity:1;stroke:#000000;stroke-width:2.39050674;stroke-miterlimit:4;stroke-dasharray:none;stroke-opacity:1" />
      <path
         style="fill:none;fill-rule:evenodd;stroke:#000000;stroke-width:2.39050674;stroke-linecap:butt;stroke-linejoin:miter;stroke-miterlimit:4;stroke-dasharray:none;stroke-opacity:1"
         d="m 482.26092,258.7596 c -6.6076,0.39346 -7.4046,10.25011 -6.7238,15.40585 0.6049,5.19086 3.3154,15.69412 2.4415,19.66115"
         id="path4588"
         inkscape:connector-curvature="0"
         sodipodi:nodetypes="ccc" />
      <path
         style="fill:none;fill-rule:evenodd;stroke:#000000;stroke-width:2.39050674;stroke-linecap:butt;stroke-linejoin:miter;stroke-miterlimit:4;stroke-dasharray:none;stroke-opacity:1"
         d="m 487.58502,284.96428 c -7.541,0.24769 -5.4292,11.65269 -0.8134,12.57586"
         id="path4590"
         inkscape:connector-curvature="0"
         sodipodi:nodetypes="cc" />
      <path
         style="fill:none;fill-rule:evenodd;stroke:#000000;stroke-width:2.39050674;stroke-linecap:butt;stroke-linejoin:miter;stroke-miterlimit:4;stroke-dasharray:none;stroke-opacity:1"
         d="m 724.39882,834.39649 c -2.0412,49.87486 -5.2006,91.97637 -6.0679,142.35131"
         id="path4592"
         inkscape:connector-curvature="0"
         sodipodi:nodetypes="cc" />
      <path
         style="fill:none;fill-rule:evenodd;stroke:#000000;stroke-width:2.39050674;stroke-linecap:butt;stroke-linejoin:miter;stroke-miterlimit:4;stroke-dasharray:none;stroke-opacity:1"
         d="m 522.26312,399.88738 c 22.448,1.65388 27.7768,0.34799 26.6624,8.97261"
         id="path4594"
         inkscape:connector-curvature="0"
         sodipodi:nodetypes="cc" />
    </g>
    <g
       style="display:inline;opacity:0.98999999"
       id="g4772"
       transform="matrix(1.3587002,0,0,1.3587002,-33.647703,507.43347)">
      <path
         sodipodi:type="star"
         style="opacity:1;fill:#00ffef;fill-opacity:1;stroke:none;stroke-width:0.2;stroke-miterlimit:4;stroke-dasharray:none;stroke-opacity:1"
         id="path4754"
         sodipodi:sides="3"
         sodipodi:cx="392.68195"
         sodipodi:cy="777.62311"
         sodipodi:r1="19.313803"
         sodipodi:r2="9.6569014"
         sodipodi:arg1="2.0943951"
         sodipodi:arg2="3.1415927"
         inkscape:flatsided="false"
         inkscape:rounded="0"
         inkscape:randomized="0"
         d="m 383.02504,794.34935 0,-16.72624 0,-16.72625 14.48536,8.36313 14.48535,8.36312 -14.48535,8.36312 z"
         inkscape:transform-center-x="-5.9124298"
         transform="matrix(0.84466066,0.00154965,-6.7913971e-4,0.37017645,-219.65543,-207.07471)"
         inkscape:transform-center-y="-3.5704349" />
      <rect
         y="79.161491"
         x="66.785538"
         height="4.2743802"
         width="41.28347"
         id="rect4756"
         style="opacity:1;fill:#00ffef;fill-opacity:1;stroke:#00ffef;stroke-width:0.83774078;stroke-miterlimit:4;stroke-dasharray:none;stroke-opacity:1" />
      <rect
         transform="matrix(0,1,-1,0,0,0)"
         style="opacity:1;fill:#00ffef;fill-opacity:1;stroke:#00ffef;stroke-width:0.24931432;stroke-miterlimit:4;stroke-dasharray:none;stroke-opacity:1"
         id="rect4770"
         width="12.143093"
         height="1.2870493"
         x="75.319397"
         y="-128.96849" />
    </g>
    <text
       xml:space="preserve"
       style="font-style:normal;font-weight:normal;font-size:40px;line-height:125%;font-family:sans-serif;letter-spacing:0px;word-spacing:0px;display:inline;opacity:0.98999999;fill:#000000;fill-opacity:1;stroke:none;stroke-width:1px;stroke-linecap:butt;stroke-linejoin:miter;stroke-opacity:1"
       x="55.333294"
       y="598.09058"
       id="text5003"
       sodipodi:linespacing="125%"><tspan
         sodipodi:role="line"
         id="tspan5005"
         x="55.333294"
         y="598.09058"
         style="fill:#00ffef;fill-opacity:1">X 2</tspan></text>
    <g
       id="g4322">
      <g
         id="g4358">
        <path
           sodipodi:nodetypes="cczccc"
           inkscape:connector-curvature="0"
           id="path4332"
           d="m 316.99399,991.53137 c -0.0736,-3.66074 0.60529,-8.06344 -2.39911,-10.66974 -2.9818,-3.21642 -3.99838,-5.96642 -4.06315,-11.45809 -0.0648,-5.49167 0.31418,-9.31006 0.27508,-14.67961 0.6485,-4.96026 5.85752,-3.31515 6.31345,-2.62983 -0.19862,-4.47214 7.9086,-4.32609 8.46004,-1.85272"
           style="fill:none;fill-rule:evenodd;stroke:#000000;stroke-width:1px;stroke-linecap:butt;stroke-linejoin:miter;stroke-opacity:1" />
        <path
           sodipodi:nodetypes="czzzczcccc"
           inkscape:connector-curvature="0"
           id="path4334"
           d="m 327.72687,960.65858 c -1.10909,-3.97623 -2.18241,-9.53627 -2.7048,-14.53194 -0.5224,-4.99568 -2.05567,-13.45331 -2.47224,-19.9011 -0.41657,-6.44778 6.34341,-6.57041 7.51182,-0.21184 1.16841,6.35857 1.69368,15.34861 4.68054,27.06564 2.07011,-9.37983 4.10383,-19.68579 5.25953,-24.528 1.1557,-4.84222 6.91115,-6.11006 5.74421,2.97242 -1.50264,10.37173 -2.55665,15.5962 -3.68753,23.26981 0.13136,6.28995 -0.20415,19.32192 -0.16795,25.57865 -0.55821,6.80293 -5.43069,4.56767 -5.13534,10.90157"
           style="fill:none;fill-rule:evenodd;stroke:#000000;stroke-width:1px;stroke-linecap:butt;stroke-linejoin:miter;stroke-opacity:1" />
        <path
           sodipodi:nodetypes="cccccc"
           inkscape:connector-curvature="0"
           id="path4336"
           d="m 324.44387,979.72521 c -0.0732,-4.19799 1.8359,-7.75397 5.46242,-7.00115 -0.70792,-1.37272 -0.52938,-2.77011 0.15821,-3.86699 -7.34096,-0.62261 -8.63414,-4.05291 -7.82198,-8.05786 3.37772,-0.27555 5.85687,0.081 7.88362,-0.62072 6.7426,0.58188 10.18926,8.88754 11.96046,10.52375"
           style="fill:none;fill-rule:evenodd;stroke:#000000;stroke-width:1px;stroke-linecap:butt;stroke-linejoin:miter;stroke-opacity:1" />
        <path
           sodipodi:nodetypes="cc"
           inkscape:connector-curvature="0"
           id="path4338"
           d="m 327.85314,960.72172 c -0.8036,2.07389 -3.93733,2.85086 -5.68211,2.08343"
           style="fill:none;fill-rule:evenodd;stroke:#000000;stroke-width:1px;stroke-linecap:butt;stroke-linejoin:miter;stroke-opacity:1" />
        <path
           sodipodi:nodetypes="ccc"
           inkscape:connector-curvature="0"
           id="path4340"
           d="m 317.05713,951.75661 c 0.43465,4.66397 2.55374,10.85739 3.0809,14.25321 -3.11423,7.75764 -7.13177,1.55495 -9.45749,-3.70975"
           style="fill:none;fill-rule:evenodd;stroke:#000000;stroke-width:1px;stroke-linecap:butt;stroke-linejoin:miter;stroke-opacity:1" />
        <path
           sodipodi:nodetypes="cc"
           inkscape:connector-curvature="0"
           id="path4342"
           d="m 314.15294,967.91905 c -0.2395,-3.01753 4.75816,-3.73007 5.74524,-1.89403"
           style="fill:none;fill-rule:evenodd;stroke:#000000;stroke-width:1px;stroke-linecap:butt;stroke-linejoin:miter;stroke-opacity:1" />
        <path
           sodipodi:nodetypes="cc"
           inkscape:connector-curvature="0"
           id="path4344"
           d="m 320.08758,965.89875 c 0.31407,2.32425 3.49449,3.9344 4.51413,1.54679"
           style="fill:none;fill-rule:evenodd;stroke:#000000;stroke-width:1px;stroke-linecap:butt;stroke-linejoin:miter;stroke-opacity:1" />
        <path
           sodipodi:nodetypes="cc"
           inkscape:connector-curvature="0"
           id="path4346"
           d="m 320.34013,966.78264 c 0.22627,-0.75423 1.66457,-1.79657 2.17812,-1.38897"
           style="fill:none;fill-rule:evenodd;stroke:#000000;stroke-width:1px;stroke-linecap:butt;stroke-linejoin:miter;stroke-opacity:1" />
      </g>
    </g>
  </g>
</svg>
